<?xml version="1.0" encoding="UTF-8" standalone="no"?>
<!-- Created with Inkscape (http://www.inkscape.org/) -->

<svg
   xmlns:dc="http://purl.org/dc/elements/1.1/"
   xmlns:cc="http://creativecommons.org/ns#"
   xmlns:rdf="http://www.w3.org/1999/02/22-rdf-syntax-ns#"
   xmlns:svg="http://www.w3.org/2000/svg"
   xmlns="http://www.w3.org/2000/svg"
   xmlns:sodipodi="http://sodipodi.sourceforge.net/DTD/sodipodi-0.dtd"
   xmlns:inkscape="http://www.inkscape.org/namespaces/inkscape"
   width="200"
   height="200"
   id="svg2"
   version="1.1"
   inkscape:version="0.48.4 r9943 custom"
   sodipodi:docname="logo.svg"
   inkscape:export-filename="/Users/growdigital/Sites/forestgarden.wales/themes/gofgw/src/04-components/graphics/logo/logo.png"
   inkscape:export-xdpi="40.48"
   inkscape:export-ydpi="40.48">
  <defs
     id="defs4">
    <clipPath
       id="clipPath3077"
       clipPathUnits="userSpaceOnUse">
      <path
         id="path3079"
         clip-rule="evenodd"
         d="m 85,0 c 46.9442,0 85,38.0558 85,85 0,46.9442 -38.0558,85 -85,85 C 38.0558,170 0,131.9442 0,85 0,38.0558 38.0558,0 85,0 z" />
    </clipPath>
    <clipPath
       id="clipPath3083"
       clipPathUnits="userSpaceOnUse">
      <path
         id="path3085"
         d="M 0,0 170,0 170,170 0,170 0,0 z" />
    </clipPath>
    <clipPath
       id="clipPath3089"
       clipPathUnits="userSpaceOnUse">
      <path
         id="path3091"
         d="m -4,-21 181,0 0,195 -181,0 0,-195 z" />
    </clipPath>
    <clipPath
       id="clipPath3093"
       clipPathUnits="userSpaceOnUse">
      <path
         id="path3095"
         clip-rule="evenodd"
         d="m -3.269231,39.23077 179.807731,0 0,134.69233 -179.807731,0 0,-134.69233 z" />
    </clipPath>
    <clipPath
       id="clipPath3097"
       clipPathUnits="userSpaceOnUse">
      <path
         id="path3099"
         d="M 0,0 170,0 170,170 0,170 0,0 z" />
    </clipPath>
    <clipPath
       id="clipPath3101"
       clipPathUnits="userSpaceOnUse">
      <path
         id="path3103"
         clip-rule="evenodd"
         d="m -3.269231,43.15385 179.807731,0 0,-3.92308 -179.807731,0 0,3.92308 z" />
    </clipPath>
    <clipPath
       id="clipPath3105"
       clipPathUnits="userSpaceOnUse">
      <path
         id="path3107"
         d="M 0,0 170,0 170,170 0,170 0,0 z" />
    </clipPath>
    <clipPath
       id="clipPath3109"
       clipPathUnits="userSpaceOnUse">
      <path
         id="path3111"
         clip-rule="evenodd"
         d="m 105.1365,42.77178 c 10.4615,0.39362 -7.07004,-0.69961 3.3889,-0.0046 0.3884,5.3962 3.1672,9.31208 10.674,9.53439 5.9226,0.17588 11.9889,-3.46081 12.1596,-9.48339 1.392,0.051 3.9872,0.01766 3.9872,0.01766 l 0,-5.03658 -104.61543,0 0,5.03658 c 0,0 5.85911,-0.11769 8.77854,0.03073 5.99184,0.38838 11.77184,-0.41912 17.76892,0.15823 4.90385,0.13273 9.78415,-0.21708 14.66512,-0.22492 9.21007,0.29423 18.47115,-0.31385 27.67861,0.21707 1.83144,-0.153 3.67074,-0.44919 5.51454,-0.24519 z" />
    </clipPath>
    <clipPath
       id="clipPath3113"
       clipPathUnits="userSpaceOnUse">
      <path
         id="path3115"
         d="M 0,0 170,0 170,170 0,170 0,0 z" />
    </clipPath>
    <clipPath
       id="clipPath3117"
       clipPathUnits="userSpaceOnUse">
      <path
         id="path3119"
         clip-rule="evenodd"
         d="m 58.61142,87.61185 c -0.7055,0.01766 -1.50711,-0.03073 -2.08707,-0.14842 -0.43416,-0.08696 -0.97554,-0.442 -1.15927,-0.88858 -0.08435,-0.20204 -0.06408,-0.23538 -0.07193,-0.289 -0.01242,-0.23473 -0.01503,-0.34719 -0.01765,-0.47207 0,-0.24781 0.0078,-0.56493 0.01765,-0.91473 0.02093,-0.70224 0.05623,-1.53458 0.10527,-2.17339 0.051,-0.63358 0.05362,-4.48735 0.01766,-5.34061 -0.03073,-0.76108 -0.03073,-1.53981 0,-2.69712 0.01242,-0.43938 0.02288,-0.84281 0.0255,-1.13377 0.0026,-0.14581 0,-0.2635 0,-0.34 -0.01046,-0.17065 -0.0079,-0.19877 -0.0079,-0.22688 0,-0.06147 0.0052,-0.12554 0.0079,-0.20204 0.0078,-0.15562 0.02027,-0.36027 0.03596,-0.57473 0.04315,-0.58454 0.05361,-0.99843 0.0255,-2.31396 -0.0078,-0.44724 -0.02289,-0.85327 -0.03335,-1.15208 -0.0052,-0.14777 -0.01569,-0.27069 -0.01765,-0.34981 -0.01569,-0.153 -0.01569,-0.18635 -0.01831,-0.22492 -0.0072,-0.07912 -0.02027,-0.17589 -0.0255,-0.28835 -0.01242,-0.22492 -0.02288,-0.51588 -0.03531,-0.83038 -0.02615,-0.62573 -0.05427,-1.3175 -0.05165,-1.70066 0,-0.32954 0.0255,-1.00365 0.05165,-1.56334 0.02289,-0.52112 0.04054,-1.55027 0.04316,-2.24204 -0.05362,-1.26192 -0.0765,-2.78146 -0.0412,-3.66285 0.04643,-1.0115 -0.04315,-2.16815 -0.09415,-3.25157 -0.07388,-1.52477 -0.16869,-2.85535 -0.30404,-4.5717 -0.23996,-3.0188 -0.35504,-10.60211 -0.76369,-10.73223 -0.442,-0.14057 -0.61527,-0.0255 -1.13638,-0.06865 -0.289,-0.03073 -1.9975,-0.09481 -3.5785,-0.13339 -0.7892,-0.01765 -1.57316,-0.0353 -2.18908,-0.04315 -0.61789,-0.0052 -1.14881,0.01046 -1.13377,0.01046 -0.27069,0.02289 -0.61004,0.02027 -1.22335,0.0255 -0.60807,0.0052 -1.39204,0.0098 -2.20673,0.0072 -1.63461,0 -4.70965,0.01047 -6.83465,0.03597 -2.85077,0.03334 -5.17977,0.08696 -5.17977,0.08696 l 0,-5.23077 104.61543,0 0,5.13138 c 0,0 -6.122,-0.31188 -10.3034,-0.26807 l -2.4774,0.0255 c 0.3551,0.31646 0.7585,0.96507 1.1776,1.47115 0.391,0.47208 1.0292,1.088 1.5705,1.52673 0.2681,0.21773 0.6617,0.56754 0.9324,0.82777 0.2452,0.23538 0.6872,0.66169 0.986,0.94285 0.3086,0.29096 0.5336,0.51065 0.7179,0.76826 0.1812,0.25827 0.3139,0.61593 0.3139,0.92454 0,0.65123 -0.3322,1.18281 -0.9095,1.47639 -0.4237,0.21707 -1.0671,0.16607 -1.4659,-0.06146 -0.3191,-0.18635 -0.4342,-0.3217 -0.7225,-0.58454 -0.289,-0.26285 -0.6388,-0.60023 -1.022,-0.97816 -0.7689,-0.75388 -1.6575,-1.6575 -2.3395,-2.40092 -0.5008,-0.544 -0.7153,-0.76369 -0.9323,-0.99385 -0.003,0.2452 -0.005,0.50347 0.0333,0.77677 0.0589,0.4165 0.0817,1.14423 0.1046,2.19889 0.0334,1.428 0.0563,1.76473 0.1406,2.45192 0.087,0.69766 0.1353,0.97096 0.036,1.33581 -0.1125,0.40865 -0.3963,0.8075 -0.8481,0.99646 -0.2936,0.12227 -0.5008,0.11704 -0.7231,0.11181 -0.2243,-0.0046 -0.4316,-0.02027 -0.7075,-0.14777 -0.3648,-0.16869 -0.784,-0.65908 -0.8807,-1.12658 -0.0974,-0.4675 -0.0719,-0.93434 -0.0281,-1.66796 0.0588,-0.95723 0.0608,-1.23315 0,-2.93969 -0.0255,-0.77089 -0.008,-1.01869 0.0176,-1.32535 -0.3982,0.30666 -0.8552,0.66169 -1.0546,0.84543 -0.3708,0.34196 -0.8638,0.76107 -1.2672,1.08276 -0.1706,0.13797 -0.4413,0.32693 -0.733,0.52374 -0.2785,0.18896 -0.6178,0.4165 -0.748,0.50542 -0.391,0.26611 -0.8146,0.48058 -1.3286,0.46292 -0.5132,-0.01831 -0.95,-0.28638 -1.2815,-0.59304 -0.2459,-0.22688 -0.4727,-0.48515 -0.5774,-0.88073 -0.1026,-0.39884 0.0229,-0.85327 0.2014,-1.13704 0.2223,-0.3498 0.3832,-0.43677 0.6539,-0.65384 0.2733,-0.21708 0.6185,-0.46227 1.0141,-0.73296 0.4139,-0.28312 0.6872,-0.50804 1.3946,-1.14162 0.3244,-0.29096 0.7919,-0.66169 1.1521,-0.90885 0.2858,-0.19419 0.7049,-0.50607 0.8298,-0.61069 0.202,-0.17131 0.5106,-0.37007 0.5106,-0.37007 0,0 -0.61,0.09676 -0.85,0.1118 -1.0906,-0.0046 -1.3665,-0.16084 -2.2708,-0.13011 -7.3839,0.24257 -13.80727,0.29881 -22.52958,0.36027 0,0 0.03596,0.51588 0.051,1.0213 0.01766,0.5852 0.051,1.33581 0.07127,1.5967 0.02812,0.37792 0.03596,0.83234 0.01831,1.21288 -0.03073,0.61069 -0.0255,2.15312 0.0098,3.12146 0.01569,0.45181 0.05165,1.17496 0.07454,1.581 0.02027,0.35504 0.05623,0.81993 0.06865,0.9167 0.23538,1.78042 0.20923,6.97 -0.03335,8.82169 -0.02288,0.17654 -0.04577,0.34523 -0.07127,0.49038 -0.02288,0.14581 -0.0255,0.19158 -0.08696,0.39362 -0.10984,0.35504 -0.34196,0.71007 -0.67934,0.93238 -0.33935,0.22166 -0.7225,0.29881 -1.09323,0.29619 -0.45966,0 -1.54243,-0.12553 -1.90008,-0.55707 -0.35765,-0.43154 -0.40342,-0.91931 -0.41127,-1.41493 0.0079,-0.54138 0.01308,-1.03961 0.0255,-1.49142 0.051,-1.59669 -0.04838,-3.96884 -0.10462,-5.18238 -0.03596,-0.65123 -0.04576,-1.30508 -0.08696,-1.9537 -0.15038,-2.25053 -0.17588,-4.56188 -0.19942,-6.52342 0.0026,-1.09323 -0.06865,-2.29565 -0.11442,-3.32284 -0.53943,0.0255 -0.61331,0.0693 -1.16973,0.08696 -7.09293,-0.08435 -2.32443,0.0078 -8.74781,0.01307 -0.92192,0.0046 -1.73923,0.0327 -1.91839,0.05362 -1.28219,0.14515 -2.8985,0.21969 -4.75803,0.22688 -3.94597,0.0157 -6.6967,-0.03073 -8.06324,-0.14777 -1.09323,-0.0948 -1.09846,0.04054 -1.37438,0.04839 -0.44919,2.38785 -0.36485,4.59719 -0.34458,6.23704 0.03596,2.95277 -0.0255,3.49415 -0.03596,4.34677 -0.03334,2.85077 0.09742,5.52238 0.10462,7.01642 0.01307,1.66796 0.02811,2.24727 0.06146,2.50554 0.08696,0.65123 0.08434,1.94388 0.06146,3.75177 0,0.17392 0.01242,0.78657 0.02812,1.36131 0.04576,1.90269 0.06342,11.66723 0.0255,13.54442 -0.02027,0.94023 -0.051,5.97158 -0.06147,6.72742 -0.01242,0.77416 -0.0078,1.14946 -0.06865,1.51954 -0.03335,0.18438 -0.10004,0.41127 -0.25565,0.61069 -0.153,0.19943 -0.3217,0.29358 -0.40081,0.33935 -0.13535,0.08173 -0.3655,0.15365 -0.54139,0.17654 -0.17392,0.02027 -0.34,0.02811 -0.60023,0.03334 z" />
    </clipPath>
    <clipPath
       id="clipPath3121"
       clipPathUnits="userSpaceOnUse">
      <path
         id="path3123"
         d="M 0,0 170,0 170,170 0,170 0,0 z" />
    </clipPath>
    <clipPath
       id="clipPath3125"
       clipPathUnits="userSpaceOnUse">
      <path
         id="path3127"
         clip-rule="evenodd"
         d="m 63.19249,87.25307 c -2.36561,-0.63096 -4.84565,-0.83496 -7.27142,-0.64077 -2.36823,0.18896 -4.82473,0.5695 -6.94711,1.74969 -4.72012,2.62781 -9.32254,6.39527 -12.05039,11.41158 -1.15469,2.12953 -1.24623,4.80383 -1.46854,7.27663 -0.18634,2.0557 -0.24257,4.1657 0.11246,6.1933 0.5002,2.8605 1.36131,5.7368 2.7965,8.1783 1.14685,1.9491 2.771,3.5628 4.49258,4.896 2.29108,1.7725 4.85808,3.2489 7.57546,3.9721 2.53627,0.6767 5.22554,0.5132 7.82327,0.2576 2.12239,-0.2066 4.26504,-0.6029 6.25208,-1.4509 3.59615,-1.5398 7.19231,-3.5347 9.98161,-6.4875 2.03804,-2.1576 3.69097,-4.9038 4.60766,-7.8585 1.0625,-3.4151 1.17758,-7.2002 0.85327,-10.7937 -0.20989,-2.3264 -0.75127,-4.69202 -1.79089,-6.72745 -1.00627,-1.972 -2.4748,-3.70077 -4.148,-4.99865 -3.19992,-2.482 -7.02361,-3.96362 -10.81854,-4.97773 z" />
    </clipPath>
    <clipPath
       id="clipPath3129"
       clipPathUnits="userSpaceOnUse">
      <path
         id="path3131"
         d="M 0,0 170,0 170,170 0,170 0,0 z" />
    </clipPath>
    <clipPath
       id="clipPath3133"
       clipPathUnits="userSpaceOnUse">
      <path
         id="path3135"
         clip-rule="evenodd"
         d="m 87.52903,84.99963 c -0.58258,-0.0052 -1.16189,-0.06931 -1.72681,-0.22754 -1.20766,-0.33934 -2.34927,-1.03438 -3.366,-1.86411 -0.76631,-0.62573 -1.48685,-1.38223 -1.9975,-2.29631 -0.63619,-1.14685 -1.01673,-2.49508 -1.23839,-3.83873 -0.15888,-0.95004 -0.13338,-1.9465 -0.05165,-2.91158 0.03073,-0.34261 0.05885,-0.68719 0.08958,-1.037 -0.23997,-0.03335 -0.4747,-0.08435 -0.7127,-0.14842 -1.18477,-0.31385 -2.31134,-0.9605 -3.30977,-1.734 -0.75126,-0.58258 -1.4535,-1.28219 -1.95369,-2.13546 -0.62834,-1.06512 -1.00888,-2.3192 -1.22596,-3.56804 -0.15365,-0.88335 -0.13077,-1.80593 -0.04904,-2.70235 0.09743,-1.07754 0.13535,-2.24988 0.64143,-3.17965 1.19,-2.18908 3.1973,-3.8335 5.25626,-4.98035 0.92716,-0.51588 1.99947,-0.67934 3.03385,-0.76108 1.05792,-0.08696 2.14069,0 3.17246,0.27593 1.65489,0.442 2.97043,1.93342 4.72012,2.17338 0.53615,0.07389 1.64965,-0.99123 2.22177,-1.32273 0.92715,-0.51654 2.00273,-0.68 3.0345,-0.76173 1.05988,-0.08631 2.14004,0 3.1718,0.27592 1.65554,0.442 3.31831,1.09062 4.71231,2.17404 0.731,0.56427 1.3796,1.32012 1.819,2.18123 0.4518,0.88858 0.6865,1.92035 0.7787,2.93708 0.1406,1.56792 0.0896,3.22281 -0.3727,4.71227 -0.4008,1.28938 -1.124,2.48985 -2.0125,3.43269 -0.9403,0.99581 -2.0871,1.73662 -3.28496,2.33423 0.01569,0.13012 0.02812,0.25304 0.04119,0.38316 0.14254,1.68561 0.08893,3.46603 -0.38315,5.06992 -0.40604,1.38681 -1.139,2.67685 -2.04327,3.69031 -1.23904,1.3868 -2.84031,2.31919 -4.43635,3.04234 -0.884,0.3982 -1.83403,0.58193 -2.77623,0.68196 -0.57734,0.05885 -1.16777,0.10985 -1.7523,0.10462 z" />
    </clipPath>
    <clipPath
       id="clipPath3137"
       clipPathUnits="userSpaceOnUse">
      <path
         id="path3139"
         d="M 0,0 170,0 170,170 0,170 0,0 z" />
    </clipPath>
    <clipPath
       id="clipPath3141"
       clipPathUnits="userSpaceOnUse">
      <path
         id="path3143"
         clip-rule="evenodd"
         d="m -3.269231,39.23077 179.807731,0 0,-60.15385 -179.807731,0 0,60.15385 z" />
    </clipPath>
    <clipPath
       id="clipPath3145"
       clipPathUnits="userSpaceOnUse">
      <path
         id="path3147"
         d="M 0,0 170,0 170,170 0,170 0,0 z" />
    </clipPath>
    <clipPath
       id="clipPath3149"
       clipPathUnits="userSpaceOnUse">
      <path
         id="path3151"
         clip-rule="evenodd"
         d="m 105.1365,42.77178 c 10.4615,0.39362 -7.07004,-0.69961 3.3889,-0.0046 0.3884,5.3962 3.1672,9.31208 10.674,9.53439 5.9226,0.17588 11.9889,-3.46081 12.1596,-9.48339 1.392,0.051 3.9872,0.01766 3.9872,0.01766 l 0,-5.03658 -104.61543,0 0,5.03658 c 0,0 5.85911,-0.11769 8.77854,0.03073 5.99184,0.38838 11.77184,-0.41912 17.76892,0.15823 4.90385,0.13273 9.78415,-0.21708 14.66512,-0.22492 9.21007,0.29423 18.47115,-0.31385 27.67861,0.21707 1.83144,-0.153 3.67074,-0.44919 5.51454,-0.24519 z" />
    </clipPath>
    <clipPath
       id="clipPath3153"
       clipPathUnits="userSpaceOnUse">
      <path
         id="path3155"
         d="M 0,0 170,0 170,170 0,170 0,0 z" />
    </clipPath>
    <clipPath
       id="clipPath3157"
       clipPathUnits="userSpaceOnUse">
      <path
         id="path3159"
         clip-rule="evenodd"
         d="m 58.61142,87.61185 c -0.7055,0.01766 -1.50711,-0.03073 -2.08707,-0.14842 -0.43416,-0.08696 -0.97554,-0.442 -1.15927,-0.88858 -0.08435,-0.20204 -0.06408,-0.23538 -0.07193,-0.289 -0.01242,-0.23473 -0.01503,-0.34719 -0.01765,-0.47207 0,-0.24781 0.0078,-0.56493 0.01765,-0.91473 0.02093,-0.70224 0.05623,-1.53458 0.10527,-2.17339 0.051,-0.63358 0.05362,-4.48735 0.01766,-5.34061 -0.03073,-0.76108 -0.03073,-1.53981 0,-2.69712 0.01242,-0.43938 0.02288,-0.84281 0.0255,-1.13377 0.0026,-0.14581 0,-0.2635 0,-0.34 -0.01046,-0.17065 -0.0079,-0.19877 -0.0079,-0.22688 0,-0.06147 0.0052,-0.12554 0.0079,-0.20204 0.0078,-0.15562 0.02027,-0.36027 0.03596,-0.57473 0.04315,-0.58454 0.05361,-0.99843 0.0255,-2.31396 -0.0078,-0.44724 -0.02289,-0.85327 -0.03335,-1.15208 -0.0052,-0.14777 -0.01569,-0.27069 -0.01765,-0.34981 -0.01569,-0.153 -0.01569,-0.18635 -0.01831,-0.22492 -0.0072,-0.07912 -0.02027,-0.17589 -0.0255,-0.28835 -0.01242,-0.22492 -0.02288,-0.51588 -0.03531,-0.83038 -0.02615,-0.62573 -0.05427,-1.3175 -0.05165,-1.70066 0,-0.32954 0.0255,-1.00365 0.05165,-1.56334 0.02289,-0.52112 0.04054,-1.55027 0.04316,-2.24204 -0.05362,-1.26192 -0.0765,-2.78146 -0.0412,-3.66285 0.04643,-1.0115 -0.04315,-2.16815 -0.09415,-3.25157 -0.07388,-1.52477 -0.16869,-2.85535 -0.30404,-4.5717 -0.23996,-3.0188 -0.35504,-10.60211 -0.76369,-10.73223 -0.442,-0.14057 -0.61527,-0.0255 -1.13638,-0.06865 -0.289,-0.03073 -1.9975,-0.09481 -3.5785,-0.13339 -0.7892,-0.01765 -1.57316,-0.0353 -2.18908,-0.04315 -0.61789,-0.0052 -1.14881,0.01046 -1.13377,0.01046 -0.27069,0.02289 -0.61004,0.02027 -1.22335,0.0255 -0.60807,0.0052 -1.39204,0.0098 -2.20673,0.0072 -1.63461,0 -4.70965,0.01047 -6.83465,0.03597 -2.85077,0.03334 -5.17977,0.08696 -5.17977,0.08696 l 0,-5.23077 104.61543,0 0,5.13138 c 0,0 -6.122,-0.31188 -10.3034,-0.26807 l -2.4774,0.0255 c 0.3551,0.31646 0.7585,0.96507 1.1776,1.47115 0.391,0.47208 1.0292,1.088 1.5705,1.52673 0.2681,0.21773 0.6617,0.56754 0.9324,0.82777 0.2452,0.23538 0.6872,0.66169 0.986,0.94285 0.3086,0.29096 0.5336,0.51065 0.7179,0.76826 0.1812,0.25827 0.3139,0.61593 0.3139,0.92454 0,0.65123 -0.3322,1.18281 -0.9095,1.47639 -0.4237,0.21707 -1.0671,0.16607 -1.4659,-0.06146 -0.3191,-0.18635 -0.4342,-0.3217 -0.7225,-0.58454 -0.289,-0.26285 -0.6388,-0.60023 -1.022,-0.97816 -0.7689,-0.75388 -1.6575,-1.6575 -2.3395,-2.40092 -0.5008,-0.544 -0.7153,-0.76369 -0.9323,-0.99385 -0.003,0.2452 -0.005,0.50347 0.0333,0.77677 0.0589,0.4165 0.0817,1.14423 0.1046,2.19889 0.0334,1.428 0.0563,1.76473 0.1406,2.45192 0.087,0.69766 0.1353,0.97096 0.036,1.33581 -0.1125,0.40865 -0.3963,0.8075 -0.8481,0.99646 -0.2936,0.12227 -0.5008,0.11704 -0.7231,0.11181 -0.2243,-0.0046 -0.4316,-0.02027 -0.7075,-0.14777 -0.3648,-0.16869 -0.784,-0.65908 -0.8807,-1.12658 -0.0974,-0.4675 -0.0719,-0.93434 -0.0281,-1.66796 0.0588,-0.95723 0.0608,-1.23315 0,-2.93969 -0.0255,-0.77089 -0.008,-1.01869 0.0176,-1.32535 -0.3982,0.30666 -0.8552,0.66169 -1.0546,0.84543 -0.3708,0.34196 -0.8638,0.76107 -1.2672,1.08276 -0.1706,0.13797 -0.4413,0.32693 -0.733,0.52374 -0.2785,0.18896 -0.6178,0.4165 -0.748,0.50542 -0.391,0.26611 -0.8146,0.48058 -1.3286,0.46292 -0.5132,-0.01831 -0.95,-0.28638 -1.2815,-0.59304 -0.2459,-0.22688 -0.4727,-0.48515 -0.5774,-0.88073 -0.1026,-0.39884 0.0229,-0.85327 0.2014,-1.13704 0.2223,-0.3498 0.3832,-0.43677 0.6539,-0.65384 0.2733,-0.21708 0.6185,-0.46227 1.0141,-0.73296 0.4139,-0.28312 0.6872,-0.50804 1.3946,-1.14162 0.3244,-0.29096 0.7919,-0.66169 1.1521,-0.90885 0.2858,-0.19419 0.7049,-0.50607 0.8298,-0.61069 0.202,-0.17131 0.5106,-0.37007 0.5106,-0.37007 0,0 -0.61,0.09676 -0.85,0.1118 -1.0906,-0.0046 -1.3665,-0.16084 -2.2708,-0.13011 -7.3839,0.24257 -13.80727,0.29881 -22.52958,0.36027 0,0 0.03596,0.51588 0.051,1.0213 0.01766,0.5852 0.051,1.33581 0.07127,1.5967 0.02812,0.37792 0.03596,0.83234 0.01831,1.21288 -0.03073,0.61069 -0.0255,2.15312 0.0098,3.12146 0.01569,0.45181 0.05165,1.17496 0.07454,1.581 0.02027,0.35504 0.05623,0.81993 0.06865,0.9167 0.23538,1.78042 0.20923,6.97 -0.03335,8.82169 -0.02288,0.17654 -0.04577,0.34523 -0.07127,0.49038 -0.02288,0.14581 -0.0255,0.19158 -0.08696,0.39362 -0.10984,0.35504 -0.34196,0.71007 -0.67934,0.93238 -0.33935,0.22166 -0.7225,0.29881 -1.09323,0.29619 -0.45966,0 -1.54243,-0.12553 -1.90008,-0.55707 -0.35765,-0.43154 -0.40342,-0.91931 -0.41127,-1.41493 0.0079,-0.54138 0.01308,-1.03961 0.0255,-1.49142 0.051,-1.59669 -0.04838,-3.96884 -0.10462,-5.18238 -0.03596,-0.65123 -0.04576,-1.30508 -0.08696,-1.9537 -0.15038,-2.25053 -0.17588,-4.56188 -0.19942,-6.52342 0.0026,-1.09323 -0.06865,-2.29565 -0.11442,-3.32284 -0.53943,0.0255 -0.61331,0.0693 -1.16973,0.08696 -7.09293,-0.08435 -2.32443,0.0078 -8.74781,0.01307 -0.92192,0.0046 -1.73923,0.0327 -1.91839,0.05362 -1.28219,0.14515 -2.8985,0.21969 -4.75803,0.22688 -3.94597,0.0157 -6.6967,-0.03073 -8.06324,-0.14777 -1.09323,-0.0948 -1.09846,0.04054 -1.37438,0.04839 -0.44919,2.38785 -0.36485,4.59719 -0.34458,6.23704 0.03596,2.95277 -0.0255,3.49415 -0.03596,4.34677 -0.03334,2.85077 0.09742,5.52238 0.10462,7.01642 0.01307,1.66796 0.02811,2.24727 0.06146,2.50554 0.08696,0.65123 0.08434,1.94388 0.06146,3.75177 0,0.17392 0.01242,0.78657 0.02812,1.36131 0.04576,1.90269 0.06342,11.66723 0.0255,13.54442 -0.02027,0.94023 -0.051,5.97158 -0.06147,6.72742 -0.01242,0.77416 -0.0078,1.14946 -0.06865,1.51954 -0.03335,0.18438 -0.10004,0.41127 -0.25565,0.61069 -0.153,0.19943 -0.3217,0.29358 -0.40081,0.33935 -0.13535,0.08173 -0.3655,0.15365 -0.54139,0.17654 -0.17392,0.02027 -0.34,0.02811 -0.60023,0.03334 z" />
    </clipPath>
    <clipPath
       id="clipPath3161"
       clipPathUnits="userSpaceOnUse">
      <path
         id="path3163"
         d="M 0,0 170,0 170,170 0,170 0,0 z" />
    </clipPath>
    <clipPath
       id="clipPath3165"
       clipPathUnits="userSpaceOnUse">
      <path
         id="path3167"
         clip-rule="evenodd"
         d="m 63.19249,87.25307 c -2.36561,-0.63096 -4.84565,-0.83496 -7.27142,-0.64077 -2.36823,0.18896 -4.82473,0.5695 -6.94711,1.74969 -4.72012,2.62781 -9.32254,6.39527 -12.05039,11.41158 -1.15469,2.12953 -1.24623,4.80383 -1.46854,7.27663 -0.18634,2.0557 -0.24257,4.1657 0.11246,6.1933 0.5002,2.8605 1.36131,5.7368 2.7965,8.1783 1.14685,1.9491 2.771,3.5628 4.49258,4.896 2.29108,1.7725 4.85808,3.2489 7.57546,3.9721 2.53627,0.6767 5.22554,0.5132 7.82327,0.2576 2.12239,-0.2066 4.26504,-0.6029 6.25208,-1.4509 3.59615,-1.5398 7.19231,-3.5347 9.98161,-6.4875 2.03804,-2.1576 3.69097,-4.9038 4.60766,-7.8585 1.0625,-3.4151 1.17758,-7.2002 0.85327,-10.7937 -0.20989,-2.3264 -0.75127,-4.69202 -1.79089,-6.72745 -1.00627,-1.972 -2.4748,-3.70077 -4.148,-4.99865 -3.19992,-2.482 -7.02361,-3.96362 -10.81854,-4.97773 z" />
    </clipPath>
    <clipPath
       id="clipPath3169"
       clipPathUnits="userSpaceOnUse">
      <path
         id="path3171"
         d="M 0,0 170,0 170,170 0,170 0,0 z" />
    </clipPath>
    <clipPath
       id="clipPath3173"
       clipPathUnits="userSpaceOnUse">
      <path
         id="path3175"
         clip-rule="evenodd"
         d="m 87.52903,84.99963 c -0.58258,-0.0052 -1.16189,-0.06931 -1.72681,-0.22754 -1.20766,-0.33934 -2.34927,-1.03438 -3.366,-1.86411 -0.76631,-0.62573 -1.48685,-1.38223 -1.9975,-2.29631 -0.63619,-1.14685 -1.01673,-2.49508 -1.23839,-3.83873 -0.15888,-0.95004 -0.13338,-1.9465 -0.05165,-2.91158 0.03073,-0.34261 0.05885,-0.68719 0.08958,-1.037 -0.23997,-0.03335 -0.4747,-0.08435 -0.7127,-0.14842 -1.18477,-0.31385 -2.31134,-0.9605 -3.30977,-1.734 -0.75126,-0.58258 -1.4535,-1.28219 -1.95369,-2.13546 -0.62834,-1.06512 -1.00888,-2.3192 -1.22596,-3.56804 -0.15365,-0.88335 -0.13077,-1.80593 -0.04904,-2.70235 0.09743,-1.07754 0.13535,-2.24988 0.64143,-3.17965 1.19,-2.18908 3.1973,-3.8335 5.25626,-4.98035 0.92716,-0.51588 1.99947,-0.67934 3.03385,-0.76108 1.05792,-0.08696 2.14069,0 3.17246,0.27593 1.65489,0.442 2.97043,1.93342 4.72012,2.17338 0.53615,0.07389 1.64965,-0.99123 2.22177,-1.32273 0.92715,-0.51654 2.00273,-0.68 3.0345,-0.76173 1.05988,-0.08631 2.14004,0 3.1718,0.27592 1.65554,0.442 3.31831,1.09062 4.71231,2.17404 0.731,0.56427 1.3796,1.32012 1.819,2.18123 0.4518,0.88858 0.6865,1.92035 0.7787,2.93708 0.1406,1.56792 0.0896,3.22281 -0.3727,4.71227 -0.4008,1.28938 -1.124,2.48985 -2.0125,3.43269 -0.9403,0.99581 -2.0871,1.73662 -3.28496,2.33423 0.01569,0.13012 0.02812,0.25304 0.04119,0.38316 0.14254,1.68561 0.08893,3.46603 -0.38315,5.06992 -0.40604,1.38681 -1.139,2.67685 -2.04327,3.69031 -1.23904,1.3868 -2.84031,2.31919 -4.43635,3.04234 -0.884,0.3982 -1.83403,0.58193 -2.77623,0.68196 -0.57734,0.05885 -1.16777,0.10985 -1.7523,0.10462 z" />
    </clipPath>
    <clipPath
       id="clipPath3177"
       clipPathUnits="userSpaceOnUse">
      <path
         id="path3179"
         d="M 0,0 170,0 170,170 0,170 0,0 z" />
    </clipPath>
    <clipPath
       id="clipPath3077-5"
       clipPathUnits="userSpaceOnUse">
      <path
         inkscape:connector-curvature="0"
         id="path3079-1"
         clip-rule="evenodd"
         d="m 85,0 c 46.9442,0 85,38.0558 85,85 0,46.9442 -38.0558,85 -85,85 C 38.0558,170 0,131.9442 0,85 0,38.0558 38.0558,0 85,0 z" />
    </clipPath>
    <clipPath
       id="clipPath3083-8"
       clipPathUnits="userSpaceOnUse">
      <path
         inkscape:connector-curvature="0"
         id="path3085-6"
         d="M 0,0 170,0 170,170 0,170 0,0 z" />
    </clipPath>
    <clipPath
       id="clipPath3089-3"
       clipPathUnits="userSpaceOnUse">
      <path
         inkscape:connector-curvature="0"
         id="path3091-2"
         d="m -4,-21 181,0 0,195 -181,0 0,-195 z" />
    </clipPath>
    <clipPath
       id="clipPath3093-4"
       clipPathUnits="userSpaceOnUse">
      <path
         inkscape:connector-curvature="0"
         id="path3095-0"
         clip-rule="evenodd"
         d="m -3.269231,39.23077 179.807731,0 0,134.69233 -179.807731,0 0,-134.69233 z" />
    </clipPath>
    <clipPath
       id="clipPath3097-4"
       clipPathUnits="userSpaceOnUse">
      <path
         inkscape:connector-curvature="0"
         id="path3099-8"
         d="M 0,0 170,0 170,170 0,170 0,0 z" />
    </clipPath>
    <clipPath
       id="clipPath3101-6"
       clipPathUnits="userSpaceOnUse">
      <path
         inkscape:connector-curvature="0"
         id="path3103-3"
         clip-rule="evenodd"
         d="m -3.269231,43.15385 179.807731,0 0,-3.92308 -179.807731,0 0,3.92308 z" />
    </clipPath>
    <clipPath
       id="clipPath3105-4"
       clipPathUnits="userSpaceOnUse">
      <path
         inkscape:connector-curvature="0"
         id="path3107-4"
         d="M 0,0 170,0 170,170 0,170 0,0 z" />
    </clipPath>
    <clipPath
       id="clipPath3109-6"
       clipPathUnits="userSpaceOnUse">
      <path
         inkscape:connector-curvature="0"
         id="path3111-1"
         clip-rule="evenodd"
         d="m 105.1365,42.77178 c 10.4615,0.39362 -7.07004,-0.69961 3.3889,-0.0046 0.3884,5.3962 3.1672,9.31208 10.674,9.53439 5.9226,0.17588 11.9889,-3.46081 12.1596,-9.48339 1.392,0.051 3.9872,0.01766 3.9872,0.01766 l 0,-5.03658 -104.61543,0 0,5.03658 c 0,0 5.85911,-0.11769 8.77854,0.03073 5.99184,0.38838 11.77184,-0.41912 17.76892,0.15823 4.90385,0.13273 9.78415,-0.21708 14.66512,-0.22492 9.21007,0.29423 18.47115,-0.31385 27.67861,0.21707 1.83144,-0.153 3.67074,-0.44919 5.51454,-0.24519 z" />
    </clipPath>
    <clipPath
       id="clipPath3113-0"
       clipPathUnits="userSpaceOnUse">
      <path
         inkscape:connector-curvature="0"
         id="path3115-8"
         d="M 0,0 170,0 170,170 0,170 0,0 z" />
    </clipPath>
    <clipPath
       id="clipPath3117-5"
       clipPathUnits="userSpaceOnUse">
      <path
         inkscape:connector-curvature="0"
         id="path3119-0"
         clip-rule="evenodd"
         d="m 58.61142,87.61185 c -0.7055,0.01766 -1.50711,-0.03073 -2.08707,-0.14842 -0.43416,-0.08696 -0.97554,-0.442 -1.15927,-0.88858 -0.08435,-0.20204 -0.06408,-0.23538 -0.07193,-0.289 -0.01242,-0.23473 -0.01503,-0.34719 -0.01765,-0.47207 0,-0.24781 0.0078,-0.56493 0.01765,-0.91473 0.02093,-0.70224 0.05623,-1.53458 0.10527,-2.17339 0.051,-0.63358 0.05362,-4.48735 0.01766,-5.34061 -0.03073,-0.76108 -0.03073,-1.53981 0,-2.69712 0.01242,-0.43938 0.02288,-0.84281 0.0255,-1.13377 0.0026,-0.14581 0,-0.2635 0,-0.34 -0.01046,-0.17065 -0.0079,-0.19877 -0.0079,-0.22688 0,-0.06147 0.0052,-0.12554 0.0079,-0.20204 0.0078,-0.15562 0.02027,-0.36027 0.03596,-0.57473 0.04315,-0.58454 0.05361,-0.99843 0.0255,-2.31396 -0.0078,-0.44724 -0.02289,-0.85327 -0.03335,-1.15208 -0.0052,-0.14777 -0.01569,-0.27069 -0.01765,-0.34981 -0.01569,-0.153 -0.01569,-0.18635 -0.01831,-0.22492 -0.0072,-0.07912 -0.02027,-0.17589 -0.0255,-0.28835 -0.01242,-0.22492 -0.02288,-0.51588 -0.03531,-0.83038 -0.02615,-0.62573 -0.05427,-1.3175 -0.05165,-1.70066 0,-0.32954 0.0255,-1.00365 0.05165,-1.56334 0.02289,-0.52112 0.04054,-1.55027 0.04316,-2.24204 -0.05362,-1.26192 -0.0765,-2.78146 -0.0412,-3.66285 0.04643,-1.0115 -0.04315,-2.16815 -0.09415,-3.25157 -0.07388,-1.52477 -0.16869,-2.85535 -0.30404,-4.5717 -0.23996,-3.0188 -0.35504,-10.60211 -0.76369,-10.73223 -0.442,-0.14057 -0.61527,-0.0255 -1.13638,-0.06865 -0.289,-0.03073 -1.9975,-0.09481 -3.5785,-0.13339 -0.7892,-0.01765 -1.57316,-0.0353 -2.18908,-0.04315 -0.61789,-0.0052 -1.14881,0.01046 -1.13377,0.01046 -0.27069,0.02289 -0.61004,0.02027 -1.22335,0.0255 -0.60807,0.0052 -1.39204,0.0098 -2.20673,0.0072 -1.63461,0 -4.70965,0.01047 -6.83465,0.03597 -2.85077,0.03334 -5.17977,0.08696 -5.17977,0.08696 l 0,-5.23077 104.61543,0 0,5.13138 c 0,0 -6.122,-0.31188 -10.3034,-0.26807 l -2.4774,0.0255 c 0.3551,0.31646 0.7585,0.96507 1.1776,1.47115 0.391,0.47208 1.0292,1.088 1.5705,1.52673 0.2681,0.21773 0.6617,0.56754 0.9324,0.82777 0.2452,0.23538 0.6872,0.66169 0.986,0.94285 0.3086,0.29096 0.5336,0.51065 0.7179,0.76826 0.1812,0.25827 0.3139,0.61593 0.3139,0.92454 0,0.65123 -0.3322,1.18281 -0.9095,1.47639 -0.4237,0.21707 -1.0671,0.16607 -1.4659,-0.06146 -0.3191,-0.18635 -0.4342,-0.3217 -0.7225,-0.58454 -0.289,-0.26285 -0.6388,-0.60023 -1.022,-0.97816 -0.7689,-0.75388 -1.6575,-1.6575 -2.3395,-2.40092 -0.5008,-0.544 -0.7153,-0.76369 -0.9323,-0.99385 -0.003,0.2452 -0.005,0.50347 0.0333,0.77677 0.0589,0.4165 0.0817,1.14423 0.1046,2.19889 0.0334,1.428 0.0563,1.76473 0.1406,2.45192 0.087,0.69766 0.1353,0.97096 0.036,1.33581 -0.1125,0.40865 -0.3963,0.8075 -0.8481,0.99646 -0.2936,0.12227 -0.5008,0.11704 -0.7231,0.11181 -0.2243,-0.0046 -0.4316,-0.02027 -0.7075,-0.14777 -0.3648,-0.16869 -0.784,-0.65908 -0.8807,-1.12658 -0.0974,-0.4675 -0.0719,-0.93434 -0.0281,-1.66796 0.0588,-0.95723 0.0608,-1.23315 0,-2.93969 -0.0255,-0.77089 -0.008,-1.01869 0.0176,-1.32535 -0.3982,0.30666 -0.8552,0.66169 -1.0546,0.84543 -0.3708,0.34196 -0.8638,0.76107 -1.2672,1.08276 -0.1706,0.13797 -0.4413,0.32693 -0.733,0.52374 -0.2785,0.18896 -0.6178,0.4165 -0.748,0.50542 -0.391,0.26611 -0.8146,0.48058 -1.3286,0.46292 -0.5132,-0.01831 -0.95,-0.28638 -1.2815,-0.59304 -0.2459,-0.22688 -0.4727,-0.48515 -0.5774,-0.88073 -0.1026,-0.39884 0.0229,-0.85327 0.2014,-1.13704 0.2223,-0.3498 0.3832,-0.43677 0.6539,-0.65384 0.2733,-0.21708 0.6185,-0.46227 1.0141,-0.73296 0.4139,-0.28312 0.6872,-0.50804 1.3946,-1.14162 0.3244,-0.29096 0.7919,-0.66169 1.1521,-0.90885 0.2858,-0.19419 0.7049,-0.50607 0.8298,-0.61069 0.202,-0.17131 0.5106,-0.37007 0.5106,-0.37007 0,0 -0.61,0.09676 -0.85,0.1118 -1.0906,-0.0046 -1.3665,-0.16084 -2.2708,-0.13011 -7.3839,0.24257 -13.80727,0.29881 -22.52958,0.36027 0,0 0.03596,0.51588 0.051,1.0213 0.01766,0.5852 0.051,1.33581 0.07127,1.5967 0.02812,0.37792 0.03596,0.83234 0.01831,1.21288 -0.03073,0.61069 -0.0255,2.15312 0.0098,3.12146 0.01569,0.45181 0.05165,1.17496 0.07454,1.581 0.02027,0.35504 0.05623,0.81993 0.06865,0.9167 0.23538,1.78042 0.20923,6.97 -0.03335,8.82169 -0.02288,0.17654 -0.04577,0.34523 -0.07127,0.49038 -0.02288,0.14581 -0.0255,0.19158 -0.08696,0.39362 -0.10984,0.35504 -0.34196,0.71007 -0.67934,0.93238 -0.33935,0.22166 -0.7225,0.29881 -1.09323,0.29619 -0.45966,0 -1.54243,-0.12553 -1.90008,-0.55707 -0.35765,-0.43154 -0.40342,-0.91931 -0.41127,-1.41493 0.0079,-0.54138 0.01308,-1.03961 0.0255,-1.49142 0.051,-1.59669 -0.04838,-3.96884 -0.10462,-5.18238 -0.03596,-0.65123 -0.04576,-1.30508 -0.08696,-1.9537 -0.15038,-2.25053 -0.17588,-4.56188 -0.19942,-6.52342 0.0026,-1.09323 -0.06865,-2.29565 -0.11442,-3.32284 -0.53943,0.0255 -0.61331,0.0693 -1.16973,0.08696 -7.09293,-0.08435 -2.32443,0.0078 -8.74781,0.01307 -0.92192,0.0046 -1.73923,0.0327 -1.91839,0.05362 -1.28219,0.14515 -2.8985,0.21969 -4.75803,0.22688 -3.94597,0.0157 -6.6967,-0.03073 -8.06324,-0.14777 -1.09323,-0.0948 -1.09846,0.04054 -1.37438,0.04839 -0.44919,2.38785 -0.36485,4.59719 -0.34458,6.23704 0.03596,2.95277 -0.0255,3.49415 -0.03596,4.34677 -0.03334,2.85077 0.09742,5.52238 0.10462,7.01642 0.01307,1.66796 0.02811,2.24727 0.06146,2.50554 0.08696,0.65123 0.08434,1.94388 0.06146,3.75177 0,0.17392 0.01242,0.78657 0.02812,1.36131 0.04576,1.90269 0.06342,11.66723 0.0255,13.54442 -0.02027,0.94023 -0.051,5.97158 -0.06147,6.72742 -0.01242,0.77416 -0.0078,1.14946 -0.06865,1.51954 -0.03335,0.18438 -0.10004,0.41127 -0.25565,0.61069 -0.153,0.19943 -0.3217,0.29358 -0.40081,0.33935 -0.13535,0.08173 -0.3655,0.15365 -0.54139,0.17654 -0.17392,0.02027 -0.34,0.02811 -0.60023,0.03334 z" />
    </clipPath>
    <clipPath
       id="clipPath3121-3"
       clipPathUnits="userSpaceOnUse">
      <path
         inkscape:connector-curvature="0"
         id="path3123-9"
         d="M 0,0 170,0 170,170 0,170 0,0 z" />
    </clipPath>
    <clipPath
       id="clipPath3125-6"
       clipPathUnits="userSpaceOnUse">
      <path
         inkscape:connector-curvature="0"
         id="path3127-9"
         clip-rule="evenodd"
         d="m 63.19249,87.25307 c -2.36561,-0.63096 -4.84565,-0.83496 -7.27142,-0.64077 -2.36823,0.18896 -4.82473,0.5695 -6.94711,1.74969 -4.72012,2.62781 -9.32254,6.39527 -12.05039,11.41158 -1.15469,2.12953 -1.24623,4.80383 -1.46854,7.27663 -0.18634,2.0557 -0.24257,4.1657 0.11246,6.1933 0.5002,2.8605 1.36131,5.7368 2.7965,8.1783 1.14685,1.9491 2.771,3.5628 4.49258,4.896 2.29108,1.7725 4.85808,3.2489 7.57546,3.9721 2.53627,0.6767 5.22554,0.5132 7.82327,0.2576 2.12239,-0.2066 4.26504,-0.6029 6.25208,-1.4509 3.59615,-1.5398 7.19231,-3.5347 9.98161,-6.4875 2.03804,-2.1576 3.69097,-4.9038 4.60766,-7.8585 1.0625,-3.4151 1.17758,-7.2002 0.85327,-10.7937 -0.20989,-2.3264 -0.75127,-4.69202 -1.79089,-6.72745 -1.00627,-1.972 -2.4748,-3.70077 -4.148,-4.99865 -3.19992,-2.482 -7.02361,-3.96362 -10.81854,-4.97773 z" />
    </clipPath>
    <clipPath
       id="clipPath3129-7"
       clipPathUnits="userSpaceOnUse">
      <path
         inkscape:connector-curvature="0"
         id="path3131-8"
         d="M 0,0 170,0 170,170 0,170 0,0 z" />
    </clipPath>
    <clipPath
       id="clipPath3133-1"
       clipPathUnits="userSpaceOnUse">
      <path
         inkscape:connector-curvature="0"
         id="path3135-3"
         clip-rule="evenodd"
         d="m 87.52903,84.99963 c -0.58258,-0.0052 -1.16189,-0.06931 -1.72681,-0.22754 -1.20766,-0.33934 -2.34927,-1.03438 -3.366,-1.86411 -0.76631,-0.62573 -1.48685,-1.38223 -1.9975,-2.29631 -0.63619,-1.14685 -1.01673,-2.49508 -1.23839,-3.83873 -0.15888,-0.95004 -0.13338,-1.9465 -0.05165,-2.91158 0.03073,-0.34261 0.05885,-0.68719 0.08958,-1.037 -0.23997,-0.03335 -0.4747,-0.08435 -0.7127,-0.14842 -1.18477,-0.31385 -2.31134,-0.9605 -3.30977,-1.734 -0.75126,-0.58258 -1.4535,-1.28219 -1.95369,-2.13546 -0.62834,-1.06512 -1.00888,-2.3192 -1.22596,-3.56804 -0.15365,-0.88335 -0.13077,-1.80593 -0.04904,-2.70235 0.09743,-1.07754 0.13535,-2.24988 0.64143,-3.17965 1.19,-2.18908 3.1973,-3.8335 5.25626,-4.98035 0.92716,-0.51588 1.99947,-0.67934 3.03385,-0.76108 1.05792,-0.08696 2.14069,0 3.17246,0.27593 1.65489,0.442 2.97043,1.93342 4.72012,2.17338 0.53615,0.07389 1.64965,-0.99123 2.22177,-1.32273 0.92715,-0.51654 2.00273,-0.68 3.0345,-0.76173 1.05988,-0.08631 2.14004,0 3.1718,0.27592 1.65554,0.442 3.31831,1.09062 4.71231,2.17404 0.731,0.56427 1.3796,1.32012 1.819,2.18123 0.4518,0.88858 0.6865,1.92035 0.7787,2.93708 0.1406,1.56792 0.0896,3.22281 -0.3727,4.71227 -0.4008,1.28938 -1.124,2.48985 -2.0125,3.43269 -0.9403,0.99581 -2.0871,1.73662 -3.28496,2.33423 0.01569,0.13012 0.02812,0.25304 0.04119,0.38316 0.14254,1.68561 0.08893,3.46603 -0.38315,5.06992 -0.40604,1.38681 -1.139,2.67685 -2.04327,3.69031 -1.23904,1.3868 -2.84031,2.31919 -4.43635,3.04234 -0.884,0.3982 -1.83403,0.58193 -2.77623,0.68196 -0.57734,0.05885 -1.16777,0.10985 -1.7523,0.10462 z" />
    </clipPath>
    <clipPath
       id="clipPath3137-1"
       clipPathUnits="userSpaceOnUse">
      <path
         inkscape:connector-curvature="0"
         id="path3139-2"
         d="M 0,0 170,0 170,170 0,170 0,0 z" />
    </clipPath>
    <clipPath
       id="clipPath3141-8"
       clipPathUnits="userSpaceOnUse">
      <path
         inkscape:connector-curvature="0"
         id="path3143-5"
         clip-rule="evenodd"
         d="m -3.269231,39.23077 179.807731,0 0,-60.15385 -179.807731,0 0,60.15385 z" />
    </clipPath>
    <clipPath
       id="clipPath3145-2"
       clipPathUnits="userSpaceOnUse">
      <path
         inkscape:connector-curvature="0"
         id="path3147-6"
         d="M 0,0 170,0 170,170 0,170 0,0 z" />
    </clipPath>
    <clipPath
       id="clipPath3149-2"
       clipPathUnits="userSpaceOnUse">
      <path
         inkscape:connector-curvature="0"
         id="path3151-6"
         clip-rule="evenodd"
         d="m 105.1365,42.77178 c 10.4615,0.39362 -7.07004,-0.69961 3.3889,-0.0046 0.3884,5.3962 3.1672,9.31208 10.674,9.53439 5.9226,0.17588 11.9889,-3.46081 12.1596,-9.48339 1.392,0.051 3.9872,0.01766 3.9872,0.01766 l 0,-5.03658 -104.61543,0 0,5.03658 c 0,0 5.85911,-0.11769 8.77854,0.03073 5.99184,0.38838 11.77184,-0.41912 17.76892,0.15823 4.90385,0.13273 9.78415,-0.21708 14.66512,-0.22492 9.21007,0.29423 18.47115,-0.31385 27.67861,0.21707 1.83144,-0.153 3.67074,-0.44919 5.51454,-0.24519 z" />
    </clipPath>
    <clipPath
       id="clipPath3153-2"
       clipPathUnits="userSpaceOnUse">
      <path
         inkscape:connector-curvature="0"
         id="path3155-6"
         d="M 0,0 170,0 170,170 0,170 0,0 z" />
    </clipPath>
    <clipPath
       id="clipPath3157-7"
       clipPathUnits="userSpaceOnUse">
      <path
         inkscape:connector-curvature="0"
         id="path3159-5"
         clip-rule="evenodd"
         d="m 58.61142,87.61185 c -0.7055,0.01766 -1.50711,-0.03073 -2.08707,-0.14842 -0.43416,-0.08696 -0.97554,-0.442 -1.15927,-0.88858 -0.08435,-0.20204 -0.06408,-0.23538 -0.07193,-0.289 -0.01242,-0.23473 -0.01503,-0.34719 -0.01765,-0.47207 0,-0.24781 0.0078,-0.56493 0.01765,-0.91473 0.02093,-0.70224 0.05623,-1.53458 0.10527,-2.17339 0.051,-0.63358 0.05362,-4.48735 0.01766,-5.34061 -0.03073,-0.76108 -0.03073,-1.53981 0,-2.69712 0.01242,-0.43938 0.02288,-0.84281 0.0255,-1.13377 0.0026,-0.14581 0,-0.2635 0,-0.34 -0.01046,-0.17065 -0.0079,-0.19877 -0.0079,-0.22688 0,-0.06147 0.0052,-0.12554 0.0079,-0.20204 0.0078,-0.15562 0.02027,-0.36027 0.03596,-0.57473 0.04315,-0.58454 0.05361,-0.99843 0.0255,-2.31396 -0.0078,-0.44724 -0.02289,-0.85327 -0.03335,-1.15208 -0.0052,-0.14777 -0.01569,-0.27069 -0.01765,-0.34981 -0.01569,-0.153 -0.01569,-0.18635 -0.01831,-0.22492 -0.0072,-0.07912 -0.02027,-0.17589 -0.0255,-0.28835 -0.01242,-0.22492 -0.02288,-0.51588 -0.03531,-0.83038 -0.02615,-0.62573 -0.05427,-1.3175 -0.05165,-1.70066 0,-0.32954 0.0255,-1.00365 0.05165,-1.56334 0.02289,-0.52112 0.04054,-1.55027 0.04316,-2.24204 -0.05362,-1.26192 -0.0765,-2.78146 -0.0412,-3.66285 0.04643,-1.0115 -0.04315,-2.16815 -0.09415,-3.25157 -0.07388,-1.52477 -0.16869,-2.85535 -0.30404,-4.5717 -0.23996,-3.0188 -0.35504,-10.60211 -0.76369,-10.73223 -0.442,-0.14057 -0.61527,-0.0255 -1.13638,-0.06865 -0.289,-0.03073 -1.9975,-0.09481 -3.5785,-0.13339 -0.7892,-0.01765 -1.57316,-0.0353 -2.18908,-0.04315 -0.61789,-0.0052 -1.14881,0.01046 -1.13377,0.01046 -0.27069,0.02289 -0.61004,0.02027 -1.22335,0.0255 -0.60807,0.0052 -1.39204,0.0098 -2.20673,0.0072 -1.63461,0 -4.70965,0.01047 -6.83465,0.03597 -2.85077,0.03334 -5.17977,0.08696 -5.17977,0.08696 l 0,-5.23077 104.61543,0 0,5.13138 c 0,0 -6.122,-0.31188 -10.3034,-0.26807 l -2.4774,0.0255 c 0.3551,0.31646 0.7585,0.96507 1.1776,1.47115 0.391,0.47208 1.0292,1.088 1.5705,1.52673 0.2681,0.21773 0.6617,0.56754 0.9324,0.82777 0.2452,0.23538 0.6872,0.66169 0.986,0.94285 0.3086,0.29096 0.5336,0.51065 0.7179,0.76826 0.1812,0.25827 0.3139,0.61593 0.3139,0.92454 0,0.65123 -0.3322,1.18281 -0.9095,1.47639 -0.4237,0.21707 -1.0671,0.16607 -1.4659,-0.06146 -0.3191,-0.18635 -0.4342,-0.3217 -0.7225,-0.58454 -0.289,-0.26285 -0.6388,-0.60023 -1.022,-0.97816 -0.7689,-0.75388 -1.6575,-1.6575 -2.3395,-2.40092 -0.5008,-0.544 -0.7153,-0.76369 -0.9323,-0.99385 -0.003,0.2452 -0.005,0.50347 0.0333,0.77677 0.0589,0.4165 0.0817,1.14423 0.1046,2.19889 0.0334,1.428 0.0563,1.76473 0.1406,2.45192 0.087,0.69766 0.1353,0.97096 0.036,1.33581 -0.1125,0.40865 -0.3963,0.8075 -0.8481,0.99646 -0.2936,0.12227 -0.5008,0.11704 -0.7231,0.11181 -0.2243,-0.0046 -0.4316,-0.02027 -0.7075,-0.14777 -0.3648,-0.16869 -0.784,-0.65908 -0.8807,-1.12658 -0.0974,-0.4675 -0.0719,-0.93434 -0.0281,-1.66796 0.0588,-0.95723 0.0608,-1.23315 0,-2.93969 -0.0255,-0.77089 -0.008,-1.01869 0.0176,-1.32535 -0.3982,0.30666 -0.8552,0.66169 -1.0546,0.84543 -0.3708,0.34196 -0.8638,0.76107 -1.2672,1.08276 -0.1706,0.13797 -0.4413,0.32693 -0.733,0.52374 -0.2785,0.18896 -0.6178,0.4165 -0.748,0.50542 -0.391,0.26611 -0.8146,0.48058 -1.3286,0.46292 -0.5132,-0.01831 -0.95,-0.28638 -1.2815,-0.59304 -0.2459,-0.22688 -0.4727,-0.48515 -0.5774,-0.88073 -0.1026,-0.39884 0.0229,-0.85327 0.2014,-1.13704 0.2223,-0.3498 0.3832,-0.43677 0.6539,-0.65384 0.2733,-0.21708 0.6185,-0.46227 1.0141,-0.73296 0.4139,-0.28312 0.6872,-0.50804 1.3946,-1.14162 0.3244,-0.29096 0.7919,-0.66169 1.1521,-0.90885 0.2858,-0.19419 0.7049,-0.50607 0.8298,-0.61069 0.202,-0.17131 0.5106,-0.37007 0.5106,-0.37007 0,0 -0.61,0.09676 -0.85,0.1118 -1.0906,-0.0046 -1.3665,-0.16084 -2.2708,-0.13011 -7.3839,0.24257 -13.80727,0.29881 -22.52958,0.36027 0,0 0.03596,0.51588 0.051,1.0213 0.01766,0.5852 0.051,1.33581 0.07127,1.5967 0.02812,0.37792 0.03596,0.83234 0.01831,1.21288 -0.03073,0.61069 -0.0255,2.15312 0.0098,3.12146 0.01569,0.45181 0.05165,1.17496 0.07454,1.581 0.02027,0.35504 0.05623,0.81993 0.06865,0.9167 0.23538,1.78042 0.20923,6.97 -0.03335,8.82169 -0.02288,0.17654 -0.04577,0.34523 -0.07127,0.49038 -0.02288,0.14581 -0.0255,0.19158 -0.08696,0.39362 -0.10984,0.35504 -0.34196,0.71007 -0.67934,0.93238 -0.33935,0.22166 -0.7225,0.29881 -1.09323,0.29619 -0.45966,0 -1.54243,-0.12553 -1.90008,-0.55707 -0.35765,-0.43154 -0.40342,-0.91931 -0.41127,-1.41493 0.0079,-0.54138 0.01308,-1.03961 0.0255,-1.49142 0.051,-1.59669 -0.04838,-3.96884 -0.10462,-5.18238 -0.03596,-0.65123 -0.04576,-1.30508 -0.08696,-1.9537 -0.15038,-2.25053 -0.17588,-4.56188 -0.19942,-6.52342 0.0026,-1.09323 -0.06865,-2.29565 -0.11442,-3.32284 -0.53943,0.0255 -0.61331,0.0693 -1.16973,0.08696 -7.09293,-0.08435 -2.32443,0.0078 -8.74781,0.01307 -0.92192,0.0046 -1.73923,0.0327 -1.91839,0.05362 -1.28219,0.14515 -2.8985,0.21969 -4.75803,0.22688 -3.94597,0.0157 -6.6967,-0.03073 -8.06324,-0.14777 -1.09323,-0.0948 -1.09846,0.04054 -1.37438,0.04839 -0.44919,2.38785 -0.36485,4.59719 -0.34458,6.23704 0.03596,2.95277 -0.0255,3.49415 -0.03596,4.34677 -0.03334,2.85077 0.09742,5.52238 0.10462,7.01642 0.01307,1.66796 0.02811,2.24727 0.06146,2.50554 0.08696,0.65123 0.08434,1.94388 0.06146,3.75177 0,0.17392 0.01242,0.78657 0.02812,1.36131 0.04576,1.90269 0.06342,11.66723 0.0255,13.54442 -0.02027,0.94023 -0.051,5.97158 -0.06147,6.72742 -0.01242,0.77416 -0.0078,1.14946 -0.06865,1.51954 -0.03335,0.18438 -0.10004,0.41127 -0.25565,0.61069 -0.153,0.19943 -0.3217,0.29358 -0.40081,0.33935 -0.13535,0.08173 -0.3655,0.15365 -0.54139,0.17654 -0.17392,0.02027 -0.34,0.02811 -0.60023,0.03334 z" />
    </clipPath>
    <clipPath
       id="clipPath3161-4"
       clipPathUnits="userSpaceOnUse">
      <path
         inkscape:connector-curvature="0"
         id="path3163-6"
         d="M 0,0 170,0 170,170 0,170 0,0 z" />
    </clipPath>
    <clipPath
       id="clipPath3165-7"
       clipPathUnits="userSpaceOnUse">
      <path
         inkscape:connector-curvature="0"
         id="path3167-7"
         clip-rule="evenodd"
         d="m 63.19249,87.25307 c -2.36561,-0.63096 -4.84565,-0.83496 -7.27142,-0.64077 -2.36823,0.18896 -4.82473,0.5695 -6.94711,1.74969 -4.72012,2.62781 -9.32254,6.39527 -12.05039,11.41158 -1.15469,2.12953 -1.24623,4.80383 -1.46854,7.27663 -0.18634,2.0557 -0.24257,4.1657 0.11246,6.1933 0.5002,2.8605 1.36131,5.7368 2.7965,8.1783 1.14685,1.9491 2.771,3.5628 4.49258,4.896 2.29108,1.7725 4.85808,3.2489 7.57546,3.9721 2.53627,0.6767 5.22554,0.5132 7.82327,0.2576 2.12239,-0.2066 4.26504,-0.6029 6.25208,-1.4509 3.59615,-1.5398 7.19231,-3.5347 9.98161,-6.4875 2.03804,-2.1576 3.69097,-4.9038 4.60766,-7.8585 1.0625,-3.4151 1.17758,-7.2002 0.85327,-10.7937 -0.20989,-2.3264 -0.75127,-4.69202 -1.79089,-6.72745 -1.00627,-1.972 -2.4748,-3.70077 -4.148,-4.99865 -3.19992,-2.482 -7.02361,-3.96362 -10.81854,-4.97773 z" />
    </clipPath>
    <clipPath
       id="clipPath3169-1"
       clipPathUnits="userSpaceOnUse">
      <path
         inkscape:connector-curvature="0"
         id="path3171-1"
         d="M 0,0 170,0 170,170 0,170 0,0 z" />
    </clipPath>
    <clipPath
       id="clipPath3173-7"
       clipPathUnits="userSpaceOnUse">
      <path
         inkscape:connector-curvature="0"
         id="path3175-6"
         clip-rule="evenodd"
         d="m 87.52903,84.99963 c -0.58258,-0.0052 -1.16189,-0.06931 -1.72681,-0.22754 -1.20766,-0.33934 -2.34927,-1.03438 -3.366,-1.86411 -0.76631,-0.62573 -1.48685,-1.38223 -1.9975,-2.29631 -0.63619,-1.14685 -1.01673,-2.49508 -1.23839,-3.83873 -0.15888,-0.95004 -0.13338,-1.9465 -0.05165,-2.91158 0.03073,-0.34261 0.05885,-0.68719 0.08958,-1.037 -0.23997,-0.03335 -0.4747,-0.08435 -0.7127,-0.14842 -1.18477,-0.31385 -2.31134,-0.9605 -3.30977,-1.734 -0.75126,-0.58258 -1.4535,-1.28219 -1.95369,-2.13546 -0.62834,-1.06512 -1.00888,-2.3192 -1.22596,-3.56804 -0.15365,-0.88335 -0.13077,-1.80593 -0.04904,-2.70235 0.09743,-1.07754 0.13535,-2.24988 0.64143,-3.17965 1.19,-2.18908 3.1973,-3.8335 5.25626,-4.98035 0.92716,-0.51588 1.99947,-0.67934 3.03385,-0.76108 1.05792,-0.08696 2.14069,0 3.17246,0.27593 1.65489,0.442 2.97043,1.93342 4.72012,2.17338 0.53615,0.07389 1.64965,-0.99123 2.22177,-1.32273 0.92715,-0.51654 2.00273,-0.68 3.0345,-0.76173 1.05988,-0.08631 2.14004,0 3.1718,0.27592 1.65554,0.442 3.31831,1.09062 4.71231,2.17404 0.731,0.56427 1.3796,1.32012 1.819,2.18123 0.4518,0.88858 0.6865,1.92035 0.7787,2.93708 0.1406,1.56792 0.0896,3.22281 -0.3727,4.71227 -0.4008,1.28938 -1.124,2.48985 -2.0125,3.43269 -0.9403,0.99581 -2.0871,1.73662 -3.28496,2.33423 0.01569,0.13012 0.02812,0.25304 0.04119,0.38316 0.14254,1.68561 0.08893,3.46603 -0.38315,5.06992 -0.40604,1.38681 -1.139,2.67685 -2.04327,3.69031 -1.23904,1.3868 -2.84031,2.31919 -4.43635,3.04234 -0.884,0.3982 -1.83403,0.58193 -2.77623,0.68196 -0.57734,0.05885 -1.16777,0.10985 -1.7523,0.10462 z" />
    </clipPath>
    <clipPath
       id="clipPath3177-7"
       clipPathUnits="userSpaceOnUse">
      <path
         inkscape:connector-curvature="0"
         id="path3179-9"
         d="M 0,0 170,0 170,170 0,170 0,0 z" />
    </clipPath>
  </defs>
  <sodipodi:namedview
     id="base"
     pagecolor="#ffffff"
     bordercolor="#666666"
     borderopacity="1.0"
     inkscape:pageopacity="0.0"
     inkscape:pageshadow="2"
     inkscape:zoom="1"
     inkscape:cx="395.68866"
     inkscape:cy="7.4258195"
     inkscape:document-units="px"
     inkscape:current-layer="layer1"
     showgrid="false"
     inkscape:window-width="1440"
     inkscape:window-height="855"
     inkscape:window-x="249"
     inkscape:window-y="41"
     inkscape:window-maximized="0"
     showguides="true"
     inkscape:guide-bbox="true"
     inkscape:snap-global="true"
     fit-margin-top="0"
     fit-margin-left="0"
     fit-margin-right="0"
     fit-margin-bottom="0">
    <inkscape:grid
       type="xygrid"
       id="grid3723"
       empspacing="5"
       visible="true"
       enabled="true"
       snapvisiblegridlinesonly="true" />
  </sodipodi:namedview>
  <metadata
     id="metadata7">
    <rdf:RDF>
      <cc:Work
         rdf:about="">
        <dc:format>image/svg+xml</dc:format>
        <dc:type
           rdf:resource="http://purl.org/dc/dcmitype/StillImage" />
        <dc:title></dc:title>
      </cc:Work>
    </rdf:RDF>
  </metadata>
  <g
     inkscape:label="Layer 1"
     inkscape:groupmode="layer"
     id="layer1"
     style="display:inline"
     transform="translate(-101.4726,-106.2401)">
    <rect
       style="color:#000000;fill:#d2e0af;fill-opacity:1;fill-rule:evenodd;stroke:none;stroke-width:40;marker:none;visibility:visible;display:inline;overflow:visible;enable-background:accumulate"
       id="rect4676"
       width="200"
       height="151.75"
       x="101.4726"
       y="106.2401" />
    <path
       style="color:#000000;fill:#6e9c2a;fill-opacity:1;fill-rule:evenodd;stroke:none;stroke-width:40;marker:none;visibility:visible;display:inline;overflow:visible;enable-background:accumulate"
       d="m 127.8855,261.60029 c 0,0 -8.10237,-0.11029 -12.15383,-0.11737 -4.78257,-0.008 -14.34746,0.0884 -14.34746,0.0884 l 0.0884,-6.70538 25.90445,-0.002 c 0,0 8.3466,0.15419 12.2547,-0.0438 8.01551,-0.51973 15.74633,0.55918 23.77074,-0.21305 6.5597,-0.17722 13.08992,0.2919 19.62307,0.3028 12.32154,-0.39407 24.71012,0.42075 37.0297,-0.28975 2.45177,0.20355 4.91128,0.5998 7.37606,0.32785 13.99712,-0.52851 -9.45716,0.93377 4.53692,0.007 0.51787,-7.22166 4.2358,-12.4616 14.27888,-12.75902 7.92489,-0.2347 16.03939,4.63252 16.26808,12.69068 1.86313,-0.071 5.53245,-0.0224 5.53245,-0.0224 l 33.42467,0.002 0,6.70538 -33.44639,0.0365 z"
       id="rect4651"
       inkscape:connector-curvature="0"
       sodipodi:nodetypes="cscccccccccscccccc" />
    <path
       inkscape:connector-curvature="0"
       style="font-size:medium;font-style:normal;font-variant:normal;font-weight:normal;font-stretch:normal;text-indent:0;text-align:start;text-decoration:none;line-height:normal;letter-spacing:normal;word-spacing:normal;text-transform:none;direction:ltr;block-progression:tb;writing-mode:lr-tb;text-anchor:start;baseline-shift:baseline;color:#000000;fill:#555632;fill-opacity:1;fill-rule:nonzero;stroke:none;stroke-width:6.19999981;marker:none;visibility:visible;display:inline;overflow:visible;enable-background:accumulate;font-family:Sans;-inkscape-font-specification:Sans"
       d="m 165.18558,195.18393 c -0.94221,-0.0224 -2.01646,0.0407 -2.79049,0.19849 -0.58238,0.11848 -1.30422,0.59054 -1.55287,1.19092 -0.1112,0.2684 -0.0853,0.314 -0.0934,0.3853 -0.008,0.0713 -0.009,0.12303 -0.0117,0.18681 -0.006,0.12755 -0.0112,0.27735 -0.0117,0.44368 -7.5e-4,0.33265 0.01,0.75607 0.0233,1.22595 0.0276,0.93975 0.0747,2.05331 0.14011,2.90725 0.0662,0.84789 0.0699,6.0048 0.0233,7.14554 -0.0409,1.01604 -0.0399,2.06136 0,3.60779 0.0152,0.5881 0.0298,1.12712 0.035,1.51784 0.003,0.19537 3.2e-4,0.3527 0,0.45536 -9e-5,0.0285 2.6e-4,0.0402 0,0.0584 -3.8e-4,0.006 3.3e-4,0.0192 0,0.0234 -10e-5,0.005 7e-5,0.021 0,0.0233 -0.002,0.0237 -0.011,0.0538 -0.0117,0.07 -0.002,0.0538 -3.8e-4,0.0884 0,0.12843 0.001,0.0801 0.007,0.16491 0.0117,0.26855 0.01,0.20726 0.0251,0.48223 0.0467,0.77059 0.0591,0.7803 0.0715,1.33537 0.035,3.09407 -0.0122,0.59814 -0.0329,1.14237 -0.0467,1.54119 -0.007,0.19941 -0.0178,0.36208 -0.0233,0.46703 -0.001,0.0233 0.001,0.0298 0,0.0467 -0.002,0.014 0.001,0.0396 0,0.0467 -1.5e-4,0.002 1e-4,0.0105 0,0.0117 -0.002,0.0147 -0.0101,0.0343 -0.0117,0.0467 -0.007,0.0549 -0.007,0.0999 -0.0117,0.15178 -0.009,0.10384 -0.0263,0.23566 -0.035,0.3853 -0.0174,0.29929 -0.0294,0.68989 -0.0467,1.10919 -0.0346,0.83862 -0.0703,1.76251 -0.0701,2.27677 0,0.44229 0.0365,1.34448 0.0701,2.08995 0.0314,0.69697 0.0562,2.07539 0.0584,3.00066 -0.0721,1.68794 -0.10259,3.72094 -0.0562,4.9016 0.0613,1.35134 -0.0568,2.90051 -0.12584,4.34922 -0.0973,2.04134 -0.22414,3.82155 -0.4061,6.11752 -0.32,4.03784 -0.47645,14.18253 -1.02325,14.35801 -0.58824,0.18878 -0.82164,0.0343 -1.51782,0.0934 -0.38614,0.0398 -2.67212,0.12375 -4.78704,0.17514 -1.05747,0.0257 -2.10544,0.0496 -2.93061,0.0584 -0.82516,0.009 -1.53696,-0.0135 -1.51784,-0.0117 -0.36223,-0.033 -0.81618,-0.0273 -1.6346,-0.035 -0.8152,-0.008 -1.86479,-0.0135 -2.95396,-0.0117 -0.003,0 -0.009,0 -0.0117,0 -2.17393,-5e-5 -6.28854,-0.0125 -9.13041,-0.0467 -3.81367,-0.0456 -33.34443,-0.11558 -33.34443,-0.11558 l 0,46.34817 200,0 0,-46.34817 c 0,0 -41.81133,0.5509 -47.40634,0.49183 l -3.3159,-0.035 c 0.47653,-0.42157 1.01404,-1.29004 1.57525,-1.96694 0.52352,-0.63147 1.37746,-1.45547 2.10163,-2.04325 0.36101,-0.29294 0.88472,-0.76005 1.2493,-1.10919 0.32634,-0.31252 0.91901,-0.88499 1.31936,-1.26098 0.41227,-0.38717 0.7136,-0.68182 0.95741,-1.02746 0.2438,-0.34565 0.42032,-0.82212 0.42032,-1.23763 0,-0.86967 -0.44362,-1.58017 -1.21427,-1.97319 -0.56967,-0.29067 -1.43043,-0.22333 -1.96152,0.0817 -0.42916,0.24698 -0.58343,0.42969 -0.96909,0.78227 -0.38565,0.35258 -0.85201,0.80382 -1.36606,1.30768 -1.0281,1.00772 -2.21758,2.21735 -3.12909,3.21082 -0.67059,0.73086 -0.95735,1.02435 -1.2493,1.33103 -0.003,-0.32881 -0.004,-0.67219 0.0467,-1.03914 0.0766,-0.55811 0.1079,-1.53035 0.14011,-2.94228 0.0439,-1.90923 0.0738,-2.36216 0.18681,-3.28087 0.11476,-0.93311 0.18185,-1.29645 0.0467,-1.78639 -0.15041,-0.54539 -0.53,-1.07931 -1.13255,-1.33103 -0.39224,-0.16391 -0.67143,-0.1597 -0.96908,-0.15178 -0.29765,0.008 -0.57582,0.0286 -0.94573,0.19848 -0.48834,0.22428 -1.0499,0.8812 -1.17925,1.50617 -0.12935,0.62497 -0.0948,1.25112 -0.035,2.23006 0.0784,1.28396 0.0798,1.65362 0,3.93472 -0.0362,1.03101 -0.0115,1.36257 0.0233,1.77471 -0.53449,-0.40967 -1.14557,-0.88566 -1.41276,-1.13255 -0.49336,-0.45594 -1.15548,-1.01916 -1.69298,-1.44779 -0.23108,-0.18424 -0.59346,-0.43706 -0.98076,-0.70054 -0.37281,-0.25362 -0.82714,-0.55675 -1.00411,-0.67719 -0.52085,-0.35431 -1.08863,-0.64128 -1.77471,-0.61881 -0.68608,0.0225 -1.27238,0.3827 -1.71633,0.79395 -0.32765,0.30335 -0.63121,0.64727 -0.77059,1.17924 -0.13938,0.53197 0.0282,1.13873 0.26854,1.51785 0.29773,0.46937 0.5117,0.58414 0.87568,0.87567 0.36398,0.29154 0.82546,0.6187 1.35438,0.98076 0.55594,0.38065 0.92,0.68145 1.86811,1.52952 0.43397,0.38821 1.0586,0.88379 1.5412,1.21428 0.38206,0.26171 0.94282,0.67637 1.10919,0.8173 0.26876,0.22773 0.6825,0.49578 0.6825,0.49578 0,0 -0.81542,-0.12979 -1.13785,-0.15178 -1.45702,0.008 -1.82605,0.21496 -3.03569,0.17513 -9.87883,-0.32523 -18.47326,-0.40118 -30.14387,-0.48171 0,0 0.0489,-0.68985 0.0701,-1.36606 0.0242,-0.7828 0.066,-1.78921 0.0934,-2.13666 0.0397,-0.50427 0.0483,-1.11375 0.0233,-1.62292 -0.0403,-0.81629 -0.0335,-2.88126 0.0144,-4.17461 0.0224,-0.60617 0.0697,-1.57302 0.0998,-2.117 0.0264,-0.47269 0.0765,-1.09654 0.0934,-1.22595 0.31371,-2.38316 0.27953,-9.32538 -0.0467,-11.80415 -0.0308,-0.23509 -0.0613,-0.45901 -0.0934,-0.65384 -0.0321,-0.19483 -0.0337,-0.25802 -0.11676,-0.52541 -0.14806,-0.47612 -0.45862,-0.95234 -0.91071,-1.2493 -0.45209,-0.29696 -0.96545,-0.39832 -1.45946,-0.39697 -0.6164,0 -2.0663,0.16979 -2.54459,0.74724 -0.47829,0.57745 -0.53987,1.22731 -0.54876,1.89147 0.008,0.72623 0.0167,1.39077 0.035,1.99653 0.066,2.1351 -0.0677,5.31111 -0.1422,6.93218 -0.0487,0.87154 -0.0607,1.7459 -0.11675,2.61534 -0.20064,3.00994 -0.23403,6.1022 -0.26644,8.72495 0.004,1.46282 -0.0904,3.07409 -0.15178,4.44845 -0.72176,-0.0352 -0.82012,-0.0922 -1.56526,-0.11674 -9.49072,0.1119 -3.11001,-0.0121 -11.70355,-0.019 -1.233,-0.005 -2.32782,-0.0427 -2.56865,-0.0701 -1.71521,-0.19506 -3.878,-0.29404 -6.36327,-0.30357 -5.28111,-0.0202 -8.96015,0.0409 -10.78836,0.19849 -1.46463,0.12641 -1.4714,-0.055 -1.84061,-0.0658 -0.59863,-3.19647 -0.48616,-6.15085 -0.45948,-8.34618 0.0471,-3.94746 -0.0334,-4.6745 -0.0467,-5.81451 -0.0444,-3.81294 0.12697,-7.38794 0.1401,-9.38725 0.0149,-2.23251 0.036,-3.0053 0.0817,-3.35093 1.6e-4,-0.001 -1.6e-4,-0.0105 0,-0.0117 0.11474,-0.85954 0.11233,-2.5881 0.0817,-5.00888 -1.4e-4,-0.0113 1.5e-4,-0.012 0,-0.0233 2.7e-4,-0.20817 0.0161,-1.02924 0.035,-1.79806 0.0621,-2.54732 0.0887,-15.60972 0.035,-18.12071 -0.0268,-1.25812 -0.0667,-7.98846 -0.0817,-9.00197 -0.015,-1.0331 -0.01,-1.53589 -0.0934,-2.03158 -0.0419,-0.24784 -0.13331,-0.5519 -0.33859,-0.8173 -0.20528,-0.2654 -0.43312,-0.39432 -0.53708,-0.45535 -0.18229,-0.10698 -0.48954,-0.20405 -0.7239,-0.23352 -0.23436,-0.0295 -0.45471,-0.0385 -0.80562,-0.0467 z"
       id="path3903"
       sodipodi:nodetypes="ccccccsccccccccccsccsccccccccccccassccscccccccccscccscssccsscccccccccscccccscccscsccccccsccccscccccscscccccccccscccscccccccccscccc" />
    <path
       style="color:#000000;fill:#6e9c2a;fill-opacity:1;fill-rule:nonzero;stroke:none;marker:none;visibility:visible;display:inline;overflow:visible;enable-background:accumulate"
       d="m 171.6381,196.077 c -3.16264,0.84445 -6.48358,1.1166 -9.72804,0.85696 -3.16893,-0.25362 -6.45502,-0.76072 -9.29509,-2.34133 -6.31477,-3.51445 -12.47336,-8.55382 -16.12055,-15.26817 -1.547,-2.84798 -1.66812,-6.42562 -1.96774,-9.73442 -0.24888,-2.74834 -0.3218,-5.57317 0.15204,-8.28484 0.66916,-3.82955 1.81972,-7.67505 3.7416,-10.94118 1.53536,-2.60925 3.70619,-4.7691 6.00941,-6.55175 3.06496,-2.37221 6.50191,-4.34766 10.13543,-5.3154 3.3948,-0.90416 6.99141,-0.68612 10.46898,-0.34419 2.83692,0.27893 5.70553,0.80555 8.36285,1.94275 4.81357,2.05998 9.62291,4.72742 13.35588,8.67947 2.72602,2.886 4.93595,6.56088 6.16435,10.51351 1.41953,4.56762 1.57357,9.63207 1.13986,14.43971 -0.28081,3.11276 -1.00348,6.27968 -2.39346,9.00122 -1.3468,2.63699 -3.31217,4.95264 -5.55127,6.68836 -4.28181,3.31921 -9.39624,5.30344 -14.47425,6.6593 z"
       id="path3976"
       inkscape:connector-curvature="0"
       sodipodi:nodetypes="aaaaaaaaaaaaaaaaa" />
    <path
       style="color:#000000;fill:#6e9c2a;fill-opacity:1;stroke:none;stroke-width:0.48244843;marker:none;visibility:visible;display:inline;overflow:visible;enable-background:accumulate"
       d="m 204.58041,198.83467 c -0.78115,0.007 -1.55756,0.0917 -2.3117,0.30389 -1.61434,0.45424 -3.14228,1.3827 -4.50401,2.49619 -1.0233,0.83676 -1.98771,1.84666 -2.66985,3.07142 -0.85387,1.53308 -1.36321,3.33594 -1.66052,5.13349 -0.21051,1.27282 -0.17569,2.60619 -0.0651,3.89624 0.0393,0.45893 0.0755,0.92031 0.11939,1.38919 -0.32371,0.0439 -0.63805,0.11088 -0.95507,0.19535 -1.58518,0.42241 -3.09091,1.28712 -4.42804,2.32255 -1.00481,0.7781 -1.94577,1.71545 -2.61558,2.85435 -0.83845,1.42562 -1.34688,3.1038 -1.63881,4.77534 -0.20672,1.1836 -0.17369,2.41445 -0.0651,3.61406 0.13071,1.44424 0.18249,3.0113 0.85738,4.2544 1.59114,2.93071 4.27788,5.12976 7.03277,6.66376 1.23902,0.68992 2.67656,0.90949 4.05905,1.02019 1.41543,0.11334 2.86379,-3.5e-4 4.24353,-0.36901 2.21534,-0.59181 3.97436,-2.58782 6.31647,-2.90861 0.71728,-0.0982 2.20529,1.32595 2.97373,1.76905 1.23902,0.68991 2.67656,0.90949 4.05904,1.02018 1.41543,0.11334 2.86379,-3.5e-4 4.24354,-0.369 2.21535,-0.59181 4.43762,-1.45983 6.30562,-2.90861 0.97683,-0.75762 1.84352,-1.76846 2.43108,-2.91947 0.6064,-1.18791 0.91939,-2.57013 1.04189,-3.9288 0.18921,-2.09847 0.12005,-4.31192 -0.49924,-6.30562 -0.5359,-1.72527 -1.50229,-3.33114 -2.69155,-4.59084 -1.25782,-1.33231 -2.79294,-2.32615 -4.39549,-3.12568 0.0203,-0.17211 0.0396,-0.3383 0.0543,-0.51009 0.19269,-2.25666 0.12059,-4.63916 -0.51009,-6.78315 -0.54577,-1.85533 -1.52382,-3.58347 -2.73497,-4.93813 -1.65852,-1.85505 -3.79799,-3.10296 -5.93661,-4.06989 -1.18062,-0.53379 -2.45132,-0.78073 -3.71174,-0.91166 -0.77253,-0.0803 -1.56311,-0.14849 -2.34426,-0.14109 z"
       id="path3976-6"
       inkscape:connector-curvature="0"
       sodipodi:nodetypes="sssssscsssssssssscssssssscssssss" />
  </g>
</svg>
