<?xml version="1.0" encoding="UTF-8" standalone="no"?>
<svg
   xmlns:dc="http://purl.org/dc/elements/1.1/"
   xmlns:cc="http://creativecommons.org/ns#"
   xmlns:rdf="http://www.w3.org/1999/02/22-rdf-syntax-ns#"
   xmlns:svg="http://www.w3.org/2000/svg"
   xmlns="http://www.w3.org/2000/svg"
   xmlns:sodipodi="http://sodipodi.sourceforge.net/DTD/sodipodi-0.dtd"
   xmlns:inkscape="http://www.inkscape.org/namespaces/inkscape"
   height="219.99986"
   width="220"
   id="svg3101"
   version="1.1"
   inkscape:version="0.48.4 r9943 custom"
   sodipodi:docname="logo.svg">
  <metadata
     id="metadata3121">
    <rdf:RDF>
      <cc:Work
         rdf:about="">
        <dc:format>image/svg+xml</dc:format>
        <dc:type
           rdf:resource="http://purl.org/dc/dcmitype/StillImage" />
      </cc:Work>
    </rdf:RDF>
  </metadata>
  <defs
     id="defs3119" />
  <sodipodi:namedview
     pagecolor="#ffffff"
     bordercolor="#666666"
     borderopacity="1"
     objecttolerance="10"
     gridtolerance="10"
     guidetolerance="10"
     inkscape:pageopacity="0"
     inkscape:pageshadow="2"
     inkscape:window-width="1440"
     inkscape:window-height="855"
     id="namedview3117"
     showgrid="false"
     inkscape:zoom="3.2454566"
     inkscape:cx="97.675078"
     inkscape:cy="60.700242"
     inkscape:window-x="0"
     inkscape:window-y="23"
     inkscape:window-maximized="0"
     inkscape:current-layer="svg3101"
     showguides="true"
     inkscape:guide-bbox="true">
    <inkscape:grid
       type="xygrid"
       id="grid3188" />
  </sodipodi:namedview>
  <g
     transform="translate(-101.38421 -86.23996)"
     id="g3103">
    <path
       d="m 101.38421,86.240443 h 220 V 277.40282 h -220 z"
       id="path3105"
       inkscape:connector-curvature="0"
       style="fill:#d2e0af;fill-rule:evenodd" />
    <path
       d="m 125.52275,272.13629 c 0,0 -8.90867,-0.12133 -13.36331,-0.12911 -5.2585,-0.009 -10.77523,0.0942 -10.77523,0.0942 l 0,-7.36189 23.5795,-0.013 c 0,0 9.17721,0.1696 13.47422,-0.0482 8.81316,-0.57171 17.31331,0.61509 26.13626,-0.23437 7.21248,-0.19493 14.39255,0.3211 21.57584,0.33309 13.54771,-0.43348 27.16913,0.46283 40.71468,-0.31873 2.69575,0.22391 5.40002,0.65978 8.11008,0.36064 15.39003,-0.58137 -10.39828,1.02714 4.98841,0.008 0.5694,-7.94383 4.65732,-13.70777 15.69983,-14.03494 8.71352,-0.25816 17.63553,5.09578 17.88698,13.95976 2.04854,-0.0781 6.08301,-0.0246 6.08301,-0.0246 l 41.77565,0.0124 -0.0272,7.36188 -41.77231,0.0438 z"
       id="path3107"
       inkscape:connector-curvature="0"
       style="fill:#6e9c2a;fill-rule:evenodd"
       sodipodi:nodetypes="cccccccccccscccccc" />
    <path
       d="m 166.53471,199.07825 c -1.03597,-0.0246 -2.21712,0.0447 -3.06818,0.21833 -0.64033,0.13033 -1.43401,0.64959 -1.7074,1.31001 -0.12227,0.29524 -0.0938,0.3454 -0.1027,0.42383 -0.009,0.0784 -0.01,0.13534 -0.0129,0.20549 -0.007,0.14031 -0.0123,0.30509 -0.0129,0.48806 -8.2e-4,0.36591 0.011,0.83167 0.0256,1.34854 0.0303,1.03372 0.0821,2.25864 0.15406,3.19798 0.0728,0.93267 0.0768,6.60528 0.0256,7.86009 -0.045,1.11765 -0.0439,2.2675 0,3.96858 0.0167,0.64691 0.0328,1.23983 0.0385,1.66962 0.003,0.2149 3.5e-4,0.38797 0,0.5009 -1e-4,0.0313 2.8e-4,0.0442 0,0.0642 -4.2e-4,0.007 3.6e-4,0.0211 0,0.0257 -1.1e-4,0.005 7e-5,0.0231 0,0.0256 -0.002,0.026 -0.0121,0.0591 -0.0129,0.077 -0.002,0.0592 -4.1e-4,0.0972 0,0.14127 0.001,0.0881 0.008,0.1814 0.0129,0.29541 0.011,0.22798 0.0276,0.53045 0.0513,0.84764 0.065,0.85833 0.0786,1.46891 0.0385,3.40348 -0.0134,0.65796 -0.0362,1.25662 -0.0514,1.69531 -0.008,0.21936 -0.0196,0.3983 -0.0256,0.51374 -0.001,0.0256 0.001,0.0328 0,0.0514 -0.002,0.0154 0.001,0.0435 0,0.0513 -1.6e-4,0.002 1.1e-4,0.0115 0,0.0129 -0.002,0.0162 -0.0111,0.0377 -0.0129,0.0513 -0.008,0.0604 -0.008,0.10989 -0.0129,0.16695 -0.01,0.11423 -0.0289,0.25923 -0.0385,0.42383 -0.0191,0.32923 -0.0323,0.75889 -0.0513,1.22011 -0.038,0.92249 -0.0773,1.93877 -0.0771,2.50445 0,0.48653 0.0401,1.47893 0.0771,2.29895 0.0345,0.76667 0.0618,2.28293 0.0642,3.30073 -0.0793,1.85674 -0.11279,4.09304 -0.0618,5.39176 0.0674,1.48648 -0.0625,3.19056 -0.13836,4.78415 -0.10698,2.24547 -0.24645,4.20371 -0.44651,6.72928 -0.35185,4.44162 -0.52387,15.60079 -1.12508,15.79381 -0.64678,0.20767 -0.90341,0.0377 -1.66887,0.10275 -0.42456,0.0438 -2.93803,0.13612 -5.26341,0.19264 -1.16271,0.0283 -2.31496,0.0545 -3.22225,0.0642 -0.90728,0.01 -1.68991,-0.0148 -1.66889,-0.0129 -0.39827,-0.0363 -0.8974,-0.03 -1.79726,-0.0385 -0.89633,-0.009 -2.05037,-0.0148 -3.24792,-0.0129 -0.003,0 -0.01,0 -0.0129,0 -2.39026,-5e-5 -6.91434,-0.0137 -10.03901,-0.0513 -4.19319,-0.0501 -31.75932,-0.14412 -31.75932,-0.14412 l 0,36 220,0 0,-36 c 0,0 -50.97268,0.62297 -57.12448,0.55799 l -3.64588,-0.0385 c 0.52396,-0.46374 1.11496,-1.41905 1.73201,-2.16364 0.57562,-0.69462 1.51454,-1.60102 2.31078,-2.24757 0.39693,-0.32225 0.97276,-0.83606 1.37362,-1.22011 0.35881,-0.34378 1.01046,-0.97349 1.45065,-1.38709 0.4533,-0.42589 0.78462,-0.75 1.05269,-1.13021 0.26806,-0.38021 0.46215,-0.90433 0.46215,-1.36139 0,-0.95663 -0.48777,-1.73819 -1.33511,-2.17051 -0.62636,-0.31973 -1.57278,-0.24566 -2.15672,0.0898 -0.47187,0.27168 -0.64149,0.47266 -1.06553,0.8605 -0.42402,0.38784 -0.93679,0.8842 -1.502,1.43845 -1.13041,1.10849 -2.43826,2.43909 -3.44048,3.5319 -0.73732,0.80395 -1.05262,1.12679 -1.37362,1.46414 -0.003,-0.36169 -0.004,-0.73941 0.0514,-1.14306 0.0842,-0.61392 0.11863,-1.68338 0.15405,-3.23651 0.0483,-2.10015 0.0811,-2.59837 0.2054,-3.60896 0.12618,-1.02642 0.19995,-1.42609 0.0514,-1.96503 -0.16538,-0.59992 -0.58275,-1.18724 -1.24526,-1.46413 -0.43127,-0.1803 -0.73824,-0.17567 -1.06551,-0.16696 -0.32727,0.009 -0.63313,0.0315 -1.03985,0.21833 -0.53693,0.24671 -1.15438,0.96932 -1.2966,1.65679 -0.14222,0.68747 -0.10423,1.37623 -0.0385,2.45307 0.0862,1.41235 0.0877,1.81898 0,4.32819 -0.0398,1.13411 -0.0127,1.49882 0.0256,1.95219 -0.58768,-0.45064 -1.25957,-0.97424 -1.55335,-1.24582 -0.54246,-0.50153 -1.27047,-1.12107 -1.86146,-1.59256 -0.25407,-0.20267 -0.65252,-0.48077 -1.07836,-0.7706 -0.40991,-0.27898 -0.90945,-0.61242 -1.10403,-0.74491 -0.57268,-0.38974 -1.19697,-0.7054 -1.95132,-0.68069 -0.75435,0.0247 -1.399,0.42097 -1.88713,0.87334 -0.36025,0.33369 -0.69402,0.712 -0.84727,1.29717 -0.15325,0.58517 0.031,1.2526 0.29526,1.66964 0.32736,0.51631 0.56262,0.64255 0.96282,0.96323 0.4002,0.32069 0.90761,0.68057 1.48916,1.07884 0.61127,0.41872 1.01156,0.74959 2.05402,1.68247 0.47715,0.42703 1.16394,0.97217 1.69457,1.33572 0.42008,0.28787 1.03664,0.744 1.21957,0.89902 0.2955,0.2505 0.75041,0.54536 0.75041,0.54536 0,0 -0.89656,-0.14277 -1.25108,-0.16696 -1.60201,0.009 -2.00776,0.23647 -3.33778,0.19265 -10.86191,-0.35775 -20.31161,-0.4413 -33.14361,-0.52989 0,0 0.0538,-0.75883 0.0771,-1.50266 0.0266,-0.86108 0.0726,-1.96813 0.10269,-2.35033 0.0437,-0.5547 0.0531,-1.22513 0.0256,-1.78521 -0.0443,-0.89792 -0.0368,-3.16939 0.0158,-4.59207 0.0246,-0.66679 0.0766,-1.73033 0.10973,-2.3287 0.029,-0.51996 0.0841,-1.2062 0.1027,-1.34855 0.34493,-2.62148 0.30735,-10.25793 -0.0514,-12.98458 -0.0339,-0.2586 -0.0674,-0.50491 -0.10269,-0.71922 -0.0353,-0.21432 -0.0371,-0.28382 -0.12838,-0.57795 -0.1628,-0.52373 -0.50426,-1.04757 -1.00134,-1.37424 -0.49708,-0.32665 -1.06153,-0.43814 -1.6047,-0.43666 -0.67774,0 -2.27192,0.18677 -2.79781,0.82196 -0.52589,0.6352 -0.59359,1.35005 -0.60337,2.08062 0.009,0.79886 0.0184,1.52985 0.0385,2.19619 0.0726,2.3486 -0.0744,5.84222 -0.15635,7.6254 -0.0535,0.95869 -0.0667,1.92049 -0.12837,2.87687 -0.2206,3.31095 -0.25732,6.71243 -0.29295,9.59746 0.004,1.6091 -0.0994,3.38149 -0.16688,4.89329 -0.79359,-0.0387 -0.90174,-0.10141 -1.72103,-0.1284 -10.43518,0.12308 -3.4195,-0.0133 -12.86822,-0.0209 -1.3557,-0.005 -2.55947,-0.0469 -2.82426,-0.0771 -1.8859,-0.21456 -4.26392,-0.32344 -6.99651,-0.33393 -5.80665,-0.0222 -9.85181,0.045 -11.86195,0.21834 -1.61038,0.13905 -1.61783,-0.0605 -2.02378,-0.0724 -0.6582,-3.51612 -0.53454,-6.76593 -0.5052,-9.1808 0.0518,-4.34221 -0.0367,-5.14196 -0.0514,-6.39596 -0.0488,-4.19424 0.1396,-8.12675 0.15404,-10.32599 0.0164,-2.45576 0.0396,-3.30583 0.0898,-3.68602 1.8e-4,-0.001 -1.7e-4,-0.0115 0,-0.0129 0.12616,-0.94549 0.12351,-2.84691 0.0898,-5.50976 -1.5e-4,-0.0124 1.7e-4,-0.0132 0,-0.0256 3e-4,-0.22898 0.0177,-1.13216 0.0385,-1.97786 0.0683,-2.80205 0.0975,-17.17071 0.0385,-19.9328 -0.0295,-1.38393 -0.0733,-8.78731 -0.0898,-9.90217 -0.0165,-1.13641 -0.011,-1.68948 -0.1027,-2.23474 -0.0461,-0.27262 -0.14657,-0.60709 -0.37228,-0.89903 -0.22571,-0.29194 -0.47622,-0.43375 -0.59053,-0.50089 -0.20043,-0.11767 -0.53826,-0.22445 -0.79594,-0.25686 -0.25768,-0.0324 -0.49996,-0.0423 -0.88579,-0.0514 z"
       id="path3109"
       inkscape:connector-curvature="0"
       style="fill:#555632"
       sodipodi:nodetypes="cccccccccsccccccccccccccccccscccccscccccccccccccsccccccscccssccccccccssccccccccscccccccccccccccccccccscccccccccccccccccccccccscccc" />
    <g
       id="g3111"
       transform="translate(-5,15)"
       style="fill:#6e9c2a">
      <path
         d="m 178.62935,185.06062 c -3.47737,0.92889 -7.12879,1.22826 -10.69612,0.94266 -3.48428,-0.27899 -7.09738,-0.83679 -10.22008,-2.57547 -6.94318,-3.86589 -13.71463,-9.4092 -17.72477,-16.79499 -1.70095,-3.13279 -1.83412,-7.06819 -2.16356,-10.70788 -0.27365,-3.02317 -0.35382,-6.13049 0.16717,-9.11332 0.73575,-4.21251 2.00081,-8.44257 4.11394,-12.03532 1.68815,-2.87017 4.07501,-5.24601 6.60743,-7.20692 3.36997,-2.60944 7.14895,-4.78243 11.14405,-5.84694 3.73263,-0.99458 7.68716,-0.75473 11.51079,-0.37862 3.11924,0.30683 6.27331,0.88611 9.19507,2.13704 5.29259,2.26597 10.58053,5.20016 14.68498,9.54741 2.9973,3.17461 5.42715,7.21697 6.77779,11.56488 1.56079,5.02438 1.73016,10.59527 1.25329,15.88368 -0.30875,3.42404 -1.10334,6.90766 -2.63164,9.90135 -1.48083,2.9007 -3.64178,5.44791 -6.1037,7.3572 -4.70791,3.65113 -10.3313,5.83379 -15.91464,7.32524 z"
         id="path3113"
         inkscape:connector-curvature="0" />
      <path
         d="m 214.84988,188.09406 c -0.85888,0.008 -1.71256,0.10087 -2.54174,0.33428 -1.77499,0.49966 -3.45499,1.52096 -4.95223,2.7458 -1.12513,0.92044 -2.18551,2.03133 -2.93553,3.37857 -0.93885,1.68639 -1.49887,3.66953 -1.82577,5.64685 -0.23146,1.4001 -0.19317,2.86681 -0.0716,4.28586 0.0432,0.50483 0.083,1.01234 0.13127,1.52811 -0.35592,0.0483 -0.70154,0.12197 -1.05011,0.21488 -1.74293,0.46466 -3.3985,1.41584 -4.86869,2.55482 -1.1048,0.8559 -2.1394,1.88699 -2.87587,3.13978 -0.92189,1.56818 -1.48091,3.41418 -1.80189,5.25288 -0.22729,1.30195 -0.19098,2.65589 -0.0716,3.97547 0.14372,1.58866 0.20065,3.31243 0.9427,4.67984 1.74948,3.22378 4.70359,5.64273 7.73263,7.33014 1.36232,0.75892 2.94291,1.00044 4.46298,1.12221 1.55629,0.12467 3.14878,-3.8e-4 4.66582,-0.40591 2.4358,-0.65099 4.36987,-2.8466 6.94505,-3.19948 0.78866,-0.10802 2.42475,1.45855 3.26966,1.94596 1.36232,0.7589 2.94291,1.00044 4.46297,1.1222 1.55628,0.12467 3.14878,-3.8e-4 4.66583,-0.4059 2.43581,-0.65099 4.87923,-1.60581 6.93312,-3.19948 1.07404,-0.83337 2.02698,-1.9453 2.67301,-3.21142 0.66674,-1.30669 1.01088,-2.82714 1.14557,-4.32168 0.20804,-2.30831 0.132,-4.74311 -0.54892,-6.93618 -0.58923,-1.8978 -1.65179,-3.66426 -2.9594,-5.04993 -1.38299,-1.46554 -3.07088,-2.55876 -4.8329,-3.43825 0.0223,-0.18932 0.0435,-0.37213 0.0597,-0.5611 0.21187,-2.48233 0.13259,-5.10308 -0.56085,-7.46147 -0.60008,-2.04086 -1.67546,-3.94182 -3.00714,-5.43194 -1.82356,-2.04056 -4.17594,-3.41326 -6.52738,-4.47689 -1.29811,-0.58717 -2.69527,-0.8588 -4.08111,-1.00282 -0.84941,-0.0883 -1.71867,-0.16334 -2.57755,-0.1552 z"
         id="path3115"
         inkscape:connector-curvature="0" />
    </g>
  </g>
</svg>
