<?xml version="1.0" encoding="UTF-8" standalone="no"?>
<!-- Created with Inkscape (http://www.inkscape.org/) -->

<svg
   xmlns:dc="http://purl.org/dc/elements/1.1/"
   xmlns:cc="http://creativecommons.org/ns#"
   xmlns:rdf="http://www.w3.org/1999/02/22-rdf-syntax-ns#"
   xmlns:svg="http://www.w3.org/2000/svg"
   xmlns="http://www.w3.org/2000/svg"
   xmlns:sodipodi="http://sodipodi.sourceforge.net/DTD/sodipodi-0.dtd"
   xmlns:inkscape="http://www.inkscape.org/namespaces/inkscape"
   width="180"
   height="180"
   id="svg2"
   version="1.1"
   inkscape:version="0.48.4 r9943 custom"
   sodipodi:docname="favicon.svg"
   inkscape:export-filename="/Users/growdigital/Sites/forestgarden.wales/themes/gofgw/src/04-components/graphics/logo/logo.png"
   inkscape:export-xdpi="98.959999"
   inkscape:export-ydpi="98.959999">
  <defs
     id="defs4">
    <clipPath
       id="clipPath3077"
       clipPathUnits="userSpaceOnUse">
      <path
         id="path3079"
         clip-rule="evenodd"
         d="m 85,0 c 46.9442,0 85,38.0558 85,85 0,46.9442 -38.0558,85 -85,85 C 38.0558,170 0,131.9442 0,85 0,38.0558 38.0558,0 85,0 z"
         inkscape:connector-curvature="0" />
    </clipPath>
    <clipPath
       id="clipPath3083"
       clipPathUnits="userSpaceOnUse">
      <path
         id="path3085"
         d="M 0,0 170,0 170,170 0,170 0,0 z"
         inkscape:connector-curvature="0" />
    </clipPath>
    <clipPath
       id="clipPath3089"
       clipPathUnits="userSpaceOnUse">
      <path
         id="path3091"
         d="m -4,-21 181,0 0,195 -181,0 0,-195 z"
         inkscape:connector-curvature="0" />
    </clipPath>
    <clipPath
       id="clipPath3093"
       clipPathUnits="userSpaceOnUse">
      <path
         id="path3095"
         clip-rule="evenodd"
         d="m -3.269231,39.23077 179.807731,0 0,134.69233 -179.807731,0 0,-134.69233 z"
         inkscape:connector-curvature="0" />
    </clipPath>
    <clipPath
       id="clipPath3097"
       clipPathUnits="userSpaceOnUse">
      <path
         id="path3099"
         d="M 0,0 170,0 170,170 0,170 0,0 z"
         inkscape:connector-curvature="0" />
    </clipPath>
    <clipPath
       id="clipPath3101"
       clipPathUnits="userSpaceOnUse">
      <path
         id="path3103"
         clip-rule="evenodd"
         d="m -3.269231,43.15385 179.807731,0 0,-3.92308 -179.807731,0 0,3.92308 z"
         inkscape:connector-curvature="0" />
    </clipPath>
    <clipPath
       id="clipPath3105"
       clipPathUnits="userSpaceOnUse">
      <path
         id="path3107"
         d="M 0,0 170,0 170,170 0,170 0,0 z"
         inkscape:connector-curvature="0" />
    </clipPath>
    <clipPath
       id="clipPath3109"
       clipPathUnits="userSpaceOnUse">
      <path
         id="path3111"
         clip-rule="evenodd"
         d="m 105.1365,42.77178 c 10.4615,0.39362 -7.07004,-0.69961 3.3889,-0.0046 0.3884,5.3962 3.1672,9.31208 10.674,9.53439 5.9226,0.17588 11.9889,-3.46081 12.1596,-9.48339 1.392,0.051 3.9872,0.01766 3.9872,0.01766 l 0,-5.03658 -104.61543,0 0,5.03658 c 0,0 5.85911,-0.11769 8.77854,0.03073 5.99184,0.38838 11.77184,-0.41912 17.76892,0.15823 4.90385,0.13273 9.78415,-0.21708 14.66512,-0.22492 9.21007,0.29423 18.47115,-0.31385 27.67861,0.21707 1.83144,-0.153 3.67074,-0.44919 5.51454,-0.24519 z"
         inkscape:connector-curvature="0" />
    </clipPath>
    <clipPath
       id="clipPath3113"
       clipPathUnits="userSpaceOnUse">
      <path
         id="path3115"
         d="M 0,0 170,0 170,170 0,170 0,0 z"
         inkscape:connector-curvature="0" />
    </clipPath>
    <clipPath
       id="clipPath3117"
       clipPathUnits="userSpaceOnUse">
      <path
         id="path3119"
         clip-rule="evenodd"
         d="m 58.61142,87.61185 c -0.7055,0.01766 -1.50711,-0.03073 -2.08707,-0.14842 -0.43416,-0.08696 -0.97554,-0.442 -1.15927,-0.88858 -0.08435,-0.20204 -0.06408,-0.23538 -0.07193,-0.289 -0.01242,-0.23473 -0.01503,-0.34719 -0.01765,-0.47207 0,-0.24781 0.0078,-0.56493 0.01765,-0.91473 0.02093,-0.70224 0.05623,-1.53458 0.10527,-2.17339 0.051,-0.63358 0.05362,-4.48735 0.01766,-5.34061 -0.03073,-0.76108 -0.03073,-1.53981 0,-2.69712 0.01242,-0.43938 0.02288,-0.84281 0.0255,-1.13377 0.0026,-0.14581 0,-0.2635 0,-0.34 -0.01046,-0.17065 -0.0079,-0.19877 -0.0079,-0.22688 0,-0.06147 0.0052,-0.12554 0.0079,-0.20204 0.0078,-0.15562 0.02027,-0.36027 0.03596,-0.57473 0.04315,-0.58454 0.05361,-0.99843 0.0255,-2.31396 -0.0078,-0.44724 -0.02289,-0.85327 -0.03335,-1.15208 -0.0052,-0.14777 -0.01569,-0.27069 -0.01765,-0.34981 -0.01569,-0.153 -0.01569,-0.18635 -0.01831,-0.22492 -0.0072,-0.07912 -0.02027,-0.17589 -0.0255,-0.28835 -0.01242,-0.22492 -0.02288,-0.51588 -0.03531,-0.83038 -0.02615,-0.62573 -0.05427,-1.3175 -0.05165,-1.70066 0,-0.32954 0.0255,-1.00365 0.05165,-1.56334 0.02289,-0.52112 0.04054,-1.55027 0.04316,-2.24204 -0.05362,-1.26192 -0.0765,-2.78146 -0.0412,-3.66285 0.04643,-1.0115 -0.04315,-2.16815 -0.09415,-3.25157 -0.07388,-1.52477 -0.16869,-2.85535 -0.30404,-4.5717 -0.23996,-3.0188 -0.35504,-10.60211 -0.76369,-10.73223 -0.442,-0.14057 -0.61527,-0.0255 -1.13638,-0.06865 -0.289,-0.03073 -1.9975,-0.09481 -3.5785,-0.13339 -0.7892,-0.01765 -1.57316,-0.0353 -2.18908,-0.04315 -0.61789,-0.0052 -1.14881,0.01046 -1.13377,0.01046 -0.27069,0.02289 -0.61004,0.02027 -1.22335,0.0255 -0.60807,0.0052 -1.39204,0.0098 -2.20673,0.0072 -1.63461,0 -4.70965,0.01047 -6.83465,0.03597 -2.85077,0.03334 -5.17977,0.08696 -5.17977,0.08696 l 0,-5.23077 104.61543,0 0,5.13138 c 0,0 -6.122,-0.31188 -10.3034,-0.26807 l -2.4774,0.0255 c 0.3551,0.31646 0.7585,0.96507 1.1776,1.47115 0.391,0.47208 1.0292,1.088 1.5705,1.52673 0.2681,0.21773 0.6617,0.56754 0.9324,0.82777 0.2452,0.23538 0.6872,0.66169 0.986,0.94285 0.3086,0.29096 0.5336,0.51065 0.7179,0.76826 0.1812,0.25827 0.3139,0.61593 0.3139,0.92454 0,0.65123 -0.3322,1.18281 -0.9095,1.47639 -0.4237,0.21707 -1.0671,0.16607 -1.4659,-0.06146 -0.3191,-0.18635 -0.4342,-0.3217 -0.7225,-0.58454 -0.289,-0.26285 -0.6388,-0.60023 -1.022,-0.97816 -0.7689,-0.75388 -1.6575,-1.6575 -2.3395,-2.40092 -0.5008,-0.544 -0.7153,-0.76369 -0.9323,-0.99385 -0.003,0.2452 -0.005,0.50347 0.0333,0.77677 0.0589,0.4165 0.0817,1.14423 0.1046,2.19889 0.0334,1.428 0.0563,1.76473 0.1406,2.45192 0.087,0.69766 0.1353,0.97096 0.036,1.33581 -0.1125,0.40865 -0.3963,0.8075 -0.8481,0.99646 -0.2936,0.12227 -0.5008,0.11704 -0.7231,0.11181 -0.2243,-0.0046 -0.4316,-0.02027 -0.7075,-0.14777 -0.3648,-0.16869 -0.784,-0.65908 -0.8807,-1.12658 -0.0974,-0.4675 -0.0719,-0.93434 -0.0281,-1.66796 0.0588,-0.95723 0.0608,-1.23315 0,-2.93969 -0.0255,-0.77089 -0.008,-1.01869 0.0176,-1.32535 -0.3982,0.30666 -0.8552,0.66169 -1.0546,0.84543 -0.3708,0.34196 -0.8638,0.76107 -1.2672,1.08276 -0.1706,0.13797 -0.4413,0.32693 -0.733,0.52374 -0.2785,0.18896 -0.6178,0.4165 -0.748,0.50542 -0.391,0.26611 -0.8146,0.48058 -1.3286,0.46292 -0.5132,-0.01831 -0.95,-0.28638 -1.2815,-0.59304 -0.2459,-0.22688 -0.4727,-0.48515 -0.5774,-0.88073 -0.1026,-0.39884 0.0229,-0.85327 0.2014,-1.13704 0.2223,-0.3498 0.3832,-0.43677 0.6539,-0.65384 0.2733,-0.21708 0.6185,-0.46227 1.0141,-0.73296 0.4139,-0.28312 0.6872,-0.50804 1.3946,-1.14162 0.3244,-0.29096 0.7919,-0.66169 1.1521,-0.90885 0.2858,-0.19419 0.7049,-0.50607 0.8298,-0.61069 0.202,-0.17131 0.5106,-0.37007 0.5106,-0.37007 0,0 -0.61,0.09676 -0.85,0.1118 -1.0906,-0.0046 -1.3665,-0.16084 -2.2708,-0.13011 -7.3839,0.24257 -13.80727,0.29881 -22.52958,0.36027 0,0 0.03596,0.51588 0.051,1.0213 0.01766,0.5852 0.051,1.33581 0.07127,1.5967 0.02812,0.37792 0.03596,0.83234 0.01831,1.21288 -0.03073,0.61069 -0.0255,2.15312 0.0098,3.12146 0.01569,0.45181 0.05165,1.17496 0.07454,1.581 0.02027,0.35504 0.05623,0.81993 0.06865,0.9167 0.23538,1.78042 0.20923,6.97 -0.03335,8.82169 -0.02288,0.17654 -0.04577,0.34523 -0.07127,0.49038 -0.02288,0.14581 -0.0255,0.19158 -0.08696,0.39362 -0.10984,0.35504 -0.34196,0.71007 -0.67934,0.93238 -0.33935,0.22166 -0.7225,0.29881 -1.09323,0.29619 -0.45966,0 -1.54243,-0.12553 -1.90008,-0.55707 -0.35765,-0.43154 -0.40342,-0.91931 -0.41127,-1.41493 0.0079,-0.54138 0.01308,-1.03961 0.0255,-1.49142 0.051,-1.59669 -0.04838,-3.96884 -0.10462,-5.18238 -0.03596,-0.65123 -0.04576,-1.30508 -0.08696,-1.9537 -0.15038,-2.25053 -0.17588,-4.56188 -0.19942,-6.52342 0.0026,-1.09323 -0.06865,-2.29565 -0.11442,-3.32284 -0.53943,0.0255 -0.61331,0.0693 -1.16973,0.08696 -7.09293,-0.08435 -2.32443,0.0078 -8.74781,0.01307 -0.92192,0.0046 -1.73923,0.0327 -1.91839,0.05362 -1.28219,0.14515 -2.8985,0.21969 -4.75803,0.22688 -3.94597,0.0157 -6.6967,-0.03073 -8.06324,-0.14777 -1.09323,-0.0948 -1.09846,0.04054 -1.37438,0.04839 -0.44919,2.38785 -0.36485,4.59719 -0.34458,6.23704 0.03596,2.95277 -0.0255,3.49415 -0.03596,4.34677 -0.03334,2.85077 0.09742,5.52238 0.10462,7.01642 0.01307,1.66796 0.02811,2.24727 0.06146,2.50554 0.08696,0.65123 0.08434,1.94388 0.06146,3.75177 0,0.17392 0.01242,0.78657 0.02812,1.36131 0.04576,1.90269 0.06342,11.66723 0.0255,13.54442 -0.02027,0.94023 -0.051,5.97158 -0.06147,6.72742 -0.01242,0.77416 -0.0078,1.14946 -0.06865,1.51954 -0.03335,0.18438 -0.10004,0.41127 -0.25565,0.61069 -0.153,0.19943 -0.3217,0.29358 -0.40081,0.33935 -0.13535,0.08173 -0.3655,0.15365 -0.54139,0.17654 -0.17392,0.02027 -0.34,0.02811 -0.60023,0.03334 z"
         inkscape:connector-curvature="0" />
    </clipPath>
    <clipPath
       id="clipPath3121"
       clipPathUnits="userSpaceOnUse">
      <path
         id="path3123"
         d="M 0,0 170,0 170,170 0,170 0,0 z"
         inkscape:connector-curvature="0" />
    </clipPath>
    <clipPath
       id="clipPath3125"
       clipPathUnits="userSpaceOnUse">
      <path
         id="path3127"
         clip-rule="evenodd"
         d="m 63.19249,87.25307 c -2.36561,-0.63096 -4.84565,-0.83496 -7.27142,-0.64077 -2.36823,0.18896 -4.82473,0.5695 -6.94711,1.74969 -4.72012,2.62781 -9.32254,6.39527 -12.05039,11.41158 -1.15469,2.12953 -1.24623,4.80383 -1.46854,7.27663 -0.18634,2.0557 -0.24257,4.1657 0.11246,6.1933 0.5002,2.8605 1.36131,5.7368 2.7965,8.1783 1.14685,1.9491 2.771,3.5628 4.49258,4.896 2.29108,1.7725 4.85808,3.2489 7.57546,3.9721 2.53627,0.6767 5.22554,0.5132 7.82327,0.2576 2.12239,-0.2066 4.26504,-0.6029 6.25208,-1.4509 3.59615,-1.5398 7.19231,-3.5347 9.98161,-6.4875 2.03804,-2.1576 3.69097,-4.9038 4.60766,-7.8585 1.0625,-3.4151 1.17758,-7.2002 0.85327,-10.7937 -0.20989,-2.3264 -0.75127,-4.69202 -1.79089,-6.72745 -1.00627,-1.972 -2.4748,-3.70077 -4.148,-4.99865 -3.19992,-2.482 -7.02361,-3.96362 -10.81854,-4.97773 z"
         inkscape:connector-curvature="0" />
    </clipPath>
    <clipPath
       id="clipPath3129"
       clipPathUnits="userSpaceOnUse">
      <path
         id="path3131"
         d="M 0,0 170,0 170,170 0,170 0,0 z"
         inkscape:connector-curvature="0" />
    </clipPath>
    <clipPath
       id="clipPath3133"
       clipPathUnits="userSpaceOnUse">
      <path
         id="path3135"
         clip-rule="evenodd"
         d="m 87.52903,84.99963 c -0.58258,-0.0052 -1.16189,-0.06931 -1.72681,-0.22754 -1.20766,-0.33934 -2.34927,-1.03438 -3.366,-1.86411 -0.76631,-0.62573 -1.48685,-1.38223 -1.9975,-2.29631 -0.63619,-1.14685 -1.01673,-2.49508 -1.23839,-3.83873 -0.15888,-0.95004 -0.13338,-1.9465 -0.05165,-2.91158 0.03073,-0.34261 0.05885,-0.68719 0.08958,-1.037 -0.23997,-0.03335 -0.4747,-0.08435 -0.7127,-0.14842 -1.18477,-0.31385 -2.31134,-0.9605 -3.30977,-1.734 -0.75126,-0.58258 -1.4535,-1.28219 -1.95369,-2.13546 -0.62834,-1.06512 -1.00888,-2.3192 -1.22596,-3.56804 -0.15365,-0.88335 -0.13077,-1.80593 -0.04904,-2.70235 0.09743,-1.07754 0.13535,-2.24988 0.64143,-3.17965 1.19,-2.18908 3.1973,-3.8335 5.25626,-4.98035 0.92716,-0.51588 1.99947,-0.67934 3.03385,-0.76108 1.05792,-0.08696 2.14069,0 3.17246,0.27593 1.65489,0.442 2.97043,1.93342 4.72012,2.17338 0.53615,0.07389 1.64965,-0.99123 2.22177,-1.32273 0.92715,-0.51654 2.00273,-0.68 3.0345,-0.76173 1.05988,-0.08631 2.14004,0 3.1718,0.27592 1.65554,0.442 3.31831,1.09062 4.71231,2.17404 0.731,0.56427 1.3796,1.32012 1.819,2.18123 0.4518,0.88858 0.6865,1.92035 0.7787,2.93708 0.1406,1.56792 0.0896,3.22281 -0.3727,4.71227 -0.4008,1.28938 -1.124,2.48985 -2.0125,3.43269 -0.9403,0.99581 -2.0871,1.73662 -3.28496,2.33423 0.01569,0.13012 0.02812,0.25304 0.04119,0.38316 0.14254,1.68561 0.08893,3.46603 -0.38315,5.06992 -0.40604,1.38681 -1.139,2.67685 -2.04327,3.69031 -1.23904,1.3868 -2.84031,2.31919 -4.43635,3.04234 -0.884,0.3982 -1.83403,0.58193 -2.77623,0.68196 -0.57734,0.05885 -1.16777,0.10985 -1.7523,0.10462 z"
         inkscape:connector-curvature="0" />
    </clipPath>
    <clipPath
       id="clipPath3137"
       clipPathUnits="userSpaceOnUse">
      <path
         id="path3139"
         d="M 0,0 170,0 170,170 0,170 0,0 z"
         inkscape:connector-curvature="0" />
    </clipPath>
    <clipPath
       id="clipPath3141"
       clipPathUnits="userSpaceOnUse">
      <path
         id="path3143"
         clip-rule="evenodd"
         d="m -3.269231,39.23077 179.807731,0 0,-60.15385 -179.807731,0 0,60.15385 z"
         inkscape:connector-curvature="0" />
    </clipPath>
    <clipPath
       id="clipPath3145"
       clipPathUnits="userSpaceOnUse">
      <path
         id="path3147"
         d="M 0,0 170,0 170,170 0,170 0,0 z"
         inkscape:connector-curvature="0" />
    </clipPath>
    <clipPath
       id="clipPath3149"
       clipPathUnits="userSpaceOnUse">
      <path
         id="path3151"
         clip-rule="evenodd"
         d="m 105.1365,42.77178 c 10.4615,0.39362 -7.07004,-0.69961 3.3889,-0.0046 0.3884,5.3962 3.1672,9.31208 10.674,9.53439 5.9226,0.17588 11.9889,-3.46081 12.1596,-9.48339 1.392,0.051 3.9872,0.01766 3.9872,0.01766 l 0,-5.03658 -104.61543,0 0,5.03658 c 0,0 5.85911,-0.11769 8.77854,0.03073 5.99184,0.38838 11.77184,-0.41912 17.76892,0.15823 4.90385,0.13273 9.78415,-0.21708 14.66512,-0.22492 9.21007,0.29423 18.47115,-0.31385 27.67861,0.21707 1.83144,-0.153 3.67074,-0.44919 5.51454,-0.24519 z"
         inkscape:connector-curvature="0" />
    </clipPath>
    <clipPath
       id="clipPath3153"
       clipPathUnits="userSpaceOnUse">
      <path
         id="path3155"
         d="M 0,0 170,0 170,170 0,170 0,0 z"
         inkscape:connector-curvature="0" />
    </clipPath>
    <clipPath
       id="clipPath3157"
       clipPathUnits="userSpaceOnUse">
      <path
         id="path3159"
         clip-rule="evenodd"
         d="m 58.61142,87.61185 c -0.7055,0.01766 -1.50711,-0.03073 -2.08707,-0.14842 -0.43416,-0.08696 -0.97554,-0.442 -1.15927,-0.88858 -0.08435,-0.20204 -0.06408,-0.23538 -0.07193,-0.289 -0.01242,-0.23473 -0.01503,-0.34719 -0.01765,-0.47207 0,-0.24781 0.0078,-0.56493 0.01765,-0.91473 0.02093,-0.70224 0.05623,-1.53458 0.10527,-2.17339 0.051,-0.63358 0.05362,-4.48735 0.01766,-5.34061 -0.03073,-0.76108 -0.03073,-1.53981 0,-2.69712 0.01242,-0.43938 0.02288,-0.84281 0.0255,-1.13377 0.0026,-0.14581 0,-0.2635 0,-0.34 -0.01046,-0.17065 -0.0079,-0.19877 -0.0079,-0.22688 0,-0.06147 0.0052,-0.12554 0.0079,-0.20204 0.0078,-0.15562 0.02027,-0.36027 0.03596,-0.57473 0.04315,-0.58454 0.05361,-0.99843 0.0255,-2.31396 -0.0078,-0.44724 -0.02289,-0.85327 -0.03335,-1.15208 -0.0052,-0.14777 -0.01569,-0.27069 -0.01765,-0.34981 -0.01569,-0.153 -0.01569,-0.18635 -0.01831,-0.22492 -0.0072,-0.07912 -0.02027,-0.17589 -0.0255,-0.28835 -0.01242,-0.22492 -0.02288,-0.51588 -0.03531,-0.83038 -0.02615,-0.62573 -0.05427,-1.3175 -0.05165,-1.70066 0,-0.32954 0.0255,-1.00365 0.05165,-1.56334 0.02289,-0.52112 0.04054,-1.55027 0.04316,-2.24204 -0.05362,-1.26192 -0.0765,-2.78146 -0.0412,-3.66285 0.04643,-1.0115 -0.04315,-2.16815 -0.09415,-3.25157 -0.07388,-1.52477 -0.16869,-2.85535 -0.30404,-4.5717 -0.23996,-3.0188 -0.35504,-10.60211 -0.76369,-10.73223 -0.442,-0.14057 -0.61527,-0.0255 -1.13638,-0.06865 -0.289,-0.03073 -1.9975,-0.09481 -3.5785,-0.13339 -0.7892,-0.01765 -1.57316,-0.0353 -2.18908,-0.04315 -0.61789,-0.0052 -1.14881,0.01046 -1.13377,0.01046 -0.27069,0.02289 -0.61004,0.02027 -1.22335,0.0255 -0.60807,0.0052 -1.39204,0.0098 -2.20673,0.0072 -1.63461,0 -4.70965,0.01047 -6.83465,0.03597 -2.85077,0.03334 -5.17977,0.08696 -5.17977,0.08696 l 0,-5.23077 104.61543,0 0,5.13138 c 0,0 -6.122,-0.31188 -10.3034,-0.26807 l -2.4774,0.0255 c 0.3551,0.31646 0.7585,0.96507 1.1776,1.47115 0.391,0.47208 1.0292,1.088 1.5705,1.52673 0.2681,0.21773 0.6617,0.56754 0.9324,0.82777 0.2452,0.23538 0.6872,0.66169 0.986,0.94285 0.3086,0.29096 0.5336,0.51065 0.7179,0.76826 0.1812,0.25827 0.3139,0.61593 0.3139,0.92454 0,0.65123 -0.3322,1.18281 -0.9095,1.47639 -0.4237,0.21707 -1.0671,0.16607 -1.4659,-0.06146 -0.3191,-0.18635 -0.4342,-0.3217 -0.7225,-0.58454 -0.289,-0.26285 -0.6388,-0.60023 -1.022,-0.97816 -0.7689,-0.75388 -1.6575,-1.6575 -2.3395,-2.40092 -0.5008,-0.544 -0.7153,-0.76369 -0.9323,-0.99385 -0.003,0.2452 -0.005,0.50347 0.0333,0.77677 0.0589,0.4165 0.0817,1.14423 0.1046,2.19889 0.0334,1.428 0.0563,1.76473 0.1406,2.45192 0.087,0.69766 0.1353,0.97096 0.036,1.33581 -0.1125,0.40865 -0.3963,0.8075 -0.8481,0.99646 -0.2936,0.12227 -0.5008,0.11704 -0.7231,0.11181 -0.2243,-0.0046 -0.4316,-0.02027 -0.7075,-0.14777 -0.3648,-0.16869 -0.784,-0.65908 -0.8807,-1.12658 -0.0974,-0.4675 -0.0719,-0.93434 -0.0281,-1.66796 0.0588,-0.95723 0.0608,-1.23315 0,-2.93969 -0.0255,-0.77089 -0.008,-1.01869 0.0176,-1.32535 -0.3982,0.30666 -0.8552,0.66169 -1.0546,0.84543 -0.3708,0.34196 -0.8638,0.76107 -1.2672,1.08276 -0.1706,0.13797 -0.4413,0.32693 -0.733,0.52374 -0.2785,0.18896 -0.6178,0.4165 -0.748,0.50542 -0.391,0.26611 -0.8146,0.48058 -1.3286,0.46292 -0.5132,-0.01831 -0.95,-0.28638 -1.2815,-0.59304 -0.2459,-0.22688 -0.4727,-0.48515 -0.5774,-0.88073 -0.1026,-0.39884 0.0229,-0.85327 0.2014,-1.13704 0.2223,-0.3498 0.3832,-0.43677 0.6539,-0.65384 0.2733,-0.21708 0.6185,-0.46227 1.0141,-0.73296 0.4139,-0.28312 0.6872,-0.50804 1.3946,-1.14162 0.3244,-0.29096 0.7919,-0.66169 1.1521,-0.90885 0.2858,-0.19419 0.7049,-0.50607 0.8298,-0.61069 0.202,-0.17131 0.5106,-0.37007 0.5106,-0.37007 0,0 -0.61,0.09676 -0.85,0.1118 -1.0906,-0.0046 -1.3665,-0.16084 -2.2708,-0.13011 -7.3839,0.24257 -13.80727,0.29881 -22.52958,0.36027 0,0 0.03596,0.51588 0.051,1.0213 0.01766,0.5852 0.051,1.33581 0.07127,1.5967 0.02812,0.37792 0.03596,0.83234 0.01831,1.21288 -0.03073,0.61069 -0.0255,2.15312 0.0098,3.12146 0.01569,0.45181 0.05165,1.17496 0.07454,1.581 0.02027,0.35504 0.05623,0.81993 0.06865,0.9167 0.23538,1.78042 0.20923,6.97 -0.03335,8.82169 -0.02288,0.17654 -0.04577,0.34523 -0.07127,0.49038 -0.02288,0.14581 -0.0255,0.19158 -0.08696,0.39362 -0.10984,0.35504 -0.34196,0.71007 -0.67934,0.93238 -0.33935,0.22166 -0.7225,0.29881 -1.09323,0.29619 -0.45966,0 -1.54243,-0.12553 -1.90008,-0.55707 -0.35765,-0.43154 -0.40342,-0.91931 -0.41127,-1.41493 0.0079,-0.54138 0.01308,-1.03961 0.0255,-1.49142 0.051,-1.59669 -0.04838,-3.96884 -0.10462,-5.18238 -0.03596,-0.65123 -0.04576,-1.30508 -0.08696,-1.9537 -0.15038,-2.25053 -0.17588,-4.56188 -0.19942,-6.52342 0.0026,-1.09323 -0.06865,-2.29565 -0.11442,-3.32284 -0.53943,0.0255 -0.61331,0.0693 -1.16973,0.08696 -7.09293,-0.08435 -2.32443,0.0078 -8.74781,0.01307 -0.92192,0.0046 -1.73923,0.0327 -1.91839,0.05362 -1.28219,0.14515 -2.8985,0.21969 -4.75803,0.22688 -3.94597,0.0157 -6.6967,-0.03073 -8.06324,-0.14777 -1.09323,-0.0948 -1.09846,0.04054 -1.37438,0.04839 -0.44919,2.38785 -0.36485,4.59719 -0.34458,6.23704 0.03596,2.95277 -0.0255,3.49415 -0.03596,4.34677 -0.03334,2.85077 0.09742,5.52238 0.10462,7.01642 0.01307,1.66796 0.02811,2.24727 0.06146,2.50554 0.08696,0.65123 0.08434,1.94388 0.06146,3.75177 0,0.17392 0.01242,0.78657 0.02812,1.36131 0.04576,1.90269 0.06342,11.66723 0.0255,13.54442 -0.02027,0.94023 -0.051,5.97158 -0.06147,6.72742 -0.01242,0.77416 -0.0078,1.14946 -0.06865,1.51954 -0.03335,0.18438 -0.10004,0.41127 -0.25565,0.61069 -0.153,0.19943 -0.3217,0.29358 -0.40081,0.33935 -0.13535,0.08173 -0.3655,0.15365 -0.54139,0.17654 -0.17392,0.02027 -0.34,0.02811 -0.60023,0.03334 z"
         inkscape:connector-curvature="0" />
    </clipPath>
    <clipPath
       id="clipPath3161"
       clipPathUnits="userSpaceOnUse">
      <path
         id="path3163"
         d="M 0,0 170,0 170,170 0,170 0,0 z"
         inkscape:connector-curvature="0" />
    </clipPath>
    <clipPath
       id="clipPath3165"
       clipPathUnits="userSpaceOnUse">
      <path
         id="path3167"
         clip-rule="evenodd"
         d="m 63.19249,87.25307 c -2.36561,-0.63096 -4.84565,-0.83496 -7.27142,-0.64077 -2.36823,0.18896 -4.82473,0.5695 -6.94711,1.74969 -4.72012,2.62781 -9.32254,6.39527 -12.05039,11.41158 -1.15469,2.12953 -1.24623,4.80383 -1.46854,7.27663 -0.18634,2.0557 -0.24257,4.1657 0.11246,6.1933 0.5002,2.8605 1.36131,5.7368 2.7965,8.1783 1.14685,1.9491 2.771,3.5628 4.49258,4.896 2.29108,1.7725 4.85808,3.2489 7.57546,3.9721 2.53627,0.6767 5.22554,0.5132 7.82327,0.2576 2.12239,-0.2066 4.26504,-0.6029 6.25208,-1.4509 3.59615,-1.5398 7.19231,-3.5347 9.98161,-6.4875 2.03804,-2.1576 3.69097,-4.9038 4.60766,-7.8585 1.0625,-3.4151 1.17758,-7.2002 0.85327,-10.7937 -0.20989,-2.3264 -0.75127,-4.69202 -1.79089,-6.72745 -1.00627,-1.972 -2.4748,-3.70077 -4.148,-4.99865 -3.19992,-2.482 -7.02361,-3.96362 -10.81854,-4.97773 z"
         inkscape:connector-curvature="0" />
    </clipPath>
    <clipPath
       id="clipPath3169"
       clipPathUnits="userSpaceOnUse">
      <path
         id="path3171"
         d="M 0,0 170,0 170,170 0,170 0,0 z"
         inkscape:connector-curvature="0" />
    </clipPath>
    <clipPath
       id="clipPath3173"
       clipPathUnits="userSpaceOnUse">
      <path
         id="path3175"
         clip-rule="evenodd"
         d="m 87.52903,84.99963 c -0.58258,-0.0052 -1.16189,-0.06931 -1.72681,-0.22754 -1.20766,-0.33934 -2.34927,-1.03438 -3.366,-1.86411 -0.76631,-0.62573 -1.48685,-1.38223 -1.9975,-2.29631 -0.63619,-1.14685 -1.01673,-2.49508 -1.23839,-3.83873 -0.15888,-0.95004 -0.13338,-1.9465 -0.05165,-2.91158 0.03073,-0.34261 0.05885,-0.68719 0.08958,-1.037 -0.23997,-0.03335 -0.4747,-0.08435 -0.7127,-0.14842 -1.18477,-0.31385 -2.31134,-0.9605 -3.30977,-1.734 -0.75126,-0.58258 -1.4535,-1.28219 -1.95369,-2.13546 -0.62834,-1.06512 -1.00888,-2.3192 -1.22596,-3.56804 -0.15365,-0.88335 -0.13077,-1.80593 -0.04904,-2.70235 0.09743,-1.07754 0.13535,-2.24988 0.64143,-3.17965 1.19,-2.18908 3.1973,-3.8335 5.25626,-4.98035 0.92716,-0.51588 1.99947,-0.67934 3.03385,-0.76108 1.05792,-0.08696 2.14069,0 3.17246,0.27593 1.65489,0.442 2.97043,1.93342 4.72012,2.17338 0.53615,0.07389 1.64965,-0.99123 2.22177,-1.32273 0.92715,-0.51654 2.00273,-0.68 3.0345,-0.76173 1.05988,-0.08631 2.14004,0 3.1718,0.27592 1.65554,0.442 3.31831,1.09062 4.71231,2.17404 0.731,0.56427 1.3796,1.32012 1.819,2.18123 0.4518,0.88858 0.6865,1.92035 0.7787,2.93708 0.1406,1.56792 0.0896,3.22281 -0.3727,4.71227 -0.4008,1.28938 -1.124,2.48985 -2.0125,3.43269 -0.9403,0.99581 -2.0871,1.73662 -3.28496,2.33423 0.01569,0.13012 0.02812,0.25304 0.04119,0.38316 0.14254,1.68561 0.08893,3.46603 -0.38315,5.06992 -0.40604,1.38681 -1.139,2.67685 -2.04327,3.69031 -1.23904,1.3868 -2.84031,2.31919 -4.43635,3.04234 -0.884,0.3982 -1.83403,0.58193 -2.77623,0.68196 -0.57734,0.05885 -1.16777,0.10985 -1.7523,0.10462 z"
         inkscape:connector-curvature="0" />
    </clipPath>
    <clipPath
       id="clipPath3177"
       clipPathUnits="userSpaceOnUse">
      <path
         id="path3179"
         d="M 0,0 170,0 170,170 0,170 0,0 z"
         inkscape:connector-curvature="0" />
    </clipPath>
    <clipPath
       id="clipPath3077-5"
       clipPathUnits="userSpaceOnUse">
      <path
         inkscape:connector-curvature="0"
         id="path3079-1"
         clip-rule="evenodd"
         d="m 85,0 c 46.9442,0 85,38.0558 85,85 0,46.9442 -38.0558,85 -85,85 C 38.0558,170 0,131.9442 0,85 0,38.0558 38.0558,0 85,0 z" />
    </clipPath>
    <clipPath
       id="clipPath3083-8"
       clipPathUnits="userSpaceOnUse">
      <path
         inkscape:connector-curvature="0"
         id="path3085-6"
         d="M 0,0 170,0 170,170 0,170 0,0 z" />
    </clipPath>
    <clipPath
       id="clipPath3089-3"
       clipPathUnits="userSpaceOnUse">
      <path
         inkscape:connector-curvature="0"
         id="path3091-2"
         d="m -4,-21 181,0 0,195 -181,0 0,-195 z" />
    </clipPath>
    <clipPath
       id="clipPath3093-4"
       clipPathUnits="userSpaceOnUse">
      <path
         inkscape:connector-curvature="0"
         id="path3095-0"
         clip-rule="evenodd"
         d="m -3.269231,39.23077 179.807731,0 0,134.69233 -179.807731,0 0,-134.69233 z" />
    </clipPath>
    <clipPath
       id="clipPath3097-4"
       clipPathUnits="userSpaceOnUse">
      <path
         inkscape:connector-curvature="0"
         id="path3099-8"
         d="M 0,0 170,0 170,170 0,170 0,0 z" />
    </clipPath>
    <clipPath
       id="clipPath3101-6"
       clipPathUnits="userSpaceOnUse">
      <path
         inkscape:connector-curvature="0"
         id="path3103-3"
         clip-rule="evenodd"
         d="m -3.269231,43.15385 179.807731,0 0,-3.92308 -179.807731,0 0,3.92308 z" />
    </clipPath>
    <clipPath
       id="clipPath3105-4"
       clipPathUnits="userSpaceOnUse">
      <path
         inkscape:connector-curvature="0"
         id="path3107-4"
         d="M 0,0 170,0 170,170 0,170 0,0 z" />
    </clipPath>
    <clipPath
       id="clipPath3109-6"
       clipPathUnits="userSpaceOnUse">
      <path
         inkscape:connector-curvature="0"
         id="path3111-1"
         clip-rule="evenodd"
         d="m 105.1365,42.77178 c 10.4615,0.39362 -7.07004,-0.69961 3.3889,-0.0046 0.3884,5.3962 3.1672,9.31208 10.674,9.53439 5.9226,0.17588 11.9889,-3.46081 12.1596,-9.48339 1.392,0.051 3.9872,0.01766 3.9872,0.01766 l 0,-5.03658 -104.61543,0 0,5.03658 c 0,0 5.85911,-0.11769 8.77854,0.03073 5.99184,0.38838 11.77184,-0.41912 17.76892,0.15823 4.90385,0.13273 9.78415,-0.21708 14.66512,-0.22492 9.21007,0.29423 18.47115,-0.31385 27.67861,0.21707 1.83144,-0.153 3.67074,-0.44919 5.51454,-0.24519 z" />
    </clipPath>
    <clipPath
       id="clipPath3113-0"
       clipPathUnits="userSpaceOnUse">
      <path
         inkscape:connector-curvature="0"
         id="path3115-8"
         d="M 0,0 170,0 170,170 0,170 0,0 z" />
    </clipPath>
    <clipPath
       id="clipPath3117-5"
       clipPathUnits="userSpaceOnUse">
      <path
         inkscape:connector-curvature="0"
         id="path3119-0"
         clip-rule="evenodd"
         d="m 58.61142,87.61185 c -0.7055,0.01766 -1.50711,-0.03073 -2.08707,-0.14842 -0.43416,-0.08696 -0.97554,-0.442 -1.15927,-0.88858 -0.08435,-0.20204 -0.06408,-0.23538 -0.07193,-0.289 -0.01242,-0.23473 -0.01503,-0.34719 -0.01765,-0.47207 0,-0.24781 0.0078,-0.56493 0.01765,-0.91473 0.02093,-0.70224 0.05623,-1.53458 0.10527,-2.17339 0.051,-0.63358 0.05362,-4.48735 0.01766,-5.34061 -0.03073,-0.76108 -0.03073,-1.53981 0,-2.69712 0.01242,-0.43938 0.02288,-0.84281 0.0255,-1.13377 0.0026,-0.14581 0,-0.2635 0,-0.34 -0.01046,-0.17065 -0.0079,-0.19877 -0.0079,-0.22688 0,-0.06147 0.0052,-0.12554 0.0079,-0.20204 0.0078,-0.15562 0.02027,-0.36027 0.03596,-0.57473 0.04315,-0.58454 0.05361,-0.99843 0.0255,-2.31396 -0.0078,-0.44724 -0.02289,-0.85327 -0.03335,-1.15208 -0.0052,-0.14777 -0.01569,-0.27069 -0.01765,-0.34981 -0.01569,-0.153 -0.01569,-0.18635 -0.01831,-0.22492 -0.0072,-0.07912 -0.02027,-0.17589 -0.0255,-0.28835 -0.01242,-0.22492 -0.02288,-0.51588 -0.03531,-0.83038 -0.02615,-0.62573 -0.05427,-1.3175 -0.05165,-1.70066 0,-0.32954 0.0255,-1.00365 0.05165,-1.56334 0.02289,-0.52112 0.04054,-1.55027 0.04316,-2.24204 -0.05362,-1.26192 -0.0765,-2.78146 -0.0412,-3.66285 0.04643,-1.0115 -0.04315,-2.16815 -0.09415,-3.25157 -0.07388,-1.52477 -0.16869,-2.85535 -0.30404,-4.5717 -0.23996,-3.0188 -0.35504,-10.60211 -0.76369,-10.73223 -0.442,-0.14057 -0.61527,-0.0255 -1.13638,-0.06865 -0.289,-0.03073 -1.9975,-0.09481 -3.5785,-0.13339 -0.7892,-0.01765 -1.57316,-0.0353 -2.18908,-0.04315 -0.61789,-0.0052 -1.14881,0.01046 -1.13377,0.01046 -0.27069,0.02289 -0.61004,0.02027 -1.22335,0.0255 -0.60807,0.0052 -1.39204,0.0098 -2.20673,0.0072 -1.63461,0 -4.70965,0.01047 -6.83465,0.03597 -2.85077,0.03334 -5.17977,0.08696 -5.17977,0.08696 l 0,-5.23077 104.61543,0 0,5.13138 c 0,0 -6.122,-0.31188 -10.3034,-0.26807 l -2.4774,0.0255 c 0.3551,0.31646 0.7585,0.96507 1.1776,1.47115 0.391,0.47208 1.0292,1.088 1.5705,1.52673 0.2681,0.21773 0.6617,0.56754 0.9324,0.82777 0.2452,0.23538 0.6872,0.66169 0.986,0.94285 0.3086,0.29096 0.5336,0.51065 0.7179,0.76826 0.1812,0.25827 0.3139,0.61593 0.3139,0.92454 0,0.65123 -0.3322,1.18281 -0.9095,1.47639 -0.4237,0.21707 -1.0671,0.16607 -1.4659,-0.06146 -0.3191,-0.18635 -0.4342,-0.3217 -0.7225,-0.58454 -0.289,-0.26285 -0.6388,-0.60023 -1.022,-0.97816 -0.7689,-0.75388 -1.6575,-1.6575 -2.3395,-2.40092 -0.5008,-0.544 -0.7153,-0.76369 -0.9323,-0.99385 -0.003,0.2452 -0.005,0.50347 0.0333,0.77677 0.0589,0.4165 0.0817,1.14423 0.1046,2.19889 0.0334,1.428 0.0563,1.76473 0.1406,2.45192 0.087,0.69766 0.1353,0.97096 0.036,1.33581 -0.1125,0.40865 -0.3963,0.8075 -0.8481,0.99646 -0.2936,0.12227 -0.5008,0.11704 -0.7231,0.11181 -0.2243,-0.0046 -0.4316,-0.02027 -0.7075,-0.14777 -0.3648,-0.16869 -0.784,-0.65908 -0.8807,-1.12658 -0.0974,-0.4675 -0.0719,-0.93434 -0.0281,-1.66796 0.0588,-0.95723 0.0608,-1.23315 0,-2.93969 -0.0255,-0.77089 -0.008,-1.01869 0.0176,-1.32535 -0.3982,0.30666 -0.8552,0.66169 -1.0546,0.84543 -0.3708,0.34196 -0.8638,0.76107 -1.2672,1.08276 -0.1706,0.13797 -0.4413,0.32693 -0.733,0.52374 -0.2785,0.18896 -0.6178,0.4165 -0.748,0.50542 -0.391,0.26611 -0.8146,0.48058 -1.3286,0.46292 -0.5132,-0.01831 -0.95,-0.28638 -1.2815,-0.59304 -0.2459,-0.22688 -0.4727,-0.48515 -0.5774,-0.88073 -0.1026,-0.39884 0.0229,-0.85327 0.2014,-1.13704 0.2223,-0.3498 0.3832,-0.43677 0.6539,-0.65384 0.2733,-0.21708 0.6185,-0.46227 1.0141,-0.73296 0.4139,-0.28312 0.6872,-0.50804 1.3946,-1.14162 0.3244,-0.29096 0.7919,-0.66169 1.1521,-0.90885 0.2858,-0.19419 0.7049,-0.50607 0.8298,-0.61069 0.202,-0.17131 0.5106,-0.37007 0.5106,-0.37007 0,0 -0.61,0.09676 -0.85,0.1118 -1.0906,-0.0046 -1.3665,-0.16084 -2.2708,-0.13011 -7.3839,0.24257 -13.80727,0.29881 -22.52958,0.36027 0,0 0.03596,0.51588 0.051,1.0213 0.01766,0.5852 0.051,1.33581 0.07127,1.5967 0.02812,0.37792 0.03596,0.83234 0.01831,1.21288 -0.03073,0.61069 -0.0255,2.15312 0.0098,3.12146 0.01569,0.45181 0.05165,1.17496 0.07454,1.581 0.02027,0.35504 0.05623,0.81993 0.06865,0.9167 0.23538,1.78042 0.20923,6.97 -0.03335,8.82169 -0.02288,0.17654 -0.04577,0.34523 -0.07127,0.49038 -0.02288,0.14581 -0.0255,0.19158 -0.08696,0.39362 -0.10984,0.35504 -0.34196,0.71007 -0.67934,0.93238 -0.33935,0.22166 -0.7225,0.29881 -1.09323,0.29619 -0.45966,0 -1.54243,-0.12553 -1.90008,-0.55707 -0.35765,-0.43154 -0.40342,-0.91931 -0.41127,-1.41493 0.0079,-0.54138 0.01308,-1.03961 0.0255,-1.49142 0.051,-1.59669 -0.04838,-3.96884 -0.10462,-5.18238 -0.03596,-0.65123 -0.04576,-1.30508 -0.08696,-1.9537 -0.15038,-2.25053 -0.17588,-4.56188 -0.19942,-6.52342 0.0026,-1.09323 -0.06865,-2.29565 -0.11442,-3.32284 -0.53943,0.0255 -0.61331,0.0693 -1.16973,0.08696 -7.09293,-0.08435 -2.32443,0.0078 -8.74781,0.01307 -0.92192,0.0046 -1.73923,0.0327 -1.91839,0.05362 -1.28219,0.14515 -2.8985,0.21969 -4.75803,0.22688 -3.94597,0.0157 -6.6967,-0.03073 -8.06324,-0.14777 -1.09323,-0.0948 -1.09846,0.04054 -1.37438,0.04839 -0.44919,2.38785 -0.36485,4.59719 -0.34458,6.23704 0.03596,2.95277 -0.0255,3.49415 -0.03596,4.34677 -0.03334,2.85077 0.09742,5.52238 0.10462,7.01642 0.01307,1.66796 0.02811,2.24727 0.06146,2.50554 0.08696,0.65123 0.08434,1.94388 0.06146,3.75177 0,0.17392 0.01242,0.78657 0.02812,1.36131 0.04576,1.90269 0.06342,11.66723 0.0255,13.54442 -0.02027,0.94023 -0.051,5.97158 -0.06147,6.72742 -0.01242,0.77416 -0.0078,1.14946 -0.06865,1.51954 -0.03335,0.18438 -0.10004,0.41127 -0.25565,0.61069 -0.153,0.19943 -0.3217,0.29358 -0.40081,0.33935 -0.13535,0.08173 -0.3655,0.15365 -0.54139,0.17654 -0.17392,0.02027 -0.34,0.02811 -0.60023,0.03334 z" />
    </clipPath>
    <clipPath
       id="clipPath3121-3"
       clipPathUnits="userSpaceOnUse">
      <path
         inkscape:connector-curvature="0"
         id="path3123-9"
         d="M 0,0 170,0 170,170 0,170 0,0 z" />
    </clipPath>
    <clipPath
       id="clipPath3125-6"
       clipPathUnits="userSpaceOnUse">
      <path
         inkscape:connector-curvature="0"
         id="path3127-9"
         clip-rule="evenodd"
         d="m 63.19249,87.25307 c -2.36561,-0.63096 -4.84565,-0.83496 -7.27142,-0.64077 -2.36823,0.18896 -4.82473,0.5695 -6.94711,1.74969 -4.72012,2.62781 -9.32254,6.39527 -12.05039,11.41158 -1.15469,2.12953 -1.24623,4.80383 -1.46854,7.27663 -0.18634,2.0557 -0.24257,4.1657 0.11246,6.1933 0.5002,2.8605 1.36131,5.7368 2.7965,8.1783 1.14685,1.9491 2.771,3.5628 4.49258,4.896 2.29108,1.7725 4.85808,3.2489 7.57546,3.9721 2.53627,0.6767 5.22554,0.5132 7.82327,0.2576 2.12239,-0.2066 4.26504,-0.6029 6.25208,-1.4509 3.59615,-1.5398 7.19231,-3.5347 9.98161,-6.4875 2.03804,-2.1576 3.69097,-4.9038 4.60766,-7.8585 1.0625,-3.4151 1.17758,-7.2002 0.85327,-10.7937 -0.20989,-2.3264 -0.75127,-4.69202 -1.79089,-6.72745 -1.00627,-1.972 -2.4748,-3.70077 -4.148,-4.99865 -3.19992,-2.482 -7.02361,-3.96362 -10.81854,-4.97773 z" />
    </clipPath>
    <clipPath
       id="clipPath3129-7"
       clipPathUnits="userSpaceOnUse">
      <path
         inkscape:connector-curvature="0"
         id="path3131-8"
         d="M 0,0 170,0 170,170 0,170 0,0 z" />
    </clipPath>
    <clipPath
       id="clipPath3133-1"
       clipPathUnits="userSpaceOnUse">
      <path
         inkscape:connector-curvature="0"
         id="path3135-3"
         clip-rule="evenodd"
         d="m 87.52903,84.99963 c -0.58258,-0.0052 -1.16189,-0.06931 -1.72681,-0.22754 -1.20766,-0.33934 -2.34927,-1.03438 -3.366,-1.86411 -0.76631,-0.62573 -1.48685,-1.38223 -1.9975,-2.29631 -0.63619,-1.14685 -1.01673,-2.49508 -1.23839,-3.83873 -0.15888,-0.95004 -0.13338,-1.9465 -0.05165,-2.91158 0.03073,-0.34261 0.05885,-0.68719 0.08958,-1.037 -0.23997,-0.03335 -0.4747,-0.08435 -0.7127,-0.14842 -1.18477,-0.31385 -2.31134,-0.9605 -3.30977,-1.734 -0.75126,-0.58258 -1.4535,-1.28219 -1.95369,-2.13546 -0.62834,-1.06512 -1.00888,-2.3192 -1.22596,-3.56804 -0.15365,-0.88335 -0.13077,-1.80593 -0.04904,-2.70235 0.09743,-1.07754 0.13535,-2.24988 0.64143,-3.17965 1.19,-2.18908 3.1973,-3.8335 5.25626,-4.98035 0.92716,-0.51588 1.99947,-0.67934 3.03385,-0.76108 1.05792,-0.08696 2.14069,0 3.17246,0.27593 1.65489,0.442 2.97043,1.93342 4.72012,2.17338 0.53615,0.07389 1.64965,-0.99123 2.22177,-1.32273 0.92715,-0.51654 2.00273,-0.68 3.0345,-0.76173 1.05988,-0.08631 2.14004,0 3.1718,0.27592 1.65554,0.442 3.31831,1.09062 4.71231,2.17404 0.731,0.56427 1.3796,1.32012 1.819,2.18123 0.4518,0.88858 0.6865,1.92035 0.7787,2.93708 0.1406,1.56792 0.0896,3.22281 -0.3727,4.71227 -0.4008,1.28938 -1.124,2.48985 -2.0125,3.43269 -0.9403,0.99581 -2.0871,1.73662 -3.28496,2.33423 0.01569,0.13012 0.02812,0.25304 0.04119,0.38316 0.14254,1.68561 0.08893,3.46603 -0.38315,5.06992 -0.40604,1.38681 -1.139,2.67685 -2.04327,3.69031 -1.23904,1.3868 -2.84031,2.31919 -4.43635,3.04234 -0.884,0.3982 -1.83403,0.58193 -2.77623,0.68196 -0.57734,0.05885 -1.16777,0.10985 -1.7523,0.10462 z" />
    </clipPath>
    <clipPath
       id="clipPath3137-1"
       clipPathUnits="userSpaceOnUse">
      <path
         inkscape:connector-curvature="0"
         id="path3139-2"
         d="M 0,0 170,0 170,170 0,170 0,0 z" />
    </clipPath>
    <clipPath
       id="clipPath3141-8"
       clipPathUnits="userSpaceOnUse">
      <path
         inkscape:connector-curvature="0"
         id="path3143-5"
         clip-rule="evenodd"
         d="m -3.269231,39.23077 179.807731,0 0,-60.15385 -179.807731,0 0,60.15385 z" />
    </clipPath>
    <clipPath
       id="clipPath3145-2"
       clipPathUnits="userSpaceOnUse">
      <path
         inkscape:connector-curvature="0"
         id="path3147-6"
         d="M 0,0 170,0 170,170 0,170 0,0 z" />
    </clipPath>
    <clipPath
       id="clipPath3149-2"
       clipPathUnits="userSpaceOnUse">
      <path
         inkscape:connector-curvature="0"
         id="path3151-6"
         clip-rule="evenodd"
         d="m 105.1365,42.77178 c 10.4615,0.39362 -7.07004,-0.69961 3.3889,-0.0046 0.3884,5.3962 3.1672,9.31208 10.674,9.53439 5.9226,0.17588 11.9889,-3.46081 12.1596,-9.48339 1.392,0.051 3.9872,0.01766 3.9872,0.01766 l 0,-5.03658 -104.61543,0 0,5.03658 c 0,0 5.85911,-0.11769 8.77854,0.03073 5.99184,0.38838 11.77184,-0.41912 17.76892,0.15823 4.90385,0.13273 9.78415,-0.21708 14.66512,-0.22492 9.21007,0.29423 18.47115,-0.31385 27.67861,0.21707 1.83144,-0.153 3.67074,-0.44919 5.51454,-0.24519 z" />
    </clipPath>
    <clipPath
       id="clipPath3153-2"
       clipPathUnits="userSpaceOnUse">
      <path
         inkscape:connector-curvature="0"
         id="path3155-6"
         d="M 0,0 170,0 170,170 0,170 0,0 z" />
    </clipPath>
    <clipPath
       id="clipPath3157-7"
       clipPathUnits="userSpaceOnUse">
      <path
         inkscape:connector-curvature="0"
         id="path3159-5"
         clip-rule="evenodd"
         d="m 58.61142,87.61185 c -0.7055,0.01766 -1.50711,-0.03073 -2.08707,-0.14842 -0.43416,-0.08696 -0.97554,-0.442 -1.15927,-0.88858 -0.08435,-0.20204 -0.06408,-0.23538 -0.07193,-0.289 -0.01242,-0.23473 -0.01503,-0.34719 -0.01765,-0.47207 0,-0.24781 0.0078,-0.56493 0.01765,-0.91473 0.02093,-0.70224 0.05623,-1.53458 0.10527,-2.17339 0.051,-0.63358 0.05362,-4.48735 0.01766,-5.34061 -0.03073,-0.76108 -0.03073,-1.53981 0,-2.69712 0.01242,-0.43938 0.02288,-0.84281 0.0255,-1.13377 0.0026,-0.14581 0,-0.2635 0,-0.34 -0.01046,-0.17065 -0.0079,-0.19877 -0.0079,-0.22688 0,-0.06147 0.0052,-0.12554 0.0079,-0.20204 0.0078,-0.15562 0.02027,-0.36027 0.03596,-0.57473 0.04315,-0.58454 0.05361,-0.99843 0.0255,-2.31396 -0.0078,-0.44724 -0.02289,-0.85327 -0.03335,-1.15208 -0.0052,-0.14777 -0.01569,-0.27069 -0.01765,-0.34981 -0.01569,-0.153 -0.01569,-0.18635 -0.01831,-0.22492 -0.0072,-0.07912 -0.02027,-0.17589 -0.0255,-0.28835 -0.01242,-0.22492 -0.02288,-0.51588 -0.03531,-0.83038 -0.02615,-0.62573 -0.05427,-1.3175 -0.05165,-1.70066 0,-0.32954 0.0255,-1.00365 0.05165,-1.56334 0.02289,-0.52112 0.04054,-1.55027 0.04316,-2.24204 -0.05362,-1.26192 -0.0765,-2.78146 -0.0412,-3.66285 0.04643,-1.0115 -0.04315,-2.16815 -0.09415,-3.25157 -0.07388,-1.52477 -0.16869,-2.85535 -0.30404,-4.5717 -0.23996,-3.0188 -0.35504,-10.60211 -0.76369,-10.73223 -0.442,-0.14057 -0.61527,-0.0255 -1.13638,-0.06865 -0.289,-0.03073 -1.9975,-0.09481 -3.5785,-0.13339 -0.7892,-0.01765 -1.57316,-0.0353 -2.18908,-0.04315 -0.61789,-0.0052 -1.14881,0.01046 -1.13377,0.01046 -0.27069,0.02289 -0.61004,0.02027 -1.22335,0.0255 -0.60807,0.0052 -1.39204,0.0098 -2.20673,0.0072 -1.63461,0 -4.70965,0.01047 -6.83465,0.03597 -2.85077,0.03334 -5.17977,0.08696 -5.17977,0.08696 l 0,-5.23077 104.61543,0 0,5.13138 c 0,0 -6.122,-0.31188 -10.3034,-0.26807 l -2.4774,0.0255 c 0.3551,0.31646 0.7585,0.96507 1.1776,1.47115 0.391,0.47208 1.0292,1.088 1.5705,1.52673 0.2681,0.21773 0.6617,0.56754 0.9324,0.82777 0.2452,0.23538 0.6872,0.66169 0.986,0.94285 0.3086,0.29096 0.5336,0.51065 0.7179,0.76826 0.1812,0.25827 0.3139,0.61593 0.3139,0.92454 0,0.65123 -0.3322,1.18281 -0.9095,1.47639 -0.4237,0.21707 -1.0671,0.16607 -1.4659,-0.06146 -0.3191,-0.18635 -0.4342,-0.3217 -0.7225,-0.58454 -0.289,-0.26285 -0.6388,-0.60023 -1.022,-0.97816 -0.7689,-0.75388 -1.6575,-1.6575 -2.3395,-2.40092 -0.5008,-0.544 -0.7153,-0.76369 -0.9323,-0.99385 -0.003,0.2452 -0.005,0.50347 0.0333,0.77677 0.0589,0.4165 0.0817,1.14423 0.1046,2.19889 0.0334,1.428 0.0563,1.76473 0.1406,2.45192 0.087,0.69766 0.1353,0.97096 0.036,1.33581 -0.1125,0.40865 -0.3963,0.8075 -0.8481,0.99646 -0.2936,0.12227 -0.5008,0.11704 -0.7231,0.11181 -0.2243,-0.0046 -0.4316,-0.02027 -0.7075,-0.14777 -0.3648,-0.16869 -0.784,-0.65908 -0.8807,-1.12658 -0.0974,-0.4675 -0.0719,-0.93434 -0.0281,-1.66796 0.0588,-0.95723 0.0608,-1.23315 0,-2.93969 -0.0255,-0.77089 -0.008,-1.01869 0.0176,-1.32535 -0.3982,0.30666 -0.8552,0.66169 -1.0546,0.84543 -0.3708,0.34196 -0.8638,0.76107 -1.2672,1.08276 -0.1706,0.13797 -0.4413,0.32693 -0.733,0.52374 -0.2785,0.18896 -0.6178,0.4165 -0.748,0.50542 -0.391,0.26611 -0.8146,0.48058 -1.3286,0.46292 -0.5132,-0.01831 -0.95,-0.28638 -1.2815,-0.59304 -0.2459,-0.22688 -0.4727,-0.48515 -0.5774,-0.88073 -0.1026,-0.39884 0.0229,-0.85327 0.2014,-1.13704 0.2223,-0.3498 0.3832,-0.43677 0.6539,-0.65384 0.2733,-0.21708 0.6185,-0.46227 1.0141,-0.73296 0.4139,-0.28312 0.6872,-0.50804 1.3946,-1.14162 0.3244,-0.29096 0.7919,-0.66169 1.1521,-0.90885 0.2858,-0.19419 0.7049,-0.50607 0.8298,-0.61069 0.202,-0.17131 0.5106,-0.37007 0.5106,-0.37007 0,0 -0.61,0.09676 -0.85,0.1118 -1.0906,-0.0046 -1.3665,-0.16084 -2.2708,-0.13011 -7.3839,0.24257 -13.80727,0.29881 -22.52958,0.36027 0,0 0.03596,0.51588 0.051,1.0213 0.01766,0.5852 0.051,1.33581 0.07127,1.5967 0.02812,0.37792 0.03596,0.83234 0.01831,1.21288 -0.03073,0.61069 -0.0255,2.15312 0.0098,3.12146 0.01569,0.45181 0.05165,1.17496 0.07454,1.581 0.02027,0.35504 0.05623,0.81993 0.06865,0.9167 0.23538,1.78042 0.20923,6.97 -0.03335,8.82169 -0.02288,0.17654 -0.04577,0.34523 -0.07127,0.49038 -0.02288,0.14581 -0.0255,0.19158 -0.08696,0.39362 -0.10984,0.35504 -0.34196,0.71007 -0.67934,0.93238 -0.33935,0.22166 -0.7225,0.29881 -1.09323,0.29619 -0.45966,0 -1.54243,-0.12553 -1.90008,-0.55707 -0.35765,-0.43154 -0.40342,-0.91931 -0.41127,-1.41493 0.0079,-0.54138 0.01308,-1.03961 0.0255,-1.49142 0.051,-1.59669 -0.04838,-3.96884 -0.10462,-5.18238 -0.03596,-0.65123 -0.04576,-1.30508 -0.08696,-1.9537 -0.15038,-2.25053 -0.17588,-4.56188 -0.19942,-6.52342 0.0026,-1.09323 -0.06865,-2.29565 -0.11442,-3.32284 -0.53943,0.0255 -0.61331,0.0693 -1.16973,0.08696 -7.09293,-0.08435 -2.32443,0.0078 -8.74781,0.01307 -0.92192,0.0046 -1.73923,0.0327 -1.91839,0.05362 -1.28219,0.14515 -2.8985,0.21969 -4.75803,0.22688 -3.94597,0.0157 -6.6967,-0.03073 -8.06324,-0.14777 -1.09323,-0.0948 -1.09846,0.04054 -1.37438,0.04839 -0.44919,2.38785 -0.36485,4.59719 -0.34458,6.23704 0.03596,2.95277 -0.0255,3.49415 -0.03596,4.34677 -0.03334,2.85077 0.09742,5.52238 0.10462,7.01642 0.01307,1.66796 0.02811,2.24727 0.06146,2.50554 0.08696,0.65123 0.08434,1.94388 0.06146,3.75177 0,0.17392 0.01242,0.78657 0.02812,1.36131 0.04576,1.90269 0.06342,11.66723 0.0255,13.54442 -0.02027,0.94023 -0.051,5.97158 -0.06147,6.72742 -0.01242,0.77416 -0.0078,1.14946 -0.06865,1.51954 -0.03335,0.18438 -0.10004,0.41127 -0.25565,0.61069 -0.153,0.19943 -0.3217,0.29358 -0.40081,0.33935 -0.13535,0.08173 -0.3655,0.15365 -0.54139,0.17654 -0.17392,0.02027 -0.34,0.02811 -0.60023,0.03334 z" />
    </clipPath>
    <clipPath
       id="clipPath3161-4"
       clipPathUnits="userSpaceOnUse">
      <path
         inkscape:connector-curvature="0"
         id="path3163-6"
         d="M 0,0 170,0 170,170 0,170 0,0 z" />
    </clipPath>
    <clipPath
       id="clipPath3165-7"
       clipPathUnits="userSpaceOnUse">
      <path
         inkscape:connector-curvature="0"
         id="path3167-7"
         clip-rule="evenodd"
         d="m 63.19249,87.25307 c -2.36561,-0.63096 -4.84565,-0.83496 -7.27142,-0.64077 -2.36823,0.18896 -4.82473,0.5695 -6.94711,1.74969 -4.72012,2.62781 -9.32254,6.39527 -12.05039,11.41158 -1.15469,2.12953 -1.24623,4.80383 -1.46854,7.27663 -0.18634,2.0557 -0.24257,4.1657 0.11246,6.1933 0.5002,2.8605 1.36131,5.7368 2.7965,8.1783 1.14685,1.9491 2.771,3.5628 4.49258,4.896 2.29108,1.7725 4.85808,3.2489 7.57546,3.9721 2.53627,0.6767 5.22554,0.5132 7.82327,0.2576 2.12239,-0.2066 4.26504,-0.6029 6.25208,-1.4509 3.59615,-1.5398 7.19231,-3.5347 9.98161,-6.4875 2.03804,-2.1576 3.69097,-4.9038 4.60766,-7.8585 1.0625,-3.4151 1.17758,-7.2002 0.85327,-10.7937 -0.20989,-2.3264 -0.75127,-4.69202 -1.79089,-6.72745 -1.00627,-1.972 -2.4748,-3.70077 -4.148,-4.99865 -3.19992,-2.482 -7.02361,-3.96362 -10.81854,-4.97773 z" />
    </clipPath>
    <clipPath
       id="clipPath3169-1"
       clipPathUnits="userSpaceOnUse">
      <path
         inkscape:connector-curvature="0"
         id="path3171-1"
         d="M 0,0 170,0 170,170 0,170 0,0 z" />
    </clipPath>
    <clipPath
       id="clipPath3173-7"
       clipPathUnits="userSpaceOnUse">
      <path
         inkscape:connector-curvature="0"
         id="path3175-6"
         clip-rule="evenodd"
         d="m 87.52903,84.99963 c -0.58258,-0.0052 -1.16189,-0.06931 -1.72681,-0.22754 -1.20766,-0.33934 -2.34927,-1.03438 -3.366,-1.86411 -0.76631,-0.62573 -1.48685,-1.38223 -1.9975,-2.29631 -0.63619,-1.14685 -1.01673,-2.49508 -1.23839,-3.83873 -0.15888,-0.95004 -0.13338,-1.9465 -0.05165,-2.91158 0.03073,-0.34261 0.05885,-0.68719 0.08958,-1.037 -0.23997,-0.03335 -0.4747,-0.08435 -0.7127,-0.14842 -1.18477,-0.31385 -2.31134,-0.9605 -3.30977,-1.734 -0.75126,-0.58258 -1.4535,-1.28219 -1.95369,-2.13546 -0.62834,-1.06512 -1.00888,-2.3192 -1.22596,-3.56804 -0.15365,-0.88335 -0.13077,-1.80593 -0.04904,-2.70235 0.09743,-1.07754 0.13535,-2.24988 0.64143,-3.17965 1.19,-2.18908 3.1973,-3.8335 5.25626,-4.98035 0.92716,-0.51588 1.99947,-0.67934 3.03385,-0.76108 1.05792,-0.08696 2.14069,0 3.17246,0.27593 1.65489,0.442 2.97043,1.93342 4.72012,2.17338 0.53615,0.07389 1.64965,-0.99123 2.22177,-1.32273 0.92715,-0.51654 2.00273,-0.68 3.0345,-0.76173 1.05988,-0.08631 2.14004,0 3.1718,0.27592 1.65554,0.442 3.31831,1.09062 4.71231,2.17404 0.731,0.56427 1.3796,1.32012 1.819,2.18123 0.4518,0.88858 0.6865,1.92035 0.7787,2.93708 0.1406,1.56792 0.0896,3.22281 -0.3727,4.71227 -0.4008,1.28938 -1.124,2.48985 -2.0125,3.43269 -0.9403,0.99581 -2.0871,1.73662 -3.28496,2.33423 0.01569,0.13012 0.02812,0.25304 0.04119,0.38316 0.14254,1.68561 0.08893,3.46603 -0.38315,5.06992 -0.40604,1.38681 -1.139,2.67685 -2.04327,3.69031 -1.23904,1.3868 -2.84031,2.31919 -4.43635,3.04234 -0.884,0.3982 -1.83403,0.58193 -2.77623,0.68196 -0.57734,0.05885 -1.16777,0.10985 -1.7523,0.10462 z" />
    </clipPath>
    <clipPath
       id="clipPath3177-7"
       clipPathUnits="userSpaceOnUse">
      <path
         inkscape:connector-curvature="0"
         id="path3179-9"
         d="M 0,0 170,0 170,170 0,170 0,0 z" />
    </clipPath>
  </defs>
  <sodipodi:namedview
     id="base"
     pagecolor="#ffffff"
     bordercolor="#666666"
     borderopacity="1.0"
     inkscape:pageopacity="0.0"
     inkscape:pageshadow="2"
     inkscape:zoom="3.9666667"
     inkscape:cx="69.831933"
     inkscape:cy="110.16807"
     inkscape:document-units="px"
     inkscape:current-layer="layer1"
     showgrid="false"
     inkscape:window-width="1440"
     inkscape:window-height="855"
     inkscape:window-x="0"
     inkscape:window-y="23"
     inkscape:window-maximized="0"
     showguides="true"
     inkscape:guide-bbox="true"
     inkscape:snap-global="true"
     fit-margin-top="0"
     fit-margin-left="0"
     fit-margin-right="0"
     fit-margin-bottom="0">
    <inkscape:grid
       type="xygrid"
       id="grid3723"
       empspacing="5"
       visible="true"
       enabled="true"
       snapvisiblegridlinesonly="true"
       originx="0px"
       originy="0px" />
  </sodipodi:namedview>
  <metadata
     id="metadata7">
    <rdf:RDF>
      <cc:Work
         rdf:about="">
        <dc:format>image/svg+xml</dc:format>
        <dc:type
           rdf:resource="http://purl.org/dc/dcmitype/StillImage" />
        <dc:title></dc:title>
      </cc:Work>
    </rdf:RDF>
  </metadata>
  <g
     inkscape:label="Layer 1"
     inkscape:groupmode="layer"
     id="layer1"
     style="display:inline"
     transform="translate(-101.38421,-126.23982)">
    <path
       style="color:#000000;fill:#d2e0af;fill-opacity:1;fill-rule:evenodd;stroke:none;stroke-width:40;marker:none;visibility:visible;display:inline;overflow:visible;enable-background:accumulate"
       d="M 0 0 L 0 152.9375 L 180 152.9375 L 180 0 L 0 0 z "
       transform="translate(101.38421,126.23982)"
       id="rect4676" />
    <path
       style="color:#000000;fill:#6e9c2a;fill-opacity:1;fill-rule:evenodd;stroke:none;stroke-width:40;marker:none;visibility:visible;display:inline;overflow:visible;enable-background:accumulate"
       d="M 141.28125 135.5625 C 130.29705 135.88794 126.1972 141.58986 125.59375 149.46875 C 125.59055 149.51058 125.59676 149.5518 125.59375 149.59375 C 123.7179 149.718 123.89486 149.69513 123.09375 149.75 C 124.32048 149.65466 125.44845 149.5252 125.59375 149.46875 C 125.49837 149.42309 124.27636 149.45464 120.59375 149.59375 C 117.88369 149.89289 115.1645 149.44266 112.46875 149.21875 C 98.9232 150.00031 85.32896 149.09777 71.78125 149.53125 C 64.59796 149.51926 57.39998 149.02382 50.1875 149.21875 C 41.36455 150.06821 32.87566 148.86579 24.0625 149.4375 C 19.76549 149.6553 10.59375 149.5 10.59375 149.5 L 0 149.5 L 0 156.8125 C 4.6844633 156.84183 11.125 156.90625 11.125 156.90625 L 165.21875 156.90625 L 180 156.90625 L 180 149.5 L 165.25 149.5 C 165.25 149.5 161.20479 149.4219 159.15625 149.5 C 158.9048 140.63602 149.99477 135.30434 141.28125 135.5625 z "
       transform="translate(101.38421,126.23982)"
       id="rect4651" />
    <path
       style="font-size:medium;font-style:normal;font-variant:normal;font-weight:normal;font-stretch:normal;text-indent:0;text-align:start;text-decoration:none;line-height:normal;letter-spacing:normal;word-spacing:normal;text-transform:none;direction:ltr;block-progression:tb;writing-mode:lr-tb;text-anchor:start;baseline-shift:baseline;color:#000000;fill:#555632;fill-opacity:1;fill-rule:nonzero;stroke:none;stroke-width:6.19999981;marker:none;visibility:visible;display:inline;overflow:visible;enable-background:accumulate;font-family:Sans;-inkscape-font-specification:Sans"
       d="M 52.15625 83.84375 C 51.12028 83.81915 49.94481 83.88887 49.09375 84.0625 C 48.45342 84.19283 47.64839 84.71458 47.375 85.375 C 47.25273 85.67024 47.29015 85.70282 47.28125 85.78125 C 47.27225 85.85965 47.2529 85.92985 47.25 86 C 47.243 86.14031 47.2506 86.28578 47.25 86.46875 C 47.24918 86.83466 47.26665 87.32688 47.28125 87.84375 C 47.31155 88.87747 47.36554 90.09191 47.4375 91.03125 C 47.5103 91.96392 47.4887 97.65144 47.4375 98.90625 C 47.3925 100.0239 47.3936 101.14267 47.4375 102.84375 C 47.4542 103.49066 47.4943 104.10146 47.5 104.53125 C 47.503 104.74615 47.50035 104.91832 47.5 105.03125 C 47.4999 105.06255 47.50028 105.07375 47.5 105.09375 C 47.49958 105.10075 47.50036 105.1204 47.5 105.125 C 47.49989 105.13 47.50007 105.15375 47.5 105.15625 C 47.498 105.18225 47.46955 105.20085 47.46875 105.21875 C 47.46675 105.27795 47.46834 105.33093 47.46875 105.375 C 47.46975 105.4631 47.4951 105.54224 47.5 105.65625 C 47.511 105.88423 47.50755 106.18281 47.53125 106.5 C 47.59625 107.35833 47.63385 107.97168 47.59375 109.90625 C 47.58035 110.56421 47.54645 111.15506 47.53125 111.59375 C 47.52325 111.81311 47.506 112.00956 47.5 112.125 C 47.499 112.1506 47.501 112.13765 47.5 112.15625 C 47.498 112.17165 47.501 112.21095 47.5 112.21875 C 47.49984 112.22075 47.50011 112.2486 47.5 112.25 C 47.498 112.2662 47.5018 112.26765 47.5 112.28125 C 47.492 112.34165 47.47365 112.38044 47.46875 112.4375 C 47.45875 112.55173 47.4471 112.7104 47.4375 112.875 C 47.4184 113.20423 47.394 113.63253 47.375 114.09375 C 47.337 115.01624 47.3123 116.02807 47.3125 116.59375 C 47.3125 117.08028 47.338 118.08623 47.375 118.90625 C 47.4095 119.67292 47.4351 121.1697 47.4375 122.1875 C 47.3582 124.04424 47.32401 126.29503 47.375 127.59375 C 47.4424 129.08023 47.32586 130.78141 47.25 132.375 C 47.14302 134.62047 47.01256 136.56818 46.8125 139.09375 C 46.46065 143.53537 46.28871 154.71323 45.6875 154.90625 C 45.04072 155.11392 44.76546 154.93495 44 155 C 43.57544 155.0438 41.07538 155.13098 38.75 155.1875 C 37.58729 155.2158 36.43854 155.2403 35.53125 155.25 C 34.62397 155.26 33.82273 155.2481 33.84375 155.25 C 33.44548 155.2137 32.96236 155.22725 32.0625 155.21875 C 31.16617 155.20975 30.01005 155.1856 28.8125 155.1875 C 26.42224 155.18745 21.87467 155.19385 18.75 155.15625 C 16.775183 155.13265 8.1728128 155.08718 0 155.0625 L 0 180 L 180 180 L 180 155.28125 C 167.01833 155.43294 153.17756 155.59738 149.875 155.5625 L 146.21875 155.53125 C 146.74271 155.06751 147.3517 154.08834 147.96875 153.34375 C 148.54437 152.64913 149.48501 151.7403 150.28125 151.09375 C 150.67818 150.7715 151.25539 150.25905 151.65625 149.875 C 152.01506 149.53122 152.65356 148.9136 153.09375 148.5 C 153.54705 148.07411 153.88818 147.75521 154.15625 147.375 C 154.42431 146.99479 154.625 146.45706 154.625 146 C 154.625 145.04337 154.12859 144.27607 153.28125 143.84375 C 152.65489 143.52402 151.70894 143.60204 151.125 143.9375 C 150.65313 144.20918 150.48654 144.39341 150.0625 144.78125 C 149.63848 145.16909 149.12771 145.6645 148.5625 146.21875 C 147.43209 147.32724 146.12722 148.65719 145.125 149.75 C 144.38768 150.55395 144.071 150.8814 143.75 151.21875 C 143.747 150.85706 143.72585 150.4974 143.78125 150.09375 C 143.86545 149.47983 143.90208 148.39688 143.9375 146.84375 C 143.9858 144.7436 144.03195 144.26059 144.15625 143.25 C 144.28243 142.22358 144.33605 141.82019 144.1875 141.28125 C 144.02212 140.68133 143.63126 140.08939 142.96875 139.8125 C 142.53748 139.6322 142.20227 139.61629 141.875 139.625 C 141.54773 139.634 141.25047 139.65692 140.84375 139.84375 C 140.30682 140.09046 139.70472 140.81253 139.5625 141.5 C 139.42028 142.18747 139.43427 142.89191 139.5 143.96875 C 139.5862 145.3811 139.5877 145.77204 139.5 148.28125 C 139.4602 149.41536 139.49295 149.79663 139.53125 150.25 C 138.94357 149.79936 138.29378 149.27158 138 149 C 137.45754 148.49847 136.71599 147.87774 136.125 147.40625 C 135.87093 147.20358 135.48834 146.91483 135.0625 146.625 C 134.65259 146.34602 134.13208 146.03874 133.9375 145.90625 C 133.36482 145.51651 132.75435 145.19404 132 145.21875 C 131.24565 145.24345 130.58188 145.64138 130.09375 146.09375 C 129.7335 146.42744 129.40325 146.78983 129.25 147.375 C 129.09675 147.96017 129.29824 148.64546 129.5625 149.0625 C 129.88986 149.57881 130.0998 149.71057 130.5 150.03125 C 130.9002 150.35194 131.41845 150.69548 132 151.09375 C 132.61127 151.51247 133.02004 151.84837 134.0625 152.78125 C 134.53965 153.20828 135.21937 153.76145 135.75 154.125 C 136.17008 154.41287 136.78582 154.84498 136.96875 155 C 137.26425 155.2505 137.71875 155.5625 137.71875 155.5625 C 137.71875 155.5625 136.82327 155.43044 136.46875 155.40625 C 134.86674 155.41525 134.45502 155.63757 133.125 155.59375 C 122.26309 155.236 112.832 155.15109 100 155.0625 C 100 155.0625 100.0392 154.30633 100.0625 153.5625 C 100.0891 152.70142 100.12616 151.5697 100.15625 151.1875 C 100.19995 150.6328 100.215 149.96633 100.1875 149.40625 C 100.1432 148.50833 100.16615 146.23518 100.21875 144.8125 C 100.24335 144.14571 100.27937 143.09837 100.3125 142.5 C 100.3415 141.98004 100.4189 141.2986 100.4375 141.15625 C 100.78243 138.53477 100.73375 130.8829 100.375 128.15625 C 100.3411 127.89765 100.31654 127.65181 100.28125 127.4375 C 100.24595 127.22318 100.24753 127.16913 100.15625 126.875 C 99.99345 126.35127 99.62208 125.82667 99.125 125.5 C 98.62792 125.17335 98.07442 125.06102 97.53125 125.0625 C 96.85351 125.0625 95.27589 125.23981 94.75 125.875 C 94.22411 126.5102 94.13478 127.23818 94.125 127.96875 C 94.134 128.76761 94.1674 129.48991 94.1875 130.15625 C 94.2601 132.50485 94.1132 135.99807 94.03125 137.78125 C 93.97775 138.73994 93.93667 139.69987 93.875 140.65625 C 93.6544 143.9672 93.62938 147.36497 93.59375 150.25 C 93.59775 151.8591 93.50498 153.64445 93.4375 155.15625 C 92.64391 155.11755 92.53804 155.05824 91.71875 155.03125 C 81.28357 155.15433 88.29247 155.0076 78.84375 155 C 77.48805 154.995 76.26479 154.93645 76 154.90625 C 74.1141 154.69169 71.76384 154.60424 69.03125 154.59375 C 63.2246 154.57155 59.16639 154.63916 57.15625 154.8125 C 55.54587 154.95155 55.53095 154.73065 55.125 154.71875 C 54.4668 151.20263 54.59566 147.97737 54.625 145.5625 C 54.6768 141.22029 54.5772 140.41025 54.5625 139.15625 C 54.5137 134.96201 54.70431 131.01174 54.71875 128.8125 C 54.73515 126.35674 54.7623 125.53644 54.8125 125.15625 C 54.81268 125.15525 54.81233 125.1264 54.8125 125.125 C 54.93866 124.17951 54.93996 122.28785 54.90625 119.625 C 54.9061 119.6126 54.90642 119.60615 54.90625 119.59375 C 54.90655 119.36477 54.9167 118.4707 54.9375 117.625 C 55.0058 114.82295 55.059 100.44959 55 97.6875 C 54.9705 96.30357 54.92275 88.89611 54.90625 87.78125 C 54.88975 86.64484 54.87295 86.07651 54.78125 85.53125 C 54.73515 85.25863 54.66321 84.94819 54.4375 84.65625 C 54.21179 84.36431 53.95806 84.22339 53.84375 84.15625 C 53.64332 84.03858 53.28893 83.90741 53.03125 83.875 C 52.77357 83.8426 52.54208 83.85285 52.15625 83.84375 z "
       transform="translate(101.38421,126.23982)"
       id="path3903" />
    <path
       style="color:#000000;fill:#6e9c2a;fill-opacity:1;fill-rule:nonzero;stroke:none;marker:none;visibility:visible;display:inline;overflow:visible;enable-background:accumulate"
       d="m 160.62935,211.06055 c -3.47737,0.92889 -7.12879,1.22826 -10.69612,0.94266 -3.48428,-0.27899 -7.09738,-0.83679 -10.22008,-2.57547 -6.94318,-3.86589 -13.71463,-9.4092 -17.72477,-16.79499 -1.70095,-3.13279 -1.83412,-7.06819 -2.16356,-10.70788 -0.27365,-3.02317 -0.35382,-6.13049 0.16717,-9.11332 0.73575,-4.21251 2.00081,-8.44257 4.11394,-12.03532 1.68815,-2.87017 4.07501,-5.24601 6.60743,-7.20692 3.36997,-2.60944 7.14895,-4.78243 11.14405,-5.84694 3.73263,-0.99458 7.68716,-0.75473 11.51079,-0.37862 3.11924,0.30683 6.27331,0.88611 9.19507,2.13704 5.29259,2.26597 10.58053,5.20016 14.68498,9.54741 2.9973,3.17461 5.42715,7.21697 6.77779,11.56488 1.56079,5.02438 1.73016,10.59527 1.25329,15.88368 -0.30875,3.42404 -1.10334,6.90766 -2.63164,9.90135 -1.48083,2.9007 -3.64178,5.44791 -6.1037,7.3572 -4.70791,3.65113 -10.3313,5.83379 -15.91464,7.32524 z"
       id="path3976"
       inkscape:connector-curvature="0"
       sodipodi:nodetypes="aaaaaaaaaaaaaaaaa" />
    <path
       style="color:#000000;fill:#6e9c2a;fill-opacity:1;stroke:none;stroke-width:0.48244843;marker:none;visibility:visible;display:inline;overflow:visible;enable-background:accumulate"
       d="m 196.84988,214.09399 c -0.85888,0.008 -1.71256,0.10087 -2.54174,0.33428 -1.77499,0.49966 -3.45499,1.52096 -4.95223,2.7458 -1.12513,0.92044 -2.18551,2.03133 -2.93553,3.37857 -0.93885,1.68639 -1.49887,3.66953 -1.82577,5.64685 -0.23146,1.4001 -0.19317,2.86681 -0.0716,4.28586 0.0432,0.50483 0.083,1.01234 0.13127,1.52811 -0.35592,0.0483 -0.70154,0.12197 -1.05011,0.21488 -1.74293,0.46466 -3.3985,1.41584 -4.86869,2.55482 -1.1048,0.8559 -2.1394,1.88699 -2.87587,3.13978 -0.92189,1.56818 -1.48091,3.41418 -1.80189,5.25288 -0.22729,1.30195 -0.19098,2.65589 -0.0716,3.97547 0.14372,1.58866 0.20065,3.31243 0.9427,4.67984 1.74948,3.22378 4.70359,5.64273 7.73263,7.33014 1.36232,0.75892 2.94291,1.00044 4.46298,1.12221 1.55629,0.12467 3.14878,-3.8e-4 4.66582,-0.40591 2.4358,-0.65099 4.36987,-2.8466 6.94505,-3.19948 0.78866,-0.10802 2.42475,1.45855 3.26966,1.94596 1.36232,0.7589 2.94291,1.00044 4.46297,1.1222 1.55628,0.12467 3.14878,-3.8e-4 4.66583,-0.4059 2.43581,-0.65099 4.87923,-1.60581 6.93312,-3.19948 1.07404,-0.83337 2.02698,-1.9453 2.67301,-3.21142 0.66674,-1.30669 1.01088,-2.82714 1.14557,-4.32168 0.20804,-2.30831 0.132,-4.74311 -0.54892,-6.93618 -0.58923,-1.8978 -1.65179,-3.66426 -2.9594,-5.04993 -1.38299,-1.46554 -3.07088,-2.55876 -4.8329,-3.43825 0.0223,-0.18932 0.0435,-0.37213 0.0597,-0.5611 0.21187,-2.48233 0.13259,-5.10308 -0.56085,-7.46147 -0.60008,-2.04086 -1.67546,-3.94182 -3.00714,-5.43194 -1.82356,-2.04056 -4.17594,-3.41326 -6.52738,-4.47689 -1.29811,-0.58717 -2.69527,-0.8588 -4.08111,-1.00282 -0.84941,-0.0883 -1.71867,-0.16334 -2.57755,-0.1552 z"
       id="path3976-6"
       inkscape:connector-curvature="0"
       sodipodi:nodetypes="sssssscsssssssssscssssssscssssss" />
  </g>
</svg>
