<?xml version="1.0" encoding="UTF-8" standalone="no"?>
<!-- Created with Inkscape (http://www.inkscape.org/) -->

<svg
   xmlns:dc="http://purl.org/dc/elements/1.1/"
   xmlns:cc="http://creativecommons.org/ns#"
   xmlns:rdf="http://www.w3.org/1999/02/22-rdf-syntax-ns#"
   xmlns:svg="http://www.w3.org/2000/svg"
   xmlns="http://www.w3.org/2000/svg"
   xmlns:sodipodi="http://sodipodi.sourceforge.net/DTD/sodipodi-0.dtd"
   xmlns:inkscape="http://www.inkscape.org/namespaces/inkscape"
   width="180"
   height="180"
   id="svg2"
   version="1.1"
   inkscape:version="0.48.4 r9943 custom"
   sodipodi:docname="favicon.svg"
   inkscape:export-filename="/Users/growdigital/Sites/forestgarden.wales/themes/gofgw/src/04-components/graphics/logo/logo.png"
   inkscape:export-xdpi="98.959999"
   inkscape:export-ydpi="98.959999">
  <defs
     id="defs4">
    <clipPath
       id="clipPath3077"
       clipPathUnits="userSpaceOnUse">
      <path
         id="path3079"
         clip-rule="evenodd"
         d="m 85,0 c 46.9442,0 85,38.0558 85,85 0,46.9442 -38.0558,85 -85,85 C 38.0558,170 0,131.9442 0,85 0,38.0558 38.0558,0 85,0 z"
         inkscape:connector-curvature="0" />
    </clipPath>
    <clipPath
       id="clipPath3083"
       clipPathUnits="userSpaceOnUse">
      <path
         id="path3085"
         d="M 0,0 170,0 170,170 0,170 0,0 z"
         inkscape:connector-curvature="0" />
    </clipPath>
    <clipPath
       id="clipPath3089"
       clipPathUnits="userSpaceOnUse">
      <path
         id="path3091"
         d="m -4,-21 181,0 0,195 -181,0 0,-195 z"
         inkscape:connector-curvature="0" />
    </clipPath>
    <clipPath
       id="clipPath3093"
       clipPathUnits="userSpaceOnUse">
      <path
         id="path3095"
         clip-rule="evenodd"
         d="m -3.269231,39.23077 179.807731,0 0,134.69233 -179.807731,0 0,-134.69233 z"
         inkscape:connector-curvature="0" />
    </clipPath>
    <clipPath
       id="clipPath3097"
       clipPathUnits="userSpaceOnUse">
      <path
         id="path3099"
         d="M 0,0 170,0 170,170 0,170 0,0 z"
         inkscape:connector-curvature="0" />
    </clipPath>
    <clipPath
       id="clipPath3101"
       clipPathUnits="userSpaceOnUse">
      <path
         id="path3103"
         clip-rule="evenodd"
         d="m -3.269231,43.15385 179.807731,0 0,-3.92308 -179.807731,0 0,3.92308 z"
         inkscape:connector-curvature="0" />
    </clipPath>
    <clipPath
       id="clipPath3105"
       clipPathUnits="userSpaceOnUse">
      <path
         id="path3107"
         d="M 0,0 170,0 170,170 0,170 0,0 z"
         inkscape:connector-curvature="0" />
    </clipPath>
    <clipPath
       id="clipPath3109"
       clipPathUnits="userSpaceOnUse">
      <path
         id="path3111"
         clip-rule="evenodd"
         d="m 105.1365,42.77178 c 10.4615,0.39362 -7.07004,-0.69961 3.3889,-0.0046 0.3884,5.3962 3.1672,9.31208 10.674,9.53439 5.9226,0.17588 11.9889,-3.46081 12.1596,-9.48339 1.392,0.051 3.9872,0.01766 3.9872,0.01766 l 0,-5.03658 -104.61543,0 0,5.03658 c 0,0 5.85911,-0.11769 8.77854,0.03073 5.99184,0.38838 11.77184,-0.41912 17.76892,0.15823 4.90385,0.13273 9.78415,-0.21708 14.66512,-0.22492 9.21007,0.29423 18.47115,-0.31385 27.67861,0.21707 1.83144,-0.153 3.67074,-0.44919 5.51454,-0.24519 z"
         inkscape:connector-curvature="0" />
    </clipPath>
    <clipPath
       id="clipPath3113"
       clipPathUnits="userSpaceOnUse">
      <path
         id="path3115"
         d="M 0,0 170,0 170,170 0,170 0,0 z"
         inkscape:connector-curvature="0" />
    </clipPath>
    <clipPath
       id="clipPath3117"
       clipPathUnits="userSpaceOnUse">
      <path
         id="path3119"
         clip-rule="evenodd"
         d="m 58.61142,87.61185 c -0.7055,0.01766 -1.50711,-0.03073 -2.08707,-0.14842 -0.43416,-0.08696 -0.97554,-0.442 -1.15927,-0.88858 -0.08435,-0.20204 -0.06408,-0.23538 -0.07193,-0.289 -0.01242,-0.23473 -0.01503,-0.34719 -0.01765,-0.47207 0,-0.24781 0.0078,-0.56493 0.01765,-0.91473 0.02093,-0.70224 0.05623,-1.53458 0.10527,-2.17339 0.051,-0.63358 0.05362,-4.48735 0.01766,-5.34061 -0.03073,-0.76108 -0.03073,-1.53981 0,-2.69712 0.01242,-0.43938 0.02288,-0.84281 0.0255,-1.13377 0.0026,-0.14581 0,-0.2635 0,-0.34 -0.01046,-0.17065 -0.0079,-0.19877 -0.0079,-0.22688 0,-0.06147 0.0052,-0.12554 0.0079,-0.20204 0.0078,-0.15562 0.02027,-0.36027 0.03596,-0.57473 0.04315,-0.58454 0.05361,-0.99843 0.0255,-2.31396 -0.0078,-0.44724 -0.02289,-0.85327 -0.03335,-1.15208 -0.0052,-0.14777 -0.01569,-0.27069 -0.01765,-0.34981 -0.01569,-0.153 -0.01569,-0.18635 -0.01831,-0.22492 -0.0072,-0.07912 -0.02027,-0.17589 -0.0255,-0.28835 -0.01242,-0.22492 -0.02288,-0.51588 -0.03531,-0.83038 -0.02615,-0.62573 -0.05427,-1.3175 -0.05165,-1.70066 0,-0.32954 0.0255,-1.00365 0.05165,-1.56334 0.02289,-0.52112 0.04054,-1.55027 0.04316,-2.24204 -0.05362,-1.26192 -0.0765,-2.78146 -0.0412,-3.66285 0.04643,-1.0115 -0.04315,-2.16815 -0.09415,-3.25157 -0.07388,-1.52477 -0.16869,-2.85535 -0.30404,-4.5717 -0.23996,-3.0188 -0.35504,-10.60211 -0.76369,-10.73223 -0.442,-0.14057 -0.61527,-0.0255 -1.13638,-0.06865 -0.289,-0.03073 -1.9975,-0.09481 -3.5785,-0.13339 -0.7892,-0.01765 -1.57316,-0.0353 -2.18908,-0.04315 -0.61789,-0.0052 -1.14881,0.01046 -1.13377,0.01046 -0.27069,0.02289 -0.61004,0.02027 -1.22335,0.0255 -0.60807,0.0052 -1.39204,0.0098 -2.20673,0.0072 -1.63461,0 -4.70965,0.01047 -6.83465,0.03597 -2.85077,0.03334 -5.17977,0.08696 -5.17977,0.08696 l 0,-5.23077 104.61543,0 0,5.13138 c 0,0 -6.122,-0.31188 -10.3034,-0.26807 l -2.4774,0.0255 c 0.3551,0.31646 0.7585,0.96507 1.1776,1.47115 0.391,0.47208 1.0292,1.088 1.5705,1.52673 0.2681,0.21773 0.6617,0.56754 0.9324,0.82777 0.2452,0.23538 0.6872,0.66169 0.986,0.94285 0.3086,0.29096 0.5336,0.51065 0.7179,0.76826 0.1812,0.25827 0.3139,0.61593 0.3139,0.92454 0,0.65123 -0.3322,1.18281 -0.9095,1.47639 -0.4237,0.21707 -1.0671,0.16607 -1.4659,-0.06146 -0.3191,-0.18635 -0.4342,-0.3217 -0.7225,-0.58454 -0.289,-0.26285 -0.6388,-0.60023 -1.022,-0.97816 -0.7689,-0.75388 -1.6575,-1.6575 -2.3395,-2.40092 -0.5008,-0.544 -0.7153,-0.76369 -0.9323,-0.99385 -0.003,0.2452 -0.005,0.50347 0.0333,0.77677 0.0589,0.4165 0.0817,1.14423 0.1046,2.19889 0.0334,1.428 0.0563,1.76473 0.1406,2.45192 0.087,0.69766 0.1353,0.97096 0.036,1.33581 -0.1125,0.40865 -0.3963,0.8075 -0.8481,0.99646 -0.2936,0.12227 -0.5008,0.11704 -0.7231,0.11181 -0.2243,-0.0046 -0.4316,-0.02027 -0.7075,-0.14777 -0.3648,-0.16869 -0.784,-0.65908 -0.8807,-1.12658 -0.0974,-0.4675 -0.0719,-0.93434 -0.0281,-1.66796 0.0588,-0.95723 0.0608,-1.23315 0,-2.93969 -0.0255,-0.77089 -0.008,-1.01869 0.0176,-1.32535 -0.3982,0.30666 -0.8552,0.66169 -1.0546,0.84543 -0.3708,0.34196 -0.8638,0.76107 -1.2672,1.08276 -0.1706,0.13797 -0.4413,0.32693 -0.733,0.52374 -0.2785,0.18896 -0.6178,0.4165 -0.748,0.50542 -0.391,0.26611 -0.8146,0.48058 -1.3286,0.46292 -0.5132,-0.01831 -0.95,-0.28638 -1.2815,-0.59304 -0.2459,-0.22688 -0.4727,-0.48515 -0.5774,-0.88073 -0.1026,-0.39884 0.0229,-0.85327 0.2014,-1.13704 0.2223,-0.3498 0.3832,-0.43677 0.6539,-0.65384 0.2733,-0.21708 0.6185,-0.46227 1.0141,-0.73296 0.4139,-0.28312 0.6872,-0.50804 1.3946,-1.14162 0.3244,-0.29096 0.7919,-0.66169 1.1521,-0.90885 0.2858,-0.19419 0.7049,-0.50607 0.8298,-0.61069 0.202,-0.17131 0.5106,-0.37007 0.5106,-0.37007 0,0 -0.61,0.09676 -0.85,0.1118 -1.0906,-0.0046 -1.3665,-0.16084 -2.2708,-0.13011 -7.3839,0.24257 -13.80727,0.29881 -22.52958,0.36027 0,0 0.03596,0.51588 0.051,1.0213 0.01766,0.5852 0.051,1.33581 0.07127,1.5967 0.02812,0.37792 0.03596,0.83234 0.01831,1.21288 -0.03073,0.61069 -0.0255,2.15312 0.0098,3.12146 0.01569,0.45181 0.05165,1.17496 0.07454,1.581 0.02027,0.35504 0.05623,0.81993 0.06865,0.9167 0.23538,1.78042 0.20923,6.97 -0.03335,8.82169 -0.02288,0.17654 -0.04577,0.34523 -0.07127,0.49038 -0.02288,0.14581 -0.0255,0.19158 -0.08696,0.39362 -0.10984,0.35504 -0.34196,0.71007 -0.67934,0.93238 -0.33935,0.22166 -0.7225,0.29881 -1.09323,0.29619 -0.45966,0 -1.54243,-0.12553 -1.90008,-0.55707 -0.35765,-0.43154 -0.40342,-0.91931 -0.41127,-1.41493 0.0079,-0.54138 0.01308,-1.03961 0.0255,-1.49142 0.051,-1.59669 -0.04838,-3.96884 -0.10462,-5.18238 -0.03596,-0.65123 -0.04576,-1.30508 -0.08696,-1.9537 -0.15038,-2.25053 -0.17588,-4.56188 -0.19942,-6.52342 0.0026,-1.09323 -0.06865,-2.29565 -0.11442,-3.32284 -0.53943,0.0255 -0.61331,0.0693 -1.16973,0.08696 -7.09293,-0.08435 -2.32443,0.0078 -8.74781,0.01307 -0.92192,0.0046 -1.73923,0.0327 -1.91839,0.05362 -1.28219,0.14515 -2.8985,0.21969 -4.75803,0.22688 -3.94597,0.0157 -6.6967,-0.03073 -8.06324,-0.14777 -1.09323,-0.0948 -1.09846,0.04054 -1.37438,0.04839 -0.44919,2.38785 -0.36485,4.59719 -0.34458,6.23704 0.03596,2.95277 -0.0255,3.49415 -0.03596,4.34677 -0.03334,2.85077 0.09742,5.52238 0.10462,7.01642 0.01307,1.66796 0.02811,2.24727 0.06146,2.50554 0.08696,0.65123 0.08434,1.94388 0.06146,3.75177 0,0.17392 0.01242,0.78657 0.02812,1.36131 0.04576,1.90269 0.06342,11.66723 0.0255,13.54442 -0.02027,0.94023 -0.051,5.97158 -0.06147,6.72742 -0.01242,0.77416 -0.0078,1.14946 -0.06865,1.51954 -0.03335,0.18438 -0.10004,0.41127 -0.25565,0.61069 -0.153,0.19943 -0.3217,0.29358 -0.40081,0.33935 -0.13535,0.08173 -0.3655,0.15365 -0.54139,0.17654 -0.17392,0.02027 -0.34,0.02811 -0.60023,0.03334 z"
         inkscape:connector-curvature="0" />
    </clipPath>
    <clipPath
       id="clipPath3121"
       clipPathUnits="userSpaceOnUse">
      <path
         id="path3123"
         d="M 0,0 170,0 170,170 0,170 0,0 z"
         inkscape:connector-curvature="0" />
    </clipPath>
    <clipPath
       id="clipPath3125"
       clipPathUnits="userSpaceOnUse">
      <path
         id="path3127"
         clip-rule="evenodd"
         d="m 63.19249,87.25307 c -2.36561,-0.63096 -4.84565,-0.83496 -7.27142,-0.64077 -2.36823,0.18896 -4.82473,0.5695 -6.94711,1.74969 -4.72012,2.62781 -9.32254,6.39527 -12.05039,11.41158 -1.15469,2.12953 -1.24623,4.80383 -1.46854,7.27663 -0.18634,2.0557 -0.24257,4.1657 0.11246,6.1933 0.5002,2.8605 1.36131,5.7368 2.7965,8.1783 1.14685,1.9491 2.771,3.5628 4.49258,4.896 2.29108,1.7725 4.85808,3.2489 7.57546,3.9721 2.53627,0.6767 5.22554,0.5132 7.82327,0.2576 2.12239,-0.2066 4.26504,-0.6029 6.25208,-1.4509 3.59615,-1.5398 7.19231,-3.5347 9.98161,-6.4875 2.03804,-2.1576 3.69097,-4.9038 4.60766,-7.8585 1.0625,-3.4151 1.17758,-7.2002 0.85327,-10.7937 -0.20989,-2.3264 -0.75127,-4.69202 -1.79089,-6.72745 -1.00627,-1.972 -2.4748,-3.70077 -4.148,-4.99865 -3.19992,-2.482 -7.02361,-3.96362 -10.81854,-4.97773 z"
         inkscape:connector-curvature="0" />
    </clipPath>
    <clipPath
       id="clipPath3129"
       clipPathUnits="userSpaceOnUse">
      <path
         id="path3131"
         d="M 0,0 170,0 170,170 0,170 0,0 z"
         inkscape:connector-curvature="0" />
    </clipPath>
    <clipPath
       id="clipPath3133"
       clipPathUnits="userSpaceOnUse">
      <path
         id="path3135"
         clip-rule="evenodd"
         d="m 87.52903,84.99963 c -0.58258,-0.0052 -1.16189,-0.06931 -1.72681,-0.22754 -1.20766,-0.33934 -2.34927,-1.03438 -3.366,-1.86411 -0.76631,-0.62573 -1.48685,-1.38223 -1.9975,-2.29631 -0.63619,-1.14685 -1.01673,-2.49508 -1.23839,-3.83873 -0.15888,-0.95004 -0.13338,-1.9465 -0.05165,-2.91158 0.03073,-0.34261 0.05885,-0.68719 0.08958,-1.037 -0.23997,-0.03335 -0.4747,-0.08435 -0.7127,-0.14842 -1.18477,-0.31385 -2.31134,-0.9605 -3.30977,-1.734 -0.75126,-0.58258 -1.4535,-1.28219 -1.95369,-2.13546 -0.62834,-1.06512 -1.00888,-2.3192 -1.22596,-3.56804 -0.15365,-0.88335 -0.13077,-1.80593 -0.04904,-2.70235 0.09743,-1.07754 0.13535,-2.24988 0.64143,-3.17965 1.19,-2.18908 3.1973,-3.8335 5.25626,-4.98035 0.92716,-0.51588 1.99947,-0.67934 3.03385,-0.76108 1.05792,-0.08696 2.14069,0 3.17246,0.27593 1.65489,0.442 2.97043,1.93342 4.72012,2.17338 0.53615,0.07389 1.64965,-0.99123 2.22177,-1.32273 0.92715,-0.51654 2.00273,-0.68 3.0345,-0.76173 1.05988,-0.08631 2.14004,0 3.1718,0.27592 1.65554,0.442 3.31831,1.09062 4.71231,2.17404 0.731,0.56427 1.3796,1.32012 1.819,2.18123 0.4518,0.88858 0.6865,1.92035 0.7787,2.93708 0.1406,1.56792 0.0896,3.22281 -0.3727,4.71227 -0.4008,1.28938 -1.124,2.48985 -2.0125,3.43269 -0.9403,0.99581 -2.0871,1.73662 -3.28496,2.33423 0.01569,0.13012 0.02812,0.25304 0.04119,0.38316 0.14254,1.68561 0.08893,3.46603 -0.38315,5.06992 -0.40604,1.38681 -1.139,2.67685 -2.04327,3.69031 -1.23904,1.3868 -2.84031,2.31919 -4.43635,3.04234 -0.884,0.3982 -1.83403,0.58193 -2.77623,0.68196 -0.57734,0.05885 -1.16777,0.10985 -1.7523,0.10462 z"
         inkscape:connector-curvature="0" />
    </clipPath>
    <clipPath
       id="clipPath3137"
       clipPathUnits="userSpaceOnUse">
      <path
         id="path3139"
         d="M 0,0 170,0 170,170 0,170 0,0 z"
         inkscape:connector-curvature="0" />
    </clipPath>
    <clipPath
       id="clipPath3141"
       clipPathUnits="userSpaceOnUse">
      <path
         id="path3143"
         clip-rule="evenodd"
         d="m -3.269231,39.23077 179.807731,0 0,-60.15385 -179.807731,0 0,60.15385 z"
         inkscape:connector-curvature="0" />
    </clipPath>
    <clipPath
       id="clipPath3145"
       clipPathUnits="userSpaceOnUse">
      <path
         id="path3147"
         d="M 0,0 170,0 170,170 0,170 0,0 z"
         inkscape:connector-curvature="0" />
    </clipPath>
    <clipPath
       id="clipPath3149"
       clipPathUnits="userSpaceOnUse">
      <path
         id="path3151"
         clip-rule="evenodd"
         d="m 105.1365,42.77178 c 10.4615,0.39362 -7.07004,-0.69961 3.3889,-0.0046 0.3884,5.3962 3.1672,9.31208 10.674,9.53439 5.9226,0.17588 11.9889,-3.46081 12.1596,-9.48339 1.392,0.051 3.9872,0.01766 3.9872,0.01766 l 0,-5.03658 -104.61543,0 0,5.03658 c 0,0 5.85911,-0.11769 8.77854,0.03073 5.99184,0.38838 11.77184,-0.41912 17.76892,0.15823 4.90385,0.13273 9.78415,-0.21708 14.66512,-0.22492 9.21007,0.29423 18.47115,-0.31385 27.67861,0.21707 1.83144,-0.153 3.67074,-0.44919 5.51454,-0.24519 z"
         inkscape:connector-curvature="0" />
    </clipPath>
    <clipPath
       id="clipPath3153"
       clipPathUnits="userSpaceOnUse">
      <path
         id="path3155"
         d="M 0,0 170,0 170,170 0,170 0,0 z"
         inkscape:connector-curvature="0" />
    </clipPath>
    <clipPath
       id="clipPath3157"
       clipPathUnits="userSpaceOnUse">
      <path
         id="path3159"
         clip-rule="evenodd"
         d="m 58.61142,87.61185 c -0.7055,0.01766 -1.50711,-0.03073 -2.08707,-0.14842 -0.43416,-0.08696 -0.97554,-0.442 -1.15927,-0.88858 -0.08435,-0.20204 -0.06408,-0.23538 -0.07193,-0.289 -0.01242,-0.23473 -0.01503,-0.34719 -0.01765,-0.47207 0,-0.24781 0.0078,-0.56493 0.01765,-0.91473 0.02093,-0.70224 0.05623,-1.53458 0.10527,-2.17339 0.051,-0.63358 0.05362,-4.48735 0.01766,-5.34061 -0.03073,-0.76108 -0.03073,-1.53981 0,-2.69712 0.01242,-0.43938 0.02288,-0.84281 0.0255,-1.13377 0.0026,-0.14581 0,-0.2635 0,-0.34 -0.01046,-0.17065 -0.0079,-0.19877 -0.0079,-0.22688 0,-0.06147 0.0052,-0.12554 0.0079,-0.20204 0.0078,-0.15562 0.02027,-0.36027 0.03596,-0.57473 0.04315,-0.58454 0.05361,-0.99843 0.0255,-2.31396 -0.0078,-0.44724 -0.02289,-0.85327 -0.03335,-1.15208 -0.0052,-0.14777 -0.01569,-0.27069 -0.01765,-0.34981 -0.01569,-0.153 -0.01569,-0.18635 -0.01831,-0.22492 -0.0072,-0.07912 -0.02027,-0.17589 -0.0255,-0.28835 -0.01242,-0.22492 -0.02288,-0.51588 -0.03531,-0.83038 -0.02615,-0.62573 -0.05427,-1.3175 -0.05165,-1.70066 0,-0.32954 0.0255,-1.00365 0.05165,-1.56334 0.02289,-0.52112 0.04054,-1.55027 0.04316,-2.24204 -0.05362,-1.26192 -0.0765,-2.78146 -0.0412,-3.66285 0.04643,-1.0115 -0.04315,-2.16815 -0.09415,-3.25157 -0.07388,-1.52477 -0.16869,-2.85535 -0.30404,-4.5717 -0.23996,-3.0188 -0.35504,-10.60211 -0.76369,-10.73223 -0.442,-0.14057 -0.61527,-0.0255 -1.13638,-0.06865 -0.289,-0.03073 -1.9975,-0.09481 -3.5785,-0.13339 -0.7892,-0.01765 -1.57316,-0.0353 -2.18908,-0.04315 -0.61789,-0.0052 -1.14881,0.01046 -1.13377,0.01046 -0.27069,0.02289 -0.61004,0.02027 -1.22335,0.0255 -0.60807,0.0052 -1.39204,0.0098 -2.20673,0.0072 -1.63461,0 -4.70965,0.01047 -6.83465,0.03597 -2.85077,0.03334 -5.17977,0.08696 -5.17977,0.08696 l 0,-5.23077 104.61543,0 0,5.13138 c 0,0 -6.122,-0.31188 -10.3034,-0.26807 l -2.4774,0.0255 c 0.3551,0.31646 0.7585,0.96507 1.1776,1.47115 0.391,0.47208 1.0292,1.088 1.5705,1.52673 0.2681,0.21773 0.6617,0.56754 0.9324,0.82777 0.2452,0.23538 0.6872,0.66169 0.986,0.94285 0.3086,0.29096 0.5336,0.51065 0.7179,0.76826 0.1812,0.25827 0.3139,0.61593 0.3139,0.92454 0,0.65123 -0.3322,1.18281 -0.9095,1.47639 -0.4237,0.21707 -1.0671,0.16607 -1.4659,-0.06146 -0.3191,-0.18635 -0.4342,-0.3217 -0.7225,-0.58454 -0.289,-0.26285 -0.6388,-0.60023 -1.022,-0.97816 -0.7689,-0.75388 -1.6575,-1.6575 -2.3395,-2.40092 -0.5008,-0.544 -0.7153,-0.76369 -0.9323,-0.99385 -0.003,0.2452 -0.005,0.50347 0.0333,0.77677 0.0589,0.4165 0.0817,1.14423 0.1046,2.19889 0.0334,1.428 0.0563,1.76473 0.1406,2.45192 0.087,0.69766 0.1353,0.97096 0.036,1.33581 -0.1125,0.40865 -0.3963,0.8075 -0.8481,0.99646 -0.2936,0.12227 -0.5008,0.11704 -0.7231,0.11181 -0.2243,-0.0046 -0.4316,-0.02027 -0.7075,-0.14777 -0.3648,-0.16869 -0.784,-0.65908 -0.8807,-1.12658 -0.0974,-0.4675 -0.0719,-0.93434 -0.0281,-1.66796 0.0588,-0.95723 0.0608,-1.23315 0,-2.93969 -0.0255,-0.77089 -0.008,-1.01869 0.0176,-1.32535 -0.3982,0.30666 -0.8552,0.66169 -1.0546,0.84543 -0.3708,0.34196 -0.8638,0.76107 -1.2672,1.08276 -0.1706,0.13797 -0.4413,0.32693 -0.733,0.52374 -0.2785,0.18896 -0.6178,0.4165 -0.748,0.50542 -0.391,0.26611 -0.8146,0.48058 -1.3286,0.46292 -0.5132,-0.01831 -0.95,-0.28638 -1.2815,-0.59304 -0.2459,-0.22688 -0.4727,-0.48515 -0.5774,-0.88073 -0.1026,-0.39884 0.0229,-0.85327 0.2014,-1.13704 0.2223,-0.3498 0.3832,-0.43677 0.6539,-0.65384 0.2733,-0.21708 0.6185,-0.46227 1.0141,-0.73296 0.4139,-0.28312 0.6872,-0.50804 1.3946,-1.14162 0.3244,-0.29096 0.7919,-0.66169 1.1521,-0.90885 0.2858,-0.19419 0.7049,-0.50607 0.8298,-0.61069 0.202,-0.17131 0.5106,-0.37007 0.5106,-0.37007 0,0 -0.61,0.09676 -0.85,0.1118 -1.0906,-0.0046 -1.3665,-0.16084 -2.2708,-0.13011 -7.3839,0.24257 -13.80727,0.29881 -22.52958,0.36027 0,0 0.03596,0.51588 0.051,1.0213 0.01766,0.5852 0.051,1.33581 0.07127,1.5967 0.02812,0.37792 0.03596,0.83234 0.01831,1.21288 -0.03073,0.61069 -0.0255,2.15312 0.0098,3.12146 0.01569,0.45181 0.05165,1.17496 0.07454,1.581 0.02027,0.35504 0.05623,0.81993 0.06865,0.9167 0.23538,1.78042 0.20923,6.97 -0.03335,8.82169 -0.02288,0.17654 -0.04577,0.34523 -0.07127,0.49038 -0.02288,0.14581 -0.0255,0.19158 -0.08696,0.39362 -0.10984,0.35504 -0.34196,0.71007 -0.67934,0.93238 -0.33935,0.22166 -0.7225,0.29881 -1.09323,0.29619 -0.45966,0 -1.54243,-0.12553 -1.90008,-0.55707 -0.35765,-0.43154 -0.40342,-0.91931 -0.41127,-1.41493 0.0079,-0.54138 0.01308,-1.03961 0.0255,-1.49142 0.051,-1.59669 -0.04838,-3.96884 -0.10462,-5.18238 -0.03596,-0.65123 -0.04576,-1.30508 -0.08696,-1.9537 -0.15038,-2.25053 -0.17588,-4.56188 -0.19942,-6.52342 0.0026,-1.09323 -0.06865,-2.29565 -0.11442,-3.32284 -0.53943,0.0255 -0.61331,0.0693 -1.16973,0.08696 -7.09293,-0.08435 -2.32443,0.0078 -8.74781,0.01307 -0.92192,0.0046 -1.73923,0.0327 -1.91839,0.05362 -1.28219,0.14515 -2.8985,0.21969 -4.75803,0.22688 -3.94597,0.0157 -6.6967,-0.03073 -8.06324,-0.14777 -1.09323,-0.0948 -1.09846,0.04054 -1.37438,0.04839 -0.44919,2.38785 -0.36485,4.59719 -0.34458,6.23704 0.03596,2.95277 -0.0255,3.49415 -0.03596,4.34677 -0.03334,2.85077 0.09742,5.52238 0.10462,7.01642 0.01307,1.66796 0.02811,2.24727 0.06146,2.50554 0.08696,0.65123 0.08434,1.94388 0.06146,3.75177 0,0.17392 0.01242,0.78657 0.02812,1.36131 0.04576,1.90269 0.06342,11.66723 0.0255,13.54442 -0.02027,0.94023 -0.051,5.97158 -0.06147,6.72742 -0.01242,0.77416 -0.0078,1.14946 -0.06865,1.51954 -0.03335,0.18438 -0.10004,0.41127 -0.25565,0.61069 -0.153,0.19943 -0.3217,0.29358 -0.40081,0.33935 -0.13535,0.08173 -0.3655,0.15365 -0.54139,0.17654 -0.17392,0.02027 -0.34,0.02811 -0.60023,0.03334 z"
         inkscape:connector-curvature="0" />
    </clipPath>
    <clipPath
       id="clipPath3161"
       clipPathUnits="userSpaceOnUse">
      <path
         id="path3163"
         d="M 0,0 170,0 170,170 0,170 0,0 z"
         inkscape:connector-curvature="0" />
    </clipPath>
    <clipPath
       id="clipPath3165"
       clipPathUnits="userSpaceOnUse">
      <path
         id="path3167"
         clip-rule="evenodd"
         d="m 63.19249,87.25307 c -2.36561,-0.63096 -4.84565,-0.83496 -7.27142,-0.64077 -2.36823,0.18896 -4.82473,0.5695 -6.94711,1.74969 -4.72012,2.62781 -9.32254,6.39527 -12.05039,11.41158 -1.15469,2.12953 -1.24623,4.80383 -1.46854,7.27663 -0.18634,2.0557 -0.24257,4.1657 0.11246,6.1933 0.5002,2.8605 1.36131,5.7368 2.7965,8.1783 1.14685,1.9491 2.771,3.5628 4.49258,4.896 2.29108,1.7725 4.85808,3.2489 7.57546,3.9721 2.53627,0.6767 5.22554,0.5132 7.82327,0.2576 2.12239,-0.2066 4.26504,-0.6029 6.25208,-1.4509 3.59615,-1.5398 7.19231,-3.5347 9.98161,-6.4875 2.03804,-2.1576 3.69097,-4.9038 4.60766,-7.8585 1.0625,-3.4151 1.17758,-7.2002 0.85327,-10.7937 -0.20989,-2.3264 -0.75127,-4.69202 -1.79089,-6.72745 -1.00627,-1.972 -2.4748,-3.70077 -4.148,-4.99865 -3.19992,-2.482 -7.02361,-3.96362 -10.81854,-4.97773 z"
         inkscape:connector-curvature="0" />
    </clipPath>
    <clipPath
       id="clipPath3169"
       clipPathUnits="userSpaceOnUse">
      <path
         id="path3171"
         d="M 0,0 170,0 170,170 0,170 0,0 z"
         inkscape:connector-curvature="0" />
    </clipPath>
    <clipPath
       id="clipPath3173"
       clipPathUnits="userSpaceOnUse">
      <path
         id="path3175"
         clip-rule="evenodd"
         d="m 87.52903,84.99963 c -0.58258,-0.0052 -1.16189,-0.06931 -1.72681,-0.22754 -1.20766,-0.33934 -2.34927,-1.03438 -3.366,-1.86411 -0.76631,-0.62573 -1.48685,-1.38223 -1.9975,-2.29631 -0.63619,-1.14685 -1.01673,-2.49508 -1.23839,-3.83873 -0.15888,-0.95004 -0.13338,-1.9465 -0.05165,-2.91158 0.03073,-0.34261 0.05885,-0.68719 0.08958,-1.037 -0.23997,-0.03335 -0.4747,-0.08435 -0.7127,-0.14842 -1.18477,-0.31385 -2.31134,-0.9605 -3.30977,-1.734 -0.75126,-0.58258 -1.4535,-1.28219 -1.95369,-2.13546 -0.62834,-1.06512 -1.00888,-2.3192 -1.22596,-3.56804 -0.15365,-0.88335 -0.13077,-1.80593 -0.04904,-2.70235 0.09743,-1.07754 0.13535,-2.24988 0.64143,-3.17965 1.19,-2.18908 3.1973,-3.8335 5.25626,-4.98035 0.92716,-0.51588 1.99947,-0.67934 3.03385,-0.76108 1.05792,-0.08696 2.14069,0 3.17246,0.27593 1.65489,0.442 2.97043,1.93342 4.72012,2.17338 0.53615,0.07389 1.64965,-0.99123 2.22177,-1.32273 0.92715,-0.51654 2.00273,-0.68 3.0345,-0.76173 1.05988,-0.08631 2.14004,0 3.1718,0.27592 1.65554,0.442 3.31831,1.09062 4.71231,2.17404 0.731,0.56427 1.3796,1.32012 1.819,2.18123 0.4518,0.88858 0.6865,1.92035 0.7787,2.93708 0.1406,1.56792 0.0896,3.22281 -0.3727,4.71227 -0.4008,1.28938 -1.124,2.48985 -2.0125,3.43269 -0.9403,0.99581 -2.0871,1.73662 -3.28496,2.33423 0.01569,0.13012 0.02812,0.25304 0.04119,0.38316 0.14254,1.68561 0.08893,3.46603 -0.38315,5.06992 -0.40604,1.38681 -1.139,2.67685 -2.04327,3.69031 -1.23904,1.3868 -2.84031,2.31919 -4.43635,3.04234 -0.884,0.3982 -1.83403,0.58193 -2.77623,0.68196 -0.57734,0.05885 -1.16777,0.10985 -1.7523,0.10462 z"
         inkscape:connector-curvature="0" />
    </clipPath>
    <clipPath
       id="clipPath3177"
       clipPathUnits="userSpaceOnUse">
      <path
         id="path3179"
         d="M 0,0 170,0 170,170 0,170 0,0 z"
         inkscape:connector-curvature="0" />
    </clipPath>
    <clipPath
       id="clipPath3077-5"
       clipPathUnits="userSpaceOnUse">
      <path
         inkscape:connector-curvature="0"
         id="path3079-1"
         clip-rule="evenodd"
         d="m 85,0 c 46.9442,0 85,38.0558 85,85 0,46.9442 -38.0558,85 -85,85 C 38.0558,170 0,131.9442 0,85 0,38.0558 38.0558,0 85,0 z" />
    </clipPath>
    <clipPath
       id="clipPath3083-8"
       clipPathUnits="userSpaceOnUse">
      <path
         inkscape:connector-curvature="0"
         id="path3085-6"
         d="M 0,0 170,0 170,170 0,170 0,0 z" />
    </clipPath>
    <clipPath
       id="clipPath3089-3"
       clipPathUnits="userSpaceOnUse">
      <path
         inkscape:connector-curvature="0"
         id="path3091-2"
         d="m -4,-21 181,0 0,195 -181,0 0,-195 z" />
    </clipPath>
    <clipPath
       id="clipPath3093-4"
       clipPathUnits="userSpaceOnUse">
      <path
         inkscape:connector-curvature="0"
         id="path3095-0"
         clip-rule="evenodd"
         d="m -3.269231,39.23077 179.807731,0 0,134.69233 -179.807731,0 0,-134.69233 z" />
    </clipPath>
    <clipPath
       id="clipPath3097-4"
       clipPathUnits="userSpaceOnUse">
      <path
         inkscape:connector-curvature="0"
         id="path3099-8"
         d="M 0,0 170,0 170,170 0,170 0,0 z" />
    </clipPath>
    <clipPath
       id="clipPath3101-6"
       clipPathUnits="userSpaceOnUse">
      <path
         inkscape:connector-curvature="0"
         id="path3103-3"
         clip-rule="evenodd"
         d="m -3.269231,43.15385 179.807731,0 0,-3.92308 -179.807731,0 0,3.92308 z" />
    </clipPath>
    <clipPath
       id="clipPath3105-4"
       clipPathUnits="userSpaceOnUse">
      <path
         inkscape:connector-curvature="0"
         id="path3107-4"
         d="M 0,0 170,0 170,170 0,170 0,0 z" />
    </clipPath>
    <clipPath
       id="clipPath3109-6"
       clipPathUnits="userSpaceOnUse">
      <path
         inkscape:connector-curvature="0"
         id="path3111-1"
         clip-rule="evenodd"
         d="m 105.1365,42.77178 c 10.4615,0.39362 -7.07004,-0.69961 3.3889,-0.0046 0.3884,5.3962 3.1672,9.31208 10.674,9.53439 5.9226,0.17588 11.9889,-3.46081 12.1596,-9.48339 1.392,0.051 3.9872,0.01766 3.9872,0.01766 l 0,-5.03658 -104.61543,0 0,5.03658 c 0,0 5.85911,-0.11769 8.77854,0.03073 5.99184,0.38838 11.77184,-0.41912 17.76892,0.15823 4.90385,0.13273 9.78415,-0.21708 14.66512,-0.22492 9.21007,0.29423 18.47115,-0.31385 27.67861,0.21707 1.83144,-0.153 3.67074,-0.44919 5.51454,-0.24519 z" />
    </clipPath>
    <clipPath
       id="clipPath3113-0"
       clipPathUnits="userSpaceOnUse">
      <path
         inkscape:connector-curvature="0"
         id="path3115-8"
         d="M 0,0 170,0 170,170 0,170 0,0 z" />
    </clipPath>
    <clipPath
       id="clipPath3117-5"
       clipPathUnits="userSpaceOnUse">
      <path
         inkscape:connector-curvature="0"
         id="path3119-0"
         clip-rule="evenodd"
         d="m 58.61142,87.61185 c -0.7055,0.01766 -1.50711,-0.03073 -2.08707,-0.14842 -0.43416,-0.08696 -0.97554,-0.442 -1.15927,-0.88858 -0.08435,-0.20204 -0.06408,-0.23538 -0.07193,-0.289 -0.01242,-0.23473 -0.01503,-0.34719 -0.01765,-0.47207 0,-0.24781 0.0078,-0.56493 0.01765,-0.91473 0.02093,-0.70224 0.05623,-1.53458 0.10527,-2.17339 0.051,-0.63358 0.05362,-4.48735 0.01766,-5.34061 -0.03073,-0.76108 -0.03073,-1.53981 0,-2.69712 0.01242,-0.43938 0.02288,-0.84281 0.0255,-1.13377 0.0026,-0.14581 0,-0.2635 0,-0.34 -0.01046,-0.17065 -0.0079,-0.19877 -0.0079,-0.22688 0,-0.06147 0.0052,-0.12554 0.0079,-0.20204 0.0078,-0.15562 0.02027,-0.36027 0.03596,-0.57473 0.04315,-0.58454 0.05361,-0.99843 0.0255,-2.31396 -0.0078,-0.44724 -0.02289,-0.85327 -0.03335,-1.15208 -0.0052,-0.14777 -0.01569,-0.27069 -0.01765,-0.34981 -0.01569,-0.153 -0.01569,-0.18635 -0.01831,-0.22492 -0.0072,-0.07912 -0.02027,-0.17589 -0.0255,-0.28835 -0.01242,-0.22492 -0.02288,-0.51588 -0.03531,-0.83038 -0.02615,-0.62573 -0.05427,-1.3175 -0.05165,-1.70066 0,-0.32954 0.0255,-1.00365 0.05165,-1.56334 0.02289,-0.52112 0.04054,-1.55027 0.04316,-2.24204 -0.05362,-1.26192 -0.0765,-2.78146 -0.0412,-3.66285 0.04643,-1.0115 -0.04315,-2.16815 -0.09415,-3.25157 -0.07388,-1.52477 -0.16869,-2.85535 -0.30404,-4.5717 -0.23996,-3.0188 -0.35504,-10.60211 -0.76369,-10.73223 -0.442,-0.14057 -0.61527,-0.0255 -1.13638,-0.06865 -0.289,-0.03073 -1.9975,-0.09481 -3.5785,-0.13339 -0.7892,-0.01765 -1.57316,-0.0353 -2.18908,-0.04315 -0.61789,-0.0052 -1.14881,0.01046 -1.13377,0.01046 -0.27069,0.02289 -0.61004,0.02027 -1.22335,0.0255 -0.60807,0.0052 -1.39204,0.0098 -2.20673,0.0072 -1.63461,0 -4.70965,0.01047 -6.83465,0.03597 -2.85077,0.03334 -5.17977,0.08696 -5.17977,0.08696 l 0,-5.23077 104.61543,0 0,5.13138 c 0,0 -6.122,-0.31188 -10.3034,-0.26807 l -2.4774,0.0255 c 0.3551,0.31646 0.7585,0.96507 1.1776,1.47115 0.391,0.47208 1.0292,1.088 1.5705,1.52673 0.2681,0.21773 0.6617,0.56754 0.9324,0.82777 0.2452,0.23538 0.6872,0.66169 0.986,0.94285 0.3086,0.29096 0.5336,0.51065 0.7179,0.76826 0.1812,0.25827 0.3139,0.61593 0.3139,0.92454 0,0.65123 -0.3322,1.18281 -0.9095,1.47639 -0.4237,0.21707 -1.0671,0.16607 -1.4659,-0.06146 -0.3191,-0.18635 -0.4342,-0.3217 -0.7225,-0.58454 -0.289,-0.26285 -0.6388,-0.60023 -1.022,-0.97816 -0.7689,-0.75388 -1.6575,-1.6575 -2.3395,-2.40092 -0.5008,-0.544 -0.7153,-0.76369 -0.9323,-0.99385 -0.003,0.2452 -0.005,0.50347 0.0333,0.77677 0.0589,0.4165 0.0817,1.14423 0.1046,2.19889 0.0334,1.428 0.0563,1.76473 0.1406,2.45192 0.087,0.69766 0.1353,0.97096 0.036,1.33581 -0.1125,0.40865 -0.3963,0.8075 -0.8481,0.99646 -0.2936,0.12227 -0.5008,0.11704 -0.7231,0.11181 -0.2243,-0.0046 -0.4316,-0.02027 -0.7075,-0.14777 -0.3648,-0.16869 -0.784,-0.65908 -0.8807,-1.12658 -0.0974,-0.4675 -0.0719,-0.93434 -0.0281,-1.66796 0.0588,-0.95723 0.0608,-1.23315 0,-2.93969 -0.0255,-0.77089 -0.008,-1.01869 0.0176,-1.32535 -0.3982,0.30666 -0.8552,0.66169 -1.0546,0.84543 -0.3708,0.34196 -0.8638,0.76107 -1.2672,1.08276 -0.1706,0.13797 -0.4413,0.32693 -0.733,0.52374 -0.2785,0.18896 -0.6178,0.4165 -0.748,0.50542 -0.391,0.26611 -0.8146,0.48058 -1.3286,0.46292 -0.5132,-0.01831 -0.95,-0.28638 -1.2815,-0.59304 -0.2459,-0.22688 -0.4727,-0.48515 -0.5774,-0.88073 -0.1026,-0.39884 0.0229,-0.85327 0.2014,-1.13704 0.2223,-0.3498 0.3832,-0.43677 0.6539,-0.65384 0.2733,-0.21708 0.6185,-0.46227 1.0141,-0.73296 0.4139,-0.28312 0.6872,-0.50804 1.3946,-1.14162 0.3244,-0.29096 0.7919,-0.66169 1.1521,-0.90885 0.2858,-0.19419 0.7049,-0.50607 0.8298,-0.61069 0.202,-0.17131 0.5106,-0.37007 0.5106,-0.37007 0,0 -0.61,0.09676 -0.85,0.1118 -1.0906,-0.0046 -1.3665,-0.16084 -2.2708,-0.13011 -7.3839,0.24257 -13.80727,0.29881 -22.52958,0.36027 0,0 0.03596,0.51588 0.051,1.0213 0.01766,0.5852 0.051,1.33581 0.07127,1.5967 0.02812,0.37792 0.03596,0.83234 0.01831,1.21288 -0.03073,0.61069 -0.0255,2.15312 0.0098,3.12146 0.01569,0.45181 0.05165,1.17496 0.07454,1.581 0.02027,0.35504 0.05623,0.81993 0.06865,0.9167 0.23538,1.78042 0.20923,6.97 -0.03335,8.82169 -0.02288,0.17654 -0.04577,0.34523 -0.07127,0.49038 -0.02288,0.14581 -0.0255,0.19158 -0.08696,0.39362 -0.10984,0.35504 -0.34196,0.71007 -0.67934,0.93238 -0.33935,0.22166 -0.7225,0.29881 -1.09323,0.29619 -0.45966,0 -1.54243,-0.12553 -1.90008,-0.55707 -0.35765,-0.43154 -0.40342,-0.91931 -0.41127,-1.41493 0.0079,-0.54138 0.01308,-1.03961 0.0255,-1.49142 0.051,-1.59669 -0.04838,-3.96884 -0.10462,-5.18238 -0.03596,-0.65123 -0.04576,-1.30508 -0.08696,-1.9537 -0.15038,-2.25053 -0.17588,-4.56188 -0.19942,-6.52342 0.0026,-1.09323 -0.06865,-2.29565 -0.11442,-3.32284 -0.53943,0.0255 -0.61331,0.0693 -1.16973,0.08696 -7.09293,-0.08435 -2.32443,0.0078 -8.74781,0.01307 -0.92192,0.0046 -1.73923,0.0327 -1.91839,0.05362 -1.28219,0.14515 -2.8985,0.21969 -4.75803,0.22688 -3.94597,0.0157 -6.6967,-0.03073 -8.06324,-0.14777 -1.09323,-0.0948 -1.09846,0.04054 -1.37438,0.04839 -0.44919,2.38785 -0.36485,4.59719 -0.34458,6.23704 0.03596,2.95277 -0.0255,3.49415 -0.03596,4.34677 -0.03334,2.85077 0.09742,5.52238 0.10462,7.01642 0.01307,1.66796 0.02811,2.24727 0.06146,2.50554 0.08696,0.65123 0.08434,1.94388 0.06146,3.75177 0,0.17392 0.01242,0.78657 0.02812,1.36131 0.04576,1.90269 0.06342,11.66723 0.0255,13.54442 -0.02027,0.94023 -0.051,5.97158 -0.06147,6.72742 -0.01242,0.77416 -0.0078,1.14946 -0.06865,1.51954 -0.03335,0.18438 -0.10004,0.41127 -0.25565,0.61069 -0.153,0.19943 -0.3217,0.29358 -0.40081,0.33935 -0.13535,0.08173 -0.3655,0.15365 -0.54139,0.17654 -0.17392,0.02027 -0.34,0.02811 -0.60023,0.03334 z" />
    </clipPath>
    <clipPath
       id="clipPath3121-3"
       clipPathUnits="userSpaceOnUse">
      <path
         inkscape:connector-curvature="0"
         id="path3123-9"
         d="M 0,0 170,0 170,170 0,170 0,0 z" />
    </clipPath>
    <clipPath
       id="clipPath3125-6"
       clipPathUnits="userSpaceOnUse">
      <path
         inkscape:connector-curvature="0"
         id="path3127-9"
         clip-rule="evenodd"
         d="m 63.19249,87.25307 c -2.36561,-0.63096 -4.84565,-0.83496 -7.27142,-0.64077 -2.36823,0.18896 -4.82473,0.5695 -6.94711,1.74969 -4.72012,2.62781 -9.32254,6.39527 -12.05039,11.41158 -1.15469,2.12953 -1.24623,4.80383 -1.46854,7.27663 -0.18634,2.0557 -0.24257,4.1657 0.11246,6.1933 0.5002,2.8605 1.36131,5.7368 2.7965,8.1783 1.14685,1.9491 2.771,3.5628 4.49258,4.896 2.29108,1.7725 4.85808,3.2489 7.57546,3.9721 2.53627,0.6767 5.22554,0.5132 7.82327,0.2576 2.12239,-0.2066 4.26504,-0.6029 6.25208,-1.4509 3.59615,-1.5398 7.19231,-3.5347 9.98161,-6.4875 2.03804,-2.1576 3.69097,-4.9038 4.60766,-7.8585 1.0625,-3.4151 1.17758,-7.2002 0.85327,-10.7937 -0.20989,-2.3264 -0.75127,-4.69202 -1.79089,-6.72745 -1.00627,-1.972 -2.4748,-3.70077 -4.148,-4.99865 -3.19992,-2.482 -7.02361,-3.96362 -10.81854,-4.97773 z" />
    </clipPath>
    <clipPath
       id="clipPath3129-7"
       clipPathUnits="userSpaceOnUse">
      <path
         inkscape:connector-curvature="0"
         id="path3131-8"
         d="M 0,0 170,0 170,170 0,170 0,0 z" />
    </clipPath>
    <clipPath
       id="clipPath3133-1"
       clipPathUnits="userSpaceOnUse">
      <path
         inkscape:connector-curvature="0"
         id="path3135-3"
         clip-rule="evenodd"
         d="m 87.52903,84.99963 c -0.58258,-0.0052 -1.16189,-0.06931 -1.72681,-0.22754 -1.20766,-0.33934 -2.34927,-1.03438 -3.366,-1.86411 -0.76631,-0.62573 -1.48685,-1.38223 -1.9975,-2.29631 -0.63619,-1.14685 -1.01673,-2.49508 -1.23839,-3.83873 -0.15888,-0.95004 -0.13338,-1.9465 -0.05165,-2.91158 0.03073,-0.34261 0.05885,-0.68719 0.08958,-1.037 -0.23997,-0.03335 -0.4747,-0.08435 -0.7127,-0.14842 -1.18477,-0.31385 -2.31134,-0.9605 -3.30977,-1.734 -0.75126,-0.58258 -1.4535,-1.28219 -1.95369,-2.13546 -0.62834,-1.06512 -1.00888,-2.3192 -1.22596,-3.56804 -0.15365,-0.88335 -0.13077,-1.80593 -0.04904,-2.70235 0.09743,-1.07754 0.13535,-2.24988 0.64143,-3.17965 1.19,-2.18908 3.1973,-3.8335 5.25626,-4.98035 0.92716,-0.51588 1.99947,-0.67934 3.03385,-0.76108 1.05792,-0.08696 2.14069,0 3.17246,0.27593 1.65489,0.442 2.97043,1.93342 4.72012,2.17338 0.53615,0.07389 1.64965,-0.99123 2.22177,-1.32273 0.92715,-0.51654 2.00273,-0.68 3.0345,-0.76173 1.05988,-0.08631 2.14004,0 3.1718,0.27592 1.65554,0.442 3.31831,1.09062 4.71231,2.17404 0.731,0.56427 1.3796,1.32012 1.819,2.18123 0.4518,0.88858 0.6865,1.92035 0.7787,2.93708 0.1406,1.56792 0.0896,3.22281 -0.3727,4.71227 -0.4008,1.28938 -1.124,2.48985 -2.0125,3.43269 -0.9403,0.99581 -2.0871,1.73662 -3.28496,2.33423 0.01569,0.13012 0.02812,0.25304 0.04119,0.38316 0.14254,1.68561 0.08893,3.46603 -0.38315,5.06992 -0.40604,1.38681 -1.139,2.67685 -2.04327,3.69031 -1.23904,1.3868 -2.84031,2.31919 -4.43635,3.04234 -0.884,0.3982 -1.83403,0.58193 -2.77623,0.68196 -0.57734,0.05885 -1.16777,0.10985 -1.7523,0.10462 z" />
    </clipPath>
    <clipPath
       id="clipPath3137-1"
       clipPathUnits="userSpaceOnUse">
      <path
         inkscape:connector-curvature="0"
         id="path3139-2"
         d="M 0,0 170,0 170,170 0,170 0,0 z" />
    </clipPath>
    <clipPath
       id="clipPath3141-8"
       clipPathUnits="userSpaceOnUse">
      <path
         inkscape:connector-curvature="0"
         id="path3143-5"
         clip-rule="evenodd"
         d="m -3.269231,39.23077 179.807731,0 0,-60.15385 -179.807731,0 0,60.15385 z" />
    </clipPath>
    <clipPath
       id="clipPath3145-2"
       clipPathUnits="userSpaceOnUse">
      <path
         inkscape:connector-curvature="0"
         id="path3147-6"
         d="M 0,0 170,0 170,170 0,170 0,0 z" />
    </clipPath>
    <clipPath
       id="clipPath3149-2"
       clipPathUnits="userSpaceOnUse">
      <path
         inkscape:connector-curvature="0"
         id="path3151-6"
         clip-rule="evenodd"
         d="m 105.1365,42.77178 c 10.4615,0.39362 -7.07004,-0.69961 3.3889,-0.0046 0.3884,5.3962 3.1672,9.31208 10.674,9.53439 5.9226,0.17588 11.9889,-3.46081 12.1596,-9.48339 1.392,0.051 3.9872,0.01766 3.9872,0.01766 l 0,-5.03658 -104.61543,0 0,5.03658 c 0,0 5.85911,-0.11769 8.77854,0.03073 5.99184,0.38838 11.77184,-0.41912 17.76892,0.15823 4.90385,0.13273 9.78415,-0.21708 14.66512,-0.22492 9.21007,0.29423 18.47115,-0.31385 27.67861,0.21707 1.83144,-0.153 3.67074,-0.44919 5.51454,-0.24519 z" />
    </clipPath>
    <clipPath
       id="clipPath3153-2"
       clipPathUnits="userSpaceOnUse">
      <path
         inkscape:connector-curvature="0"
         id="path3155-6"
         d="M 0,0 170,0 170,170 0,170 0,0 z" />
    </clipPath>
    <clipPath
       id="clipPath3157-7"
       clipPathUnits="userSpaceOnUse">
      <path
         inkscape:connector-curvature="0"
         id="path3159-5"
         clip-rule="evenodd"
         d="m 58.61142,87.61185 c -0.7055,0.01766 -1.50711,-0.03073 -2.08707,-0.14842 -0.43416,-0.08696 -0.97554,-0.442 -1.15927,-0.88858 -0.08435,-0.20204 -0.06408,-0.23538 -0.07193,-0.289 -0.01242,-0.23473 -0.01503,-0.34719 -0.01765,-0.47207 0,-0.24781 0.0078,-0.56493 0.01765,-0.91473 0.02093,-0.70224 0.05623,-1.53458 0.10527,-2.17339 0.051,-0.63358 0.05362,-4.48735 0.01766,-5.34061 -0.03073,-0.76108 -0.03073,-1.53981 0,-2.69712 0.01242,-0.43938 0.02288,-0.84281 0.0255,-1.13377 0.0026,-0.14581 0,-0.2635 0,-0.34 -0.01046,-0.17065 -0.0079,-0.19877 -0.0079,-0.22688 0,-0.06147 0.0052,-0.12554 0.0079,-0.20204 0.0078,-0.15562 0.02027,-0.36027 0.03596,-0.57473 0.04315,-0.58454 0.05361,-0.99843 0.0255,-2.31396 -0.0078,-0.44724 -0.02289,-0.85327 -0.03335,-1.15208 -0.0052,-0.14777 -0.01569,-0.27069 -0.01765,-0.34981 -0.01569,-0.153 -0.01569,-0.18635 -0.01831,-0.22492 -0.0072,-0.07912 -0.02027,-0.17589 -0.0255,-0.28835 -0.01242,-0.22492 -0.02288,-0.51588 -0.03531,-0.83038 -0.02615,-0.62573 -0.05427,-1.3175 -0.05165,-1.70066 0,-0.32954 0.0255,-1.00365 0.05165,-1.56334 0.02289,-0.52112 0.04054,-1.55027 0.04316,-2.24204 -0.05362,-1.26192 -0.0765,-2.78146 -0.0412,-3.66285 0.04643,-1.0115 -0.04315,-2.16815 -0.09415,-3.25157 -0.07388,-1.52477 -0.16869,-2.85535 -0.30404,-4.5717 -0.23996,-3.0188 -0.35504,-10.60211 -0.76369,-10.73223 -0.442,-0.14057 -0.61527,-0.0255 -1.13638,-0.06865 -0.289,-0.03073 -1.9975,-0.09481 -3.5785,-0.13339 -0.7892,-0.01765 -1.57316,-0.0353 -2.18908,-0.04315 -0.61789,-0.0052 -1.14881,0.01046 -1.13377,0.01046 -0.27069,0.02289 -0.61004,0.02027 -1.22335,0.0255 -0.60807,0.0052 -1.39204,0.0098 -2.20673,0.0072 -1.63461,0 -4.70965,0.01047 -6.83465,0.03597 -2.85077,0.03334 -5.17977,0.08696 -5.17977,0.08696 l 0,-5.23077 104.61543,0 0,5.13138 c 0,0 -6.122,-0.31188 -10.3034,-0.26807 l -2.4774,0.0255 c 0.3551,0.31646 0.7585,0.96507 1.1776,1.47115 0.391,0.47208 1.0292,1.088 1.5705,1.52673 0.2681,0.21773 0.6617,0.56754 0.9324,0.82777 0.2452,0.23538 0.6872,0.66169 0.986,0.94285 0.3086,0.29096 0.5336,0.51065 0.7179,0.76826 0.1812,0.25827 0.3139,0.61593 0.3139,0.92454 0,0.65123 -0.3322,1.18281 -0.9095,1.47639 -0.4237,0.21707 -1.0671,0.16607 -1.4659,-0.06146 -0.3191,-0.18635 -0.4342,-0.3217 -0.7225,-0.58454 -0.289,-0.26285 -0.6388,-0.60023 -1.022,-0.97816 -0.7689,-0.75388 -1.6575,-1.6575 -2.3395,-2.40092 -0.5008,-0.544 -0.7153,-0.76369 -0.9323,-0.99385 -0.003,0.2452 -0.005,0.50347 0.0333,0.77677 0.0589,0.4165 0.0817,1.14423 0.1046,2.19889 0.0334,1.428 0.0563,1.76473 0.1406,2.45192 0.087,0.69766 0.1353,0.97096 0.036,1.33581 -0.1125,0.40865 -0.3963,0.8075 -0.8481,0.99646 -0.2936,0.12227 -0.5008,0.11704 -0.7231,0.11181 -0.2243,-0.0046 -0.4316,-0.02027 -0.7075,-0.14777 -0.3648,-0.16869 -0.784,-0.65908 -0.8807,-1.12658 -0.0974,-0.4675 -0.0719,-0.93434 -0.0281,-1.66796 0.0588,-0.95723 0.0608,-1.23315 0,-2.93969 -0.0255,-0.77089 -0.008,-1.01869 0.0176,-1.32535 -0.3982,0.30666 -0.8552,0.66169 -1.0546,0.84543 -0.3708,0.34196 -0.8638,0.76107 -1.2672,1.08276 -0.1706,0.13797 -0.4413,0.32693 -0.733,0.52374 -0.2785,0.18896 -0.6178,0.4165 -0.748,0.50542 -0.391,0.26611 -0.8146,0.48058 -1.3286,0.46292 -0.5132,-0.01831 -0.95,-0.28638 -1.2815,-0.59304 -0.2459,-0.22688 -0.4727,-0.48515 -0.5774,-0.88073 -0.1026,-0.39884 0.0229,-0.85327 0.2014,-1.13704 0.2223,-0.3498 0.3832,-0.43677 0.6539,-0.65384 0.2733,-0.21708 0.6185,-0.46227 1.0141,-0.73296 0.4139,-0.28312 0.6872,-0.50804 1.3946,-1.14162 0.3244,-0.29096 0.7919,-0.66169 1.1521,-0.90885 0.2858,-0.19419 0.7049,-0.50607 0.8298,-0.61069 0.202,-0.17131 0.5106,-0.37007 0.5106,-0.37007 0,0 -0.61,0.09676 -0.85,0.1118 -1.0906,-0.0046 -1.3665,-0.16084 -2.2708,-0.13011 -7.3839,0.24257 -13.80727,0.29881 -22.52958,0.36027 0,0 0.03596,0.51588 0.051,1.0213 0.01766,0.5852 0.051,1.33581 0.07127,1.5967 0.02812,0.37792 0.03596,0.83234 0.01831,1.21288 -0.03073,0.61069 -0.0255,2.15312 0.0098,3.12146 0.01569,0.45181 0.05165,1.17496 0.07454,1.581 0.02027,0.35504 0.05623,0.81993 0.06865,0.9167 0.23538,1.78042 0.20923,6.97 -0.03335,8.82169 -0.02288,0.17654 -0.04577,0.34523 -0.07127,0.49038 -0.02288,0.14581 -0.0255,0.19158 -0.08696,0.39362 -0.10984,0.35504 -0.34196,0.71007 -0.67934,0.93238 -0.33935,0.22166 -0.7225,0.29881 -1.09323,0.29619 -0.45966,0 -1.54243,-0.12553 -1.90008,-0.55707 -0.35765,-0.43154 -0.40342,-0.91931 -0.41127,-1.41493 0.0079,-0.54138 0.01308,-1.03961 0.0255,-1.49142 0.051,-1.59669 -0.04838,-3.96884 -0.10462,-5.18238 -0.03596,-0.65123 -0.04576,-1.30508 -0.08696,-1.9537 -0.15038,-2.25053 -0.17588,-4.56188 -0.19942,-6.52342 0.0026,-1.09323 -0.06865,-2.29565 -0.11442,-3.32284 -0.53943,0.0255 -0.61331,0.0693 -1.16973,0.08696 -7.09293,-0.08435 -2.32443,0.0078 -8.74781,0.01307 -0.92192,0.0046 -1.73923,0.0327 -1.91839,0.05362 -1.28219,0.14515 -2.8985,0.21969 -4.75803,0.22688 -3.94597,0.0157 -6.6967,-0.03073 -8.06324,-0.14777 -1.09323,-0.0948 -1.09846,0.04054 -1.37438,0.04839 -0.44919,2.38785 -0.36485,4.59719 -0.34458,6.23704 0.03596,2.95277 -0.0255,3.49415 -0.03596,4.34677 -0.03334,2.85077 0.09742,5.52238 0.10462,7.01642 0.01307,1.66796 0.02811,2.24727 0.06146,2.50554 0.08696,0.65123 0.08434,1.94388 0.06146,3.75177 0,0.17392 0.01242,0.78657 0.02812,1.36131 0.04576,1.90269 0.06342,11.66723 0.0255,13.54442 -0.02027,0.94023 -0.051,5.97158 -0.06147,6.72742 -0.01242,0.77416 -0.0078,1.14946 -0.06865,1.51954 -0.03335,0.18438 -0.10004,0.41127 -0.25565,0.61069 -0.153,0.19943 -0.3217,0.29358 -0.40081,0.33935 -0.13535,0.08173 -0.3655,0.15365 -0.54139,0.17654 -0.17392,0.02027 -0.34,0.02811 -0.60023,0.03334 z" />
    </clipPath>
    <clipPath
       id="clipPath3161-4"
       clipPathUnits="userSpaceOnUse">
      <path
         inkscape:connector-curvature="0"
         id="path3163-6"
         d="M 0,0 170,0 170,170 0,170 0,0 z" />
    </clipPath>
    <clipPath
       id="clipPath3165-7"
       clipPathUnits="userSpaceOnUse">
      <path
         inkscape:connector-curvature="0"
         id="path3167-7"
         clip-rule="evenodd"
         d="m 63.19249,87.25307 c -2.36561,-0.63096 -4.84565,-0.83496 -7.27142,-0.64077 -2.36823,0.18896 -4.82473,0.5695 -6.94711,1.74969 -4.72012,2.62781 -9.32254,6.39527 -12.05039,11.41158 -1.15469,2.12953 -1.24623,4.80383 -1.46854,7.27663 -0.18634,2.0557 -0.24257,4.1657 0.11246,6.1933 0.5002,2.8605 1.36131,5.7368 2.7965,8.1783 1.14685,1.9491 2.771,3.5628 4.49258,4.896 2.29108,1.7725 4.85808,3.2489 7.57546,3.9721 2.53627,0.6767 5.22554,0.5132 7.82327,0.2576 2.12239,-0.2066 4.26504,-0.6029 6.25208,-1.4509 3.59615,-1.5398 7.19231,-3.5347 9.98161,-6.4875 2.03804,-2.1576 3.69097,-4.9038 4.60766,-7.8585 1.0625,-3.4151 1.17758,-7.2002 0.85327,-10.7937 -0.20989,-2.3264 -0.75127,-4.69202 -1.79089,-6.72745 -1.00627,-1.972 -2.4748,-3.70077 -4.148,-4.99865 -3.19992,-2.482 -7.02361,-3.96362 -10.81854,-4.97773 z" />
    </clipPath>
    <clipPath
       id="clipPath3169-1"
       clipPathUnits="userSpaceOnUse">
      <path
         inkscape:connector-curvature="0"
         id="path3171-1"
         d="M 0,0 170,0 170,170 0,170 0,0 z" />
    </clipPath>
    <clipPath
       id="clipPath3173-7"
       clipPathUnits="userSpaceOnUse">
      <path
         inkscape:connector-curvature="0"
         id="path3175-6"
         clip-rule="evenodd"
         d="m 87.52903,84.99963 c -0.58258,-0.0052 -1.16189,-0.06931 -1.72681,-0.22754 -1.20766,-0.33934 -2.34927,-1.03438 -3.366,-1.86411 -0.76631,-0.62573 -1.48685,-1.38223 -1.9975,-2.29631 -0.63619,-1.14685 -1.01673,-2.49508 -1.23839,-3.83873 -0.15888,-0.95004 -0.13338,-1.9465 -0.05165,-2.91158 0.03073,-0.34261 0.05885,-0.68719 0.08958,-1.037 -0.23997,-0.03335 -0.4747,-0.08435 -0.7127,-0.14842 -1.18477,-0.31385 -2.31134,-0.9605 -3.30977,-1.734 -0.75126,-0.58258 -1.4535,-1.28219 -1.95369,-2.13546 -0.62834,-1.06512 -1.00888,-2.3192 -1.22596,-3.56804 -0.15365,-0.88335 -0.13077,-1.80593 -0.04904,-2.70235 0.09743,-1.07754 0.13535,-2.24988 0.64143,-3.17965 1.19,-2.18908 3.1973,-3.8335 5.25626,-4.98035 0.92716,-0.51588 1.99947,-0.67934 3.03385,-0.76108 1.05792,-0.08696 2.14069,0 3.17246,0.27593 1.65489,0.442 2.97043,1.93342 4.72012,2.17338 0.53615,0.07389 1.64965,-0.99123 2.22177,-1.32273 0.92715,-0.51654 2.00273,-0.68 3.0345,-0.76173 1.05988,-0.08631 2.14004,0 3.1718,0.27592 1.65554,0.442 3.31831,1.09062 4.71231,2.17404 0.731,0.56427 1.3796,1.32012 1.819,2.18123 0.4518,0.88858 0.6865,1.92035 0.7787,2.93708 0.1406,1.56792 0.0896,3.22281 -0.3727,4.71227 -0.4008,1.28938 -1.124,2.48985 -2.0125,3.43269 -0.9403,0.99581 -2.0871,1.73662 -3.28496,2.33423 0.01569,0.13012 0.02812,0.25304 0.04119,0.38316 0.14254,1.68561 0.08893,3.46603 -0.38315,5.06992 -0.40604,1.38681 -1.139,2.67685 -2.04327,3.69031 -1.23904,1.3868 -2.84031,2.31919 -4.43635,3.04234 -0.884,0.3982 -1.83403,0.58193 -2.77623,0.68196 -0.57734,0.05885 -1.16777,0.10985 -1.7523,0.10462 z" />
    </clipPath>
    <clipPath
       id="clipPath3177-7"
       clipPathUnits="userSpaceOnUse">
      <path
         inkscape:connector-curvature="0"
         id="path3179-9"
         d="M 0,0 170,0 170,170 0,170 0,0 z" />
    </clipPath>
  </defs>
  <sodipodi:namedview
     id="base"
     pagecolor="#ffffff"
     bordercolor="#666666"
     borderopacity="1.0"
     inkscape:pageopacity="0.0"
     inkscape:pageshadow="2"
     inkscape:zoom="3.9666667"
     inkscape:cx="59.747899"
     inkscape:cy="110.16807"
     inkscape:document-units="px"
     inkscape:current-layer="layer1"
     showgrid="true"
     inkscape:window-width="1440"
     inkscape:window-height="855"
     inkscape:window-x="0"
     inkscape:window-y="23"
     inkscape:window-maximized="0"
     showguides="true"
     inkscape:guide-bbox="true"
     inkscape:snap-global="true"
     fit-margin-top="0"
     fit-margin-left="0"
     fit-margin-right="0"
     fit-margin-bottom="0">
    <inkscape:grid
       type="xygrid"
       id="grid3723"
       empspacing="5"
       visible="true"
       enabled="true"
       snapvisiblegridlinesonly="true"
       originx="0px"
       originy="0px" />
  </sodipodi:namedview>
  <metadata
     id="metadata7">
    <rdf:RDF>
      <cc:Work
         rdf:about="">
        <dc:format>image/svg+xml</dc:format>
        <dc:type
           rdf:resource="http://purl.org/dc/dcmitype/StillImage" />
        <dc:title />
      </cc:Work>
    </rdf:RDF>
  </metadata>
  <g
     inkscape:label="Layer 1"
     inkscape:groupmode="layer"
     id="layer1"
     style="display:inline"
     transform="translate(-101.38421,-126.23982)">
    <path
       style="color:#000000;fill:#6e9c2a;fill-opacity:1;fill-rule:evenodd;stroke:none;stroke-width:40;marker:none;visibility:visible;display:inline;overflow:visible;enable-background:accumulate"
       d="m 242.66546,267.80232 c -10.9842,0.32544 -15.08405,6.02736 -15.6875,13.90625 -0.003,0.0418 0.003,0.0831 0,0.125 -1.87585,0.12425 -1.69889,0.10138 -2.5,0.15625 1.22673,-0.0953 2.3547,-0.2248 2.5,-0.28125 -0.0954,-0.0457 -1.31739,-0.0141 -5,0.125 -2.71006,0.29914 -5.42925,-0.15109 -8.125,-0.375 -13.54555,0.78156 -27.13979,-0.12098 -40.6875,0.3125 -7.18329,-0.012 -14.38127,-0.50743 -21.59375,-0.3125 -8.82295,0.84946 -17.31184,-0.35296 -26.125,0.21875 -4.29701,0.2178 -13.46875,0.0625 -13.46875,0.0625 l -10.59375,0 0,7.3125 c 4.68446,0.0293 11.125,0.0937 11.125,0.0937 l 154.09375,0 14.78125,0 0,-7.40625 -14.75,0 c 0,0 -4.04521,-0.0781 -6.09375,0 -0.25145,-8.86398 -9.16148,-14.19566 -17.875,-13.9375 z"
       id="rect4651"
       inkscape:connector-curvature="0" />
    <path
       style="font-size:medium;font-style:normal;font-variant:normal;font-weight:normal;font-stretch:normal;text-indent:0;text-align:start;text-decoration:none;line-height:normal;letter-spacing:normal;word-spacing:normal;text-transform:none;direction:ltr;block-progression:tb;writing-mode:lr-tb;text-anchor:start;baseline-shift:baseline;color:#000000;fill:#555632;fill-opacity:1;fill-rule:nonzero;stroke:none;stroke-width:6.19999981;marker:none;visibility:visible;display:inline;overflow:visible;enable-background:accumulate;font-family:Sans;-inkscape-font-specification:Sans"
       d="M 52.15625 89.84375 C 51.12028 89.81915 49.94481 89.88885 49.09375 90.0625 C 48.45342 90.19283 47.64839 90.71458 47.375 91.375 C 47.25273 91.67024 47.29015 91.70282 47.28125 91.78125 C 47.27225 91.85965 47.2529 91.92985 47.25 92 C 47.243 92.14031 47.2506 92.28578 47.25 92.46875 C 47.24918 92.83466 47.26665 93.32688 47.28125 93.84375 C 47.31155 94.87747 47.36555 96.09191 47.4375 97.03125 C 47.5103 97.96392 47.4887 103.65144 47.4375 104.90625 C 47.3925 106.0239 47.3936 107.14267 47.4375 108.84375 C 47.4542 109.49066 47.4943 110.10146 47.5 110.53125 C 47.503 110.74615 47.50035 110.91832 47.5 111.03125 C 47.4999 111.06255 47.50028 111.07375 47.5 111.09375 C 47.49958 111.10075 47.50036 111.1204 47.5 111.125 C 47.49989 111.13 47.50007 111.15385 47.5 111.15625 C 47.498 111.18225 47.46945 111.20085 47.46875 111.21875 C 47.46675 111.27795 47.46834 111.33093 47.46875 111.375 C 47.46975 111.4631 47.4952 111.54224 47.5 111.65625 C 47.511 111.88423 47.50805 112.18281 47.53125 112.5 C 47.59625 113.35833 47.63385 113.97168 47.59375 115.90625 C 47.58035 116.56421 47.54645 117.15506 47.53125 117.59375 C 47.52325 117.81311 47.506 118.00956 47.5 118.125 C 47.499 118.1506 47.501 118.13765 47.5 118.15625 C 47.498 118.17165 47.501 118.21095 47.5 118.21875 C 47.49984 118.22075 47.50011 118.2486 47.5 118.25 C 47.498 118.2662 47.502 118.26775 47.5 118.28125 C 47.492 118.34165 47.47355 118.38045 47.46875 118.4375 C 47.45875 118.55173 47.4471 118.7104 47.4375 118.875 C 47.4184 119.20423 47.394 119.63253 47.375 120.09375 C 47.337 121.01624 47.3123 122.02807 47.3125 122.59375 C 47.3125 123.08028 47.338 124.08623 47.375 124.90625 C 47.4095 125.67292 47.4351 127.1697 47.4375 128.1875 C 47.3582 130.04424 47.32401 132.29503 47.375 133.59375 C 47.4424 135.08023 47.3259 136.78141 47.25 138.375 C 47.14302 140.62047 47.01256 142.56818 46.8125 145.09375 C 46.46065 149.53537 46.28871 160.71323 45.6875 160.90625 C 45.04072 161.11392 44.76546 160.935 44 161 C 43.57544 161.0438 41.07538 161.13098 38.75 161.1875 C 37.58729 161.2158 36.43854 161.2403 35.53125 161.25 C 34.62397 161.26 33.82273 161.248 33.84375 161.25 C 33.44548 161.2137 32.96236 161.22715 32.0625 161.21875 C 31.16617 161.20975 30.01005 161.1855 28.8125 161.1875 C 26.42224 161.18745 21.87467 161.19345 18.75 161.15625 C 16.77518 161.13265 8.17281 161.0871 0 161.0625 L 0 180 L 180 180 L 180 161.28125 C 167.01833 161.43294 153.17756 161.59738 149.875 161.5625 L 146.21875 161.53125 C 146.74271 161.06751 147.3517 160.08834 147.96875 159.34375 C 148.54437 158.64913 149.48501 157.7403 150.28125 157.09375 C 150.67818 156.7715 151.25539 156.25905 151.65625 155.875 C 152.01506 155.53122 152.65356 154.9136 153.09375 154.5 C 153.54705 154.07411 153.88818 153.75521 154.15625 153.375 C 154.42431 152.99479 154.625 152.45706 154.625 152 C 154.625 151.04337 154.12859 150.27607 153.28125 149.84375 C 152.65489 149.52402 151.70894 149.60209 151.125 149.9375 C 150.65313 150.20918 150.48654 150.39341 150.0625 150.78125 C 149.63848 151.16909 149.12771 151.6645 148.5625 152.21875 C 147.43209 153.32724 146.12722 154.65719 145.125 155.75 C 144.38768 156.55395 144.071 156.8814 143.75 157.21875 C 143.747 156.85706 143.72595 156.4974 143.78125 156.09375 C 143.86545 155.47983 143.90208 154.39688 143.9375 152.84375 C 143.9858 150.7436 144.0319 150.26059 144.15625 149.25 C 144.28243 148.22358 144.3361 147.82019 144.1875 147.28125 C 144.02212 146.68133 143.63126 146.08939 142.96875 145.8125 C 142.53748 145.6322 142.20227 145.61629 141.875 145.625 C 141.54773 145.634 141.25047 145.6569 140.84375 145.84375 C 140.30682 146.09046 139.70472 146.81253 139.5625 147.5 C 139.42028 148.18747 139.43427 148.89191 139.5 149.96875 C 139.5862 151.3811 139.5877 151.77204 139.5 154.28125 C 139.4602 155.41536 139.49305 155.79663 139.53125 156.25 C 138.94357 155.79936 138.29378 155.27158 138 155 C 137.45754 154.49847 136.71599 153.87774 136.125 153.40625 C 135.87093 153.20358 135.48834 152.91483 135.0625 152.625 C 134.65259 152.34602 134.13208 152.03874 133.9375 151.90625 C 133.36482 151.51651 132.75435 151.19404 132 151.21875 C 131.24565 151.24345 130.58188 151.64138 130.09375 152.09375 C 129.7335 152.42744 129.40325 152.78983 129.25 153.375 C 129.09675 153.96017 129.2982 154.64546 129.5625 155.0625 C 129.88986 155.57881 130.0998 155.71057 130.5 156.03125 C 130.9002 156.35194 131.41845 156.69548 132 157.09375 C 132.61127 157.51247 133.02004 157.84837 134.0625 158.78125 C 134.53965 159.20828 135.21937 159.76145 135.75 160.125 C 136.17008 160.41287 136.78582 160.84498 136.96875 161 C 137.26425 161.2505 137.71875 161.5625 137.71875 161.5625 C 137.71875 161.5625 136.82327 161.43044 136.46875 161.40625 C 134.86674 161.41525 134.45502 161.63757 133.125 161.59375 C 122.26309 161.236 112.832 161.15109 100 161.0625 C 100 161.0625 100.0392 160.30633 100.0625 159.5625 C 100.0891 158.70142 100.12625 157.5697 100.15625 157.1875 C 100.19995 156.6328 100.2151 155.96633 100.1875 155.40625 C 100.1432 154.50833 100.16625 152.23518 100.21875 150.8125 C 100.24335 150.14571 100.2794 149.09837 100.3125 148.5 C 100.3415 147.98004 100.4189 147.2986 100.4375 147.15625 C 100.78243 144.53477 100.73375 136.8829 100.375 134.15625 C 100.3411 133.89765 100.31645 133.65181 100.28125 133.4375 C 100.24595 133.22318 100.24755 133.16913 100.15625 132.875 C 99.99345 132.35127 99.62208 131.82667 99.125 131.5 C 98.62792 131.17335 98.07442 131.06102 97.53125 131.0625 C 96.85351 131.0625 95.27589 131.23981 94.75 131.875 C 94.22411 132.5102 94.13478 133.23818 94.125 133.96875 C 94.134 134.76761 94.1674 135.48991 94.1875 136.15625 C 94.2601 138.50485 94.1132 141.99807 94.03125 143.78125 C 93.97775 144.73994 93.93665 145.69987 93.875 146.65625 C 93.6544 149.9672 93.62938 153.36497 93.59375 156.25 C 93.59775 157.8591 93.50495 159.64445 93.4375 161.15625 C 92.64391 161.11755 92.53804 161.05825 91.71875 161.03125 C 81.28357 161.15433 88.29247 161.0075 78.84375 161 C 77.48805 160.995 76.26479 160.93635 76 160.90625 C 74.1141 160.69169 71.76384 160.60424 69.03125 160.59375 C 63.2246 160.57155 59.16639 160.63915 57.15625 160.8125 C 55.54587 160.95155 55.53095 160.73055 55.125 160.71875 C 54.4668 157.20263 54.59566 153.97737 54.625 151.5625 C 54.6768 147.22029 54.5772 146.41025 54.5625 145.15625 C 54.5137 140.96201 54.70431 137.01174 54.71875 134.8125 C 54.73515 132.35674 54.7624 131.53644 54.8125 131.15625 C 54.81268 131.15525 54.81233 131.1263 54.8125 131.125 C 54.93866 130.17951 54.94001 128.28785 54.90625 125.625 C 54.9061 125.6126 54.90642 125.60605 54.90625 125.59375 C 54.90655 125.36477 54.9167 124.4707 54.9375 123.625 C 55.0058 120.82295 55.059 106.44959 55 103.6875 C 54.9705 102.30357 54.92275 94.89611 54.90625 93.78125 C 54.88975 92.64484 54.87295 92.07651 54.78125 91.53125 C 54.73515 91.25863 54.66321 90.94819 54.4375 90.65625 C 54.21179 90.36431 53.95806 90.22339 53.84375 90.15625 C 53.64332 90.03858 53.28893 89.90741 53.03125 89.875 C 52.77357 89.8426 52.54208 89.85275 52.15625 89.84375 z "
       transform="translate(101.38421,126.23982)"
       id="path3903" />
    <path
       style="color:#000000;fill:#6e9c2a;fill-opacity:1;fill-rule:nonzero;stroke:none;marker:none;visibility:visible;display:inline;overflow:visible;enable-background:accumulate"
       d="m 160.62935,217.06055 c -3.47737,0.92889 -7.12879,1.22826 -10.69612,0.94266 -3.48428,-0.27899 -7.09738,-0.83679 -10.22008,-2.57547 -6.94318,-3.86589 -13.71463,-9.4092 -17.72477,-16.79499 -1.70095,-3.13279 -1.83412,-7.06819 -2.16356,-10.70788 -0.27365,-3.02317 -0.35382,-6.13049 0.16717,-9.11332 0.73575,-4.21251 2.00081,-8.44257 4.11394,-12.03532 1.68815,-2.87017 4.07501,-5.24601 6.60743,-7.20692 3.36997,-2.60944 7.14895,-4.78243 11.14405,-5.84694 3.73263,-0.99458 7.68716,-0.75473 11.51079,-0.37862 3.11924,0.30683 6.27331,0.88611 9.19507,2.13704 5.29259,2.26597 10.58053,5.20016 14.68498,9.54741 2.9973,3.17461 5.42715,7.21697 6.77779,11.56488 1.56079,5.02438 1.73016,10.59527 1.25329,15.88368 -0.30875,3.42404 -1.10334,6.90766 -2.63164,9.90135 -1.48083,2.9007 -3.64178,5.44791 -6.1037,7.3572 -4.70791,3.65113 -10.3313,5.83379 -15.91464,7.32524 z"
       id="path3976"
       inkscape:connector-curvature="0"
       sodipodi:nodetypes="aaaaaaaaaaaaaaaaa" />
    <path
       style="color:#000000;fill:#6e9c2a;fill-opacity:1;stroke:none;stroke-width:0.48244843;marker:none;visibility:visible;display:inline;overflow:visible;enable-background:accumulate"
       d="m 196.84988,220.09399 c -0.85888,0.008 -1.71256,0.10087 -2.54174,0.33428 -1.77499,0.49966 -3.45499,1.52096 -4.95223,2.7458 -1.12513,0.92044 -2.18551,2.03133 -2.93553,3.37857 -0.93885,1.68639 -1.49887,3.66953 -1.82577,5.64685 -0.23146,1.4001 -0.19317,2.86681 -0.0716,4.28586 0.0432,0.50483 0.083,1.01234 0.13127,1.52811 -0.35592,0.0483 -0.70154,0.12197 -1.05011,0.21488 -1.74293,0.46466 -3.3985,1.41584 -4.86869,2.55482 -1.1048,0.8559 -2.1394,1.88699 -2.87587,3.13978 -0.92189,1.56818 -1.48091,3.41418 -1.80189,5.25288 -0.22729,1.30195 -0.19098,2.65589 -0.0716,3.97547 0.14372,1.58866 0.20065,3.31243 0.9427,4.67984 1.74948,3.22378 4.70359,5.64273 7.73263,7.33014 1.36232,0.75892 2.94291,1.00044 4.46298,1.12221 1.55629,0.12467 3.14878,-3.8e-4 4.66582,-0.40591 2.4358,-0.65099 4.36987,-2.8466 6.94505,-3.19948 0.78866,-0.10802 2.42475,1.45855 3.26966,1.94596 1.36232,0.7589 2.94291,1.00044 4.46297,1.1222 1.55628,0.12467 3.14878,-3.8e-4 4.66583,-0.4059 2.43581,-0.65099 4.87923,-1.60581 6.93312,-3.19948 1.07404,-0.83337 2.02698,-1.9453 2.67301,-3.21142 0.66674,-1.30669 1.01088,-2.82714 1.14557,-4.32168 0.20804,-2.30831 0.132,-4.74311 -0.54892,-6.93618 -0.58923,-1.8978 -1.65179,-3.66426 -2.9594,-5.04993 -1.38299,-1.46554 -3.07088,-2.55876 -4.8329,-3.43825 0.0223,-0.18932 0.0435,-0.37213 0.0597,-0.5611 0.21187,-2.48233 0.13259,-5.10308 -0.56085,-7.46147 -0.60008,-2.04086 -1.67546,-3.94182 -3.00714,-5.43194 -1.82356,-2.04056 -4.17594,-3.41326 -6.52738,-4.47689 -1.29811,-0.58717 -2.69527,-0.8588 -4.08111,-1.00282 -0.84941,-0.0883 -1.71867,-0.16334 -2.57755,-0.1552 z"
       id="path3976-6"
       inkscape:connector-curvature="0"
       sodipodi:nodetypes="sssssscsssssssssscssssssscssssss" />
  </g>
</svg>
