<?xml version="1.0" standalone="no"?>
<!DOCTYPE svg PUBLIC "-//W3C//DTD SVG 20010904//EN"
 "http://www.w3.org/TR/2001/REC-SVG-20010904/DTD/svg10.dtd">
<svg version="1.0" xmlns="http://www.w3.org/2000/svg"
 width="700.000000pt" height="700.000000pt" viewBox="0 0 700.000000 700.000000"
 preserveAspectRatio="xMidYMid meet">
<metadata>
Created by potrace 1.11, written by Peter Selinger 2001-2013
</metadata>
<g transform="translate(0.000000,700.000000) scale(0.100000,-0.100000)"
fill="#000000" stroke="none">
<path d="M1675 6179 c-238 -32 -539 -209 -711 -418 -120 -145 -214 -390 -244
-634 -20 -163 14 -526 60 -651 60 -158 280 -415 482 -560 197 -142 328 -204
483 -228 39 -6 75 -12 81 -13 29 -8 21 -1709 -10 -2205 -8 -135 -15 -256 -16
-269 l0 -24 -244 6 c-135 3 -540 3 -900 0 l-656 -6 0 -589 0 -588 3500 0 3500
0 0 590 0 590 -407 2 -408 3 -7 55 c-27 222 -210 398 -476 461 -126 30 -332
23 -448 -15 -213 -69 -330 -215 -359 -448 l-7 -56 -495 1 -495 1 7 331 c4 181
9 332 11 334 2 2 21 -4 44 -13 65 -26 194 -31 283 -12 204 46 343 139 402 269
33 73 49 214 36 311 -26 187 -109 311 -275 408 l-46 28 0 112 c0 193 -45 312
-160 428 -138 139 -338 214 -523 197 -116 -10 -272 -111 -349 -224 -65 -95
-103 -259 -92 -395 l7 -74 -51 -13 c-57 -14 -142 -62 -204 -115 -86 -74 -134
-170 -158 -318 -13 -81 4 -255 30 -311 28 -59 111 -158 173 -205 142 -110 235
-140 392 -129 66 5 93 13 158 46 l77 39 0 -72 c0 -39 -5 -196 -12 -349 l-12
-277 -750 5 c-458 3 -753 8 -759 14 -6 6 -7 162 -2 423 4 227 9 782 11 1233
l4 819 68 12 c200 34 482 146 654 261 129 86 254 233 314 370 96 216 119 627
49 898 -70 271 -233 503 -474 675 -43 32 -153 94 -243 139 -170 85 -271 118
-432 140 -114 16 -321 21 -401 10z"/>
</g>
</svg>
