<?xml version="1.0" standalone="no"?>
<!DOCTYPE svg PUBLIC "-//W3C//DTD SVG 20010904//EN"
 "http://www.w3.org/TR/2001/REC-SVG-20010904/DTD/svg10.dtd">
<svg version="1.0" xmlns="http://www.w3.org/2000/svg"
 width="700.000000pt" height="700.000000pt" viewBox="0 0 700.000000 700.000000"
 preserveAspectRatio="xMidYMid meet">
<metadata>
Created by potrace 1.11, written by Peter Selinger 2001-2013
</metadata>
<g transform="translate(0.000000,700.000000) scale(0.100000,-0.100000)"
fill="#000000" stroke="none">
<path d="M1639 5944 c-122 -23 -334 -114 -404 -173 -11 -9 -40 -30 -64 -47
-62 -41 -180 -153 -228 -216 -88 -115 -162 -288 -204 -479 -37 -164 -31 -487
12 -699 20 -99 113 -264 213 -380 115 -131 301 -285 458 -378 128 -75 200
-100 368 -130 l44 -7 4 -50 c3 -28 5 -405 5 -840 1 -688 -4 -979 -18 -1115 -2
-19 -7 -107 -10 -195 -4 -88 -9 -178 -10 -200 -2 -22 -4 -49 -4 -60 -1 -20 -8
-20 -863 -20 -475 0 -880 -2 -900 -4 l-38 -3 0 -474 0 -474 3500 0 3500 0 0
478 0 477 -405 -1 c-297 -1 -405 1 -406 10 0 6 -2 20 -4 31 -2 11 -6 38 -10
60 -3 21 -9 44 -14 50 -4 5 -14 26 -21 45 -16 42 -87 136 -126 169 -141 115
-309 174 -499 174 -319 0 -527 -129 -599 -373 -9 -30 -19 -77 -22 -105 -3 -27
-9 -53 -13 -57 -9 -10 -339 -12 -426 -3 -38 5 -79 8 -90 8 -11 -1 -121 -4
-245 -8 l-225 -7 2 109 c0 59 5 160 9 223 4 63 8 165 8 225 l0 111 52 -18
c220 -74 558 41 664 227 80 139 78 385 -3 539 -39 74 -125 163 -202 207 l-59
35 -1 114 c-3 197 -48 314 -170 435 -157 157 -419 234 -596 175 -120 -40 -256
-154 -304 -256 -42 -88 -64 -203 -62 -318 l2 -101 -56 -17 c-89 -28 -201 -108
-267 -192 -24 -30 -61 -120 -76 -186 -19 -78 -15 -261 7 -331 34 -109 178
-257 327 -334 70 -37 212 -50 320 -30 19 3 65 21 103 40 41 21 67 30 68 22 1
-36 -3 -228 -6 -260 -3 -32 -14 -324 -15 -393 l0 -21 -652 3 c-359 2 -700 5
-758 6 l-105 3 3 485 c2 267 5 824 5 1237 2 662 4 753 17 754 164 7 527 144
710 267 210 142 355 369 386 602 3 25 9 64 13 86 15 82 10 374 -9 480 -65 379
-284 677 -637 870 -245 134 -367 175 -593 200 -102 12 -315 10 -381 -2z"/>
</g>
</svg>
