<svg xmlns="http://www.w3.org/2000/svg" width="180" height="180"><g color="#000"><path style="marker:none" d="M141.281 141.563c-10.984.325-15.084 6.027-15.687 13.906-.003.042.003.083 0 .125-1.876.124-1.7.101-2.5.156 1.226-.095 2.354-.225 2.5-.281-.096-.046-1.318-.014-5 .125-2.71.299-5.43-.151-8.125-.375-13.546.781-27.14-.121-40.688.312-7.183-.012-14.381-.507-21.594-.312-8.822.85-17.311-.353-26.124.219-4.298.217-13.47.062-13.47.062H0v7.313c4.684.029 11.125.093 11.125.093H180V155.5h-14.75s-4.045-.078-6.094 0c-.251-8.864-9.161-14.196-17.875-13.938z" fill="#6e9c2a" fill-rule="evenodd" overflow="visible"/><path style="text-indent:0;text-align:start;line-height:normal;text-transform:none;block-progression:tb;marker:none;-inkscape-font-specification:Sans" d="M52.156 89.844c-1.036-.025-2.211.045-3.062.219-.64.13-1.446.652-1.719 1.312-.122.295-.085.328-.094.406-.009.079-.028.149-.031.219-.007.14 0 .286 0 .469 0 .366.017.858.031 1.375.03 1.033.085 2.248.157 3.187.072.933.05 6.62 0 7.875-.046 1.118-.044 2.237 0 3.938.016.647.056 1.257.062 1.687.003.215 0 .387 0 .5v.125c-.002.026-.03.045-.031.063-.002.059 0 .112 0 .156 0 .088.026.167.031.281.011.228.008.527.031.844.065.858.103 1.472.063 3.406-.014.658-.048 1.25-.063 1.688-.008.22-.025.416-.031.531v.031c-.002.016.001.055 0 .063v.031c-.002.016.002.018 0 .031-.008.06-.026.1-.031.156-.01.115-.022.273-.032.438a71.894 71.894 0 0 0-.124 3.719c0 .486.025 1.492.062 2.312.035.767.06 2.264.063 3.281-.08 1.857-.114 4.108-.063 5.407.067 1.486-.05 3.187-.125 4.781a202.145 202.145 0 0 1-.438 6.719c-.351 4.441-.523 15.62-1.124 15.812-.647.208-.923.029-1.688.094-.425.044-2.925.131-5.25.188a263.11 263.11 0 0 1-3.219.062c-.907.01-1.708-.002-1.687 0-.399-.036-.882-.023-1.782-.031-.896-.01-2.052-.034-3.25-.031-2.39 0-6.937.005-10.062-.032A3667.54 3667.54 0 0 0 0 161.062V180h180v-18.719c-12.982.152-26.822.316-30.125.281l-3.656-.03c.524-.464 1.133-1.444 1.75-2.188.575-.695 1.516-1.604 2.312-2.25.397-.322.974-.835 1.375-1.219.36-.344.998-.961 1.438-1.375.453-.426.794-.745 1.062-1.125s.469-.918.469-1.375c0-.957-.496-1.724-1.344-2.156-.626-.32-1.572-.242-2.156.094-.472.271-.638.455-1.063.843-.424.388-.934.883-1.5 1.438a100.036 100.036 0 0 0-3.437 3.531c-.737.804-1.054 1.131-1.375 1.469-.003-.362-.024-.722.031-1.125.084-.614.121-1.697.156-3.25.049-2.1.095-2.583.22-3.594.125-1.026.18-1.43.03-1.969-.165-.6-.556-1.192-1.218-1.469a2.445 2.445 0 0 0-1.094-.187c-.327.009-.625.032-1.031.219-.537.246-1.14.969-1.281 1.656-.143.687-.129 1.392-.063 2.469.086 1.412.088 1.803 0 4.312-.04 1.134-.007 1.516.031 1.969-.587-.45-1.237-.978-1.531-1.25a37.17 37.17 0 0 0-1.875-1.594 18.176 18.176 0 0 0-1.063-.781c-.41-.279-.93-.586-1.125-.719-.572-.39-1.183-.712-1.937-.687-.754.024-1.418.422-1.906.875-.36.333-.69.696-.844 1.281-.153.585.048 1.27.313 1.688.327.516.537.648.937.968.4.32.918.664 1.5 1.063.611.418 1.02.754 2.063 1.687.477.427 1.156.98 1.687 1.344.42.288 1.036.72 1.219.875.295.25.75.563.75.563s-.896-.133-1.25-.157c-1.602.01-2.014.232-3.344.188-10.862-.358-20.293-.443-33.125-.531 0 0 .04-.757.063-1.5.026-.862.063-1.993.093-2.375.044-.555.06-1.222.031-1.782-.044-.898-.02-3.17.032-4.594.024-.666.06-1.714.094-2.312.028-.52.106-1.201.124-1.344.345-2.621.297-10.273-.062-13-.034-.258-.059-.504-.094-.719-.035-.214-.033-.268-.125-.562a2.625 2.625 0 0 0-1.031-1.375c-.497-.327-1.05-.439-1.594-.438-.677 0-2.255.178-2.781.813-.526.635-.615 1.363-.625 2.094.009.799.042 1.52.063 2.187.072 2.349-.075 5.842-.157 7.625-.053.959-.094 1.919-.156 2.875-.22 3.311-.246 6.709-.281 9.594.004 1.61-.09 3.394-.156 4.906-.794-.038-.9-.098-1.72-.125-10.434.123-3.426-.024-12.874-.031-1.356-.005-2.58-.064-2.844-.094-1.886-.214-4.236-.302-6.969-.312-5.806-.022-9.865.045-11.875.219-1.61.139-1.625-.082-2.031-.094-.658-3.516-.53-6.742-.5-9.156.052-4.343-.048-5.153-.063-6.407-.048-4.194.142-8.144.157-10.344.016-2.455.043-3.276.093-3.656v-.031c.127-.945.128-2.837.094-5.5v-.031c0-.23.01-1.123.032-1.969.068-2.802.121-17.175.062-19.938-.03-1.383-.077-8.79-.094-9.906-.016-1.136-.033-1.704-.125-2.25-.046-.272-.118-.583-.343-.875-.226-.292-.48-.433-.594-.5a2.499 2.499 0 0 0-.813-.281c-.257-.032-.489-.022-.875-.031z" font-weight="400" fill="#555632" overflow="visible" font-family="Sans"/><path style="marker:none" d="M59.245 90.82c-3.477.93-7.129 1.229-10.696.943-3.484-.279-7.097-.836-10.22-2.575-6.943-3.866-13.715-9.41-17.725-16.795-1.7-3.133-1.834-7.068-2.163-10.708-.274-3.023-.354-6.13.167-9.113.736-4.213 2-8.443 4.114-12.036 1.688-2.87 4.075-5.246 6.607-7.207 3.37-2.609 7.15-4.782 11.144-5.846 3.733-.995 7.687-.755 11.511-.38 3.12.308 6.273.887 9.195 2.138 5.293 2.266 10.58 5.2 14.685 9.547 2.997 3.175 5.427 7.217 6.778 11.565 1.56 5.025 1.73 10.596 1.253 15.884-.309 3.424-1.103 6.908-2.632 9.901a22.203 22.203 0 0 1-6.103 7.357c-4.708 3.652-10.332 5.834-15.915 7.326zm36.221 3.034c-.86.008-1.713.101-2.542.334-1.775.5-3.455 1.521-4.952 2.746-1.125.92-2.186 2.032-2.936 3.379-.939 1.686-1.499 3.67-1.826 5.647-.231 1.4-.193 2.866-.071 4.286.043.504.083 1.012.131 1.528a8.485 8.485 0 0 0-1.05.215c-1.743.464-3.399 1.415-4.869 2.554-1.105.856-2.14 1.887-2.876 3.14-.921 1.568-1.48 3.414-1.801 5.253-.228 1.302-.191 2.656-.072 3.975.144 1.59.2 3.313.943 4.68 1.75 3.224 4.703 5.643 7.732 7.33 1.363.76 2.943 1 4.463 1.123 1.557.124 3.149 0 4.666-.406 2.436-.651 4.37-2.847 6.945-3.2.789-.108 2.425 1.459 3.27 1.946 1.362.76 2.943 1 4.463 1.122 1.556.125 3.148 0 4.666-.405 2.435-.651 4.879-1.606 6.933-3.2a9.718 9.718 0 0 0 2.673-3.211c.666-1.307 1.01-2.828 1.145-4.322.208-2.308.132-4.743-.549-6.936a13.16 13.16 0 0 0-2.96-5.05c-1.382-1.466-3.07-2.559-4.832-3.438.022-.19.044-.373.06-.562.212-2.482.132-5.103-.561-7.461a14.337 14.337 0 0 0-3.007-5.432c-1.824-2.04-4.176-3.413-6.528-4.477-1.298-.587-2.695-.859-4.08-1.003-.85-.088-1.72-.163-2.578-.155z" fill="#6e9c2a" overflow="visible"/></g></svg>