<svg xmlns="http://www.w3.org/2000/svg">
  <symbol id="icon-airbnb" viewbox="0 0 29 29"><path d="M28 14.5C28 7.045 21.956 1 14.5 1S1 7.044 1 14.5 7.044 28 14.5 28 28 21.956 28 14.5zm-25.116 0c0-6.416 5.201-11.617 11.616-11.617S26.116 8.084 26.116 14.5c0 6.416-5.2 11.617-11.616 11.617-6.416 0-11.616-5.201-11.616-11.616zm19.731 2.83c-.139-.437-.377-.954-.676-1.57v-.02c-1.411-3.004-2.725-5.708-3.978-8.136l-.08-.119c-.894-1.829-1.53-2.924-3.381-2.924-1.829 0-2.606 1.272-3.402 2.924l-.06.12c-1.252 2.427-2.566 5.13-3.977 8.135v.04l-.418.914c-.159.377-.238.576-.258.636-1.014 2.785 1.073 5.23 3.6 5.23.02 0 .1 0 .199-.02h.278c1.312-.158 2.666-.993 4.038-2.486 1.372 1.49 2.726 2.328 4.038 2.487h.278c.1.02.179.02.199.02 2.527.002 4.614-2.446 3.6-5.231zm-.914 1.791c-.14.935-.776 1.71-1.65 2.088-1.69.735-3.362-.438-4.794-2.028 2.368-2.964 2.806-5.27 1.79-6.764-.597-.854-1.452-1.272-2.547-1.272-2.207 0-3.421 1.869-2.944 4.038.278 1.173 1.014 2.507 2.187 3.998-.736.815-1.432 1.392-2.048 1.75-.477.258-.935.417-1.372.457-2.008.298-3.58-1.65-2.865-3.66.1-.259.298-.736.636-1.472l.02-.04c1.094-2.387 2.428-5.09 3.959-8.095l.04-.1.437-.834c.338-.616.477-.895 1.014-1.233.258-.159.576-.238.934-.238.716 0 1.272.417 1.51.755.12.179.26.418.438.716l.418.815.06.12c1.53 3.003 2.864 5.707 3.958 8.095l.02.02.397.914.239.577c.183.459.222.916.163 1.393zm-7.201-.855c-1.014-1.272-1.61-2.387-1.81-3.342-.198-.775-.118-1.391.22-1.849.357-.536.894-.795 1.59-.795.696 0 1.233.259 1.59.795.338.458.418 1.074.22 1.85-.22.974-.816 2.087-1.81 3.341z"/></symbol>
  <symbol id="icon-facebook" viewbox="0 0 29 29">
    <path d="M12.883 23.834v-8.257h-2.779v-3.23h2.779V9.967c0-2.756 1.679-4.258 4.141-4.258.83-.002 1.659.04 2.485.126v2.885h-1.711c-1.339 0-1.601.634-1.601 1.57v2.056h3.202l-.416 3.232h-2.786v8.256h-3.314zM2.884 14.5c0-6.416 5.201-11.617 11.616-11.617S26.116 8.084 26.116 14.5c0 6.415-5.2 11.616-11.616 11.616-6.416 0-11.616-5.2-11.616-11.616zM28 14.5C28 7.044 21.956 1 14.5 1S1 7.044 1 14.5C1 21.956 7.044 28 14.5 28S28 21.954 28 14.5z"/>
  </symbol>
  <symbol id="icon-google" viewbox="0 0 29 29">
    <path d="M14.5 25.6c6.13 0 11.1-4.97 11.1-11.1 0-6.131-4.97-11.101-11.1-11.101s-11.1 4.97-11.1 11.1 4.97 11.1 11.1 11.1zm0 1.8c-7.124 0-12.9-5.776-12.9-12.9 0-7.124 5.776-12.9 12.9-12.9 7.124 0 12.9 5.776 12.9 12.9 0 7.123-5.776 12.9-12.9 12.9zM5.215 13.974c.052-3.132 2.932-5.874 6.061-5.77 1.501-.07 2.912.583 4.061 1.5-.49.558-.998 1.095-1.54 1.597-1.382-.955-3.347-1.228-4.73-.125-1.976 1.367-2.065 4.595-.164 6.065 1.848 1.678 5.343.845 5.853-1.723-1.158-.018-2.318 0-3.477-.038-.004-.69-.006-1.382-.004-2.072 1.937-.006 3.872-.01 5.811.006.117 1.625-.098 3.353-1.097 4.698-1.513 2.127-4.548 2.748-6.916 1.837-2.375-.905-4.06-3.416-3.858-5.975M20.749 11.8h1.728c.003.578.006 1.158.012 1.735.577.006 1.158.006 1.735.012v1.728c-.577.006-1.154.009-1.735.015-.006.58-.009 1.156-.012 1.734h-1.729c-.006-.578-.006-1.154-.012-1.731L19 15.275v-1.728a332.58 332.58 0 0 1 1.736-.012c.001-.58.007-1.157.013-1.735"/>
  </symbol>
  <symbol id="icon-pinterest" viewbox="0 0 29 29">
    <path d="M14.5 1C7.043 1 1 7.045 1 14.5S7.043 28 14.5 28 28 21.955 28 14.5 21.957 1 14.5 1zm0 25.117c-1.221 0-2.396-.19-3.501-.539.484-.793 1.198-2.078 1.465-3.105l.74-2.834c.388.742 1.52 1.37 2.724 1.37 3.584 0 6.166-3.307 6.166-7.414 0-3.94-3.203-6.885-7.325-6.885-5.128 0-7.851 3.453-7.851 7.213 0 1.748.928 3.926 2.411 4.619.226.104.346.059.397-.16.039-.166.24-.975.33-1.352a.356.356 0 0 0-.082-.342c-.491-.598-.885-1.697-.885-2.721 0-2.63 1.984-5.174 5.365-5.174 2.919 0 4.963 1.996 4.963 4.85 0 3.225-1.623 5.458-3.734 5.458-1.167 0-2.04-.966-1.76-2.153.335-1.416.984-2.945.984-3.97 0-.915-.49-1.68-1.504-1.68-1.192 0-2.15 1.239-2.15 2.897 0 1.055.355 1.77.355 1.77s-1.178 4.993-1.393 5.925c-.236 1.017-.147 2.442-.045 3.385C5.9 23.557 2.881 19.382 2.881 14.5c0-6.415 5.202-11.615 11.617-11.615 6.415 0 11.617 5.2 11.617 11.615 0 6.414-5.2 11.617-11.615 11.617z"/>
  </symbol>
  <symbol id="icon-rss" viewbox="0 0 29 29">
    <path d="M14.5 25.687c6.105 0 11.055-5.009 11.055-11.187 0-6.178-4.949-11.187-11.055-11.187S3.445 8.322 3.445 14.5c0 6.178 4.949 11.187 11.055 11.187zm0 1.813c-7.096 0-12.848-5.82-12.848-13s5.752-13 12.848-13c7.095 0 12.848 5.82 12.848 13s-5.753 13-12.848 13zm-2.744-8.353a1.86 1.86 0 0 1-1.849 1.87 1.86 1.86 0 0 1-1.849-1.87 1.86 1.86 0 0 1 1.849-1.871 1.86 1.86 0 0 1 1.849 1.871zm5.238 1.871h-2.619a6.512 6.512 0 0 0-1.85-4.52 6.353 6.353 0 0 0-4.466-1.872v-2.649c2.339 0 4.664.975 6.318 2.647 1.654 1.674 2.617 4.026 2.617 6.394zm1.848 0c0-2.856-1.162-5.695-3.159-7.716-1.996-2.021-4.802-3.196-7.625-3.196V7.378c3.529 0 7.037 1.47 9.532 3.995 2.496 2.524 3.948 6.074 3.948 9.645h-2.696z"/>
  </symbol>
  <symbol id="icon-tripadvisor" viewbox="0 0 29 29">
    <path d="M14.5 26.117c6.415 0 11.617-5.203 11.617-11.617 0-6.417-5.202-11.616-11.617-11.616-6.415 0-11.617 5.2-11.617 11.616 0 6.414 5.202 11.617 11.617 11.617zm0 1.882C7.043 28 1 21.956 1 14.5 1 7.044 7.043 1.002 14.5 1.002S28 7.043 28 14.5C28 21.956 21.957 28 14.5 28zm-4.236-11.05a1.684 1.684 0 0 1-1.687-1.676 1.68 1.68 0 0 1 1.687-1.678 1.677 1.677 0 1 1 0 3.354zm0-4.02a2.348 2.348 0 0 0-2.356 2.344 2.348 2.348 0 0 0 2.354 2.34 2.342 2.342 0 0 0 .002-4.684zm-1.1 2.422c0-.643.521-1.165 1.17-1.165a1.164 1.164 0 1 1 0 2.33c-.649 0-1.17-.52-1.17-1.165zm10.514 1.598a1.685 1.685 0 0 1-1.687-1.677c0-.928.756-1.677 1.687-1.677a1.677 1.677 0 1 1 0 3.354zm0-4.02a2.348 2.348 0 0 0-2.353 2.343 2.348 2.348 0 0 0 2.353 2.341 2.349 2.349 0 0 0 2.356-2.34 2.349 2.349 0 0 0-2.356-2.343zm-1.096 2.422c0-.643.524-1.165 1.17-1.165a1.17 1.17 0 0 1 1.173 1.165c0 .644-.524 1.164-1.173 1.164a1.167 1.167 0 0 1-1.17-1.164zm.922 3.712c-1.95 0-3.532-1.575-3.532-3.513a3.524 3.524 0 0 1 3.532-3.515 3.524 3.524 0 0 1 3.532 3.515 3.527 3.527 0 0 1-3.532 3.513zm-9.401 0a3.522 3.522 0 0 1-3.532-3.513 3.524 3.524 0 0 1 3.532-3.515 3.524 3.524 0 0 1 3.532 3.515 3.527 3.527 0 0 1-3.532 3.513zm8.805-8.161c-2.229.278-3.978 2.105-4.109 4.367a4.695 4.695 0 0 0-4.123-4.367c1.125-.803 2.556-1.2 4.116-1.2 1.56 0 2.994.396 4.116 1.2zm3.905 1.33l1.387-1.367h-2.808c-1.57-1.272-4.18-2.33-6.601-2.33-2.424 0-5.013 1.06-6.584 2.33H5.395l1.383 1.368a4.657 4.657 0 0 0-1.383 3.317c0 2.586 2.108 4.681 4.706 4.681a4.682 4.682 0 0 0 3.113-1.17l1.596 1.164 1.575-1.139-.02-.045a4.711 4.711 0 0 0 3.134 1.188c2.598 0 4.705-2.096 4.705-4.685a4.649 4.649 0 0 0-1.391-3.311z"/>
  </symbol>
  <symbol id="icon-twitter" viewbox="0 0 29 29">
    <path d="M11.203 21.782a10.143 10.143 0 0 1-5.493-1.606 7.19 7.19 0 0 0 5.304-1.485 3.586 3.586 0 0 1-3.348-2.489c.537.103 1.09.083 1.618-.06a3.583 3.583 0 0 1-2.875-3.514v-.046a3.558 3.558 0 0 0 1.627.45 3.587 3.587 0 0 1-1.11-4.785 10.173 10.173 0 0 0 7.386 3.745 3.587 3.587 0 0 1 6.108-3.269 7.184 7.184 0 0 0 2.275-.87 3.592 3.592 0 0 1-1.575 1.981 7.125 7.125 0 0 0 2.059-.564 7.287 7.287 0 0 1-1.788 1.857c.01.152.01.307.01.462 0 4.736-3.605 10.196-10.196 10.196M2.884 14.5c0-6.416 5.201-11.617 11.616-11.617S26.116 8.084 26.116 14.5c0 6.415-5.201 11.616-11.616 11.616S2.884 20.916 2.884 14.5zM28 14.5C28 7.044 21.956 1 14.5 1S1 7.044 1 14.5 7.044 28 14.5 28 28 21.955 28 14.5z"/>
  </symbol>
  <symbol id="icon-wordpress" viewbox="0 0 29 29">
    <path d="M20.338 24.542l3.55-10.258c.663-1.657.881-2.981.881-4.162a9.1 9.1 0 0 0-.076-1.195 11.552 11.552 0 0 1 1.423 5.575c0 4.287-2.323 8.029-5.778 10.04zM16.102 9.053c.7-.037 1.331-.108 1.331-.108.626-.076.551-.997-.075-.96 0 0-1.881.147-3.096.147-1.141 0-3.061-.146-3.061-.146-.626-.037-.697.921-.074.957 0 0 .595.073 1.221.11l1.809 4.963-2.542 7.622L7.383 9.053c.7-.037 1.33-.108 1.33-.108.625-.075.552-.996-.075-.959 0 0-1.881.146-3.096.146-.22 0-.476-.003-.748-.013A11.6 11.6 0 0 1 14.5 2.882c3.026 0 5.779 1.156 7.846 3.05-.051-.002-.1-.01-.152-.01-1.141 0-1.95.996-1.95 2.065 0 .958.553 1.765 1.142 2.724.441.773.958 1.769.958 3.204 0 .995-.383 2.149-.885 3.757l-1.157 3.872-4.2-12.491zM14.5 26.118c-1.139 0-2.242-.164-3.281-.47l3.485-10.131 3.572 9.785c.024.057.053.108.082.16a11.72 11.72 0 0 1-3.858.656zM2.882 14.5c0-1.684.361-3.284 1.005-4.729l5.541 15.186C5.555 23.072 2.882 19.099 2.882 14.5zM14.5 1C7.044 1 1 7.043 1 14.5S7.044 28 14.5 28C21.957 28 28 21.957 28 14.5S21.957 1 14.5 1z"/>
  </symbol>
</svg>
