<svg xmlns="http://www.w3.org/2000/svg" width="200" height="200"><g color="#000"><path style="marker:none" fill="#d2e0af" fill-rule="evenodd" overflow="visible" d="M0 0h200v151.75H0z"/><path style="marker:none" d="M26.413 155.36s-8.102-.11-12.154-.117c-4.783-.008-14.347.088-14.347.088L0 148.626l25.904-.002s8.347.154 12.255-.044c8.016-.52 15.746.56 23.77-.213 6.56-.177 13.09.292 19.624.303 12.322-.394 24.71.42 37.03-.29 2.451.204 4.91.6 7.376.328 13.997-.529-9.457.934 4.537.007.518-7.222 4.235-12.462 14.279-12.76 7.924-.234 16.039 4.633 16.268 12.692 1.863-.071 5.532-.023 5.532-.023l33.425.002v6.706l-33.447.036z" fill="#6e9c2a" fill-rule="evenodd" overflow="visible"/><path style="text-indent:0;text-align:start;line-height:normal;text-transform:none;block-progression:tb;marker:none;-inkscape-font-specification:Sans" d="M63.713 88.944c-.942-.023-2.016.04-2.79.198-.583.119-1.305.59-1.553 1.191-.112.269-.086.314-.094.386-.008.07-.009.123-.011.186a9.325 9.325 0 0 0-.012.444 68.682 68.682 0 0 0 .163 4.133c.066.848.07 6.005.024 7.146-.041 1.016-.04 2.061 0 3.608.015.588.03 1.127.035 1.517.003.196 0 .353 0 .456v.105c-.002.024-.011.054-.012.07-.002.054 0 .088 0 .128 0 .08.007.165.012.269.01.207.025.482.046.77.06.78.072 1.336.035 3.095-.012.598-.033 1.142-.046 1.54-.007.2-.018.363-.024.468v.046c-.002.014.001.04 0 .047v.012c-.002.015-.01.034-.011.047-.007.054-.007.1-.012.151-.01.104-.026.236-.035.386-.018.299-.03.69-.047 1.109a68.94 68.94 0 0 0-.07 2.277c0 .442.037 1.344.07 2.09.032.696.056 2.075.059 3-.073 1.688-.103 3.721-.057 4.902.062 1.351-.056 2.9-.126 4.349a185.154 185.154 0 0 1-.406 6.118c-.32 4.037-.476 14.182-1.023 14.358-.588.188-.822.034-1.518.093-.386.04-2.672.124-4.787.175-1.057.026-2.105.05-2.93.058-.825.01-1.537-.013-1.518-.011-.362-.033-.816-.028-1.635-.035a260.48 260.48 0 0 0-2.954-.012h-.011c-2.174 0-6.289-.012-9.13-.047C29.53 153.722 0 153.652 0 153.652V200h200v-46.348s-41.812.55-47.407.492l-3.316-.035c.477-.422 1.015-1.29 1.576-1.967.523-.632 1.377-1.456 2.101-2.044.361-.293.885-.76 1.25-1.109.326-.312.919-.885 1.319-1.26.412-.388.714-.683.957-1.028.244-.346.42-.822.42-1.238 0-.87-.443-1.58-1.214-1.973-.57-.29-1.43-.223-1.961.082-.43.247-.583.43-.97.782a57.82 57.82 0 0 0-1.365 1.308 91.087 91.087 0 0 0-3.13 3.21c-.67.731-.957 1.025-1.249 1.331a6.949 6.949 0 0 1 .047-1.039c.077-.558.108-1.53.14-2.942.044-1.91.074-2.362.187-3.28.115-.934.182-1.297.047-1.787-.15-.546-.53-1.08-1.133-1.331-.392-.164-.671-.16-.969-.152-.298.008-.576.029-.946.198-.488.225-1.05.882-1.179 1.507-.13.625-.095 1.25-.035 2.23.079 1.284.08 1.653 0 3.934-.036 1.031-.011 1.363.023 1.775-.534-.41-1.145-.886-1.412-1.132a33.463 33.463 0 0 0-1.693-1.448 18.188 18.188 0 0 0-.981-.7c-.373-.254-.827-.558-1.004-.678-.521-.354-1.089-.641-1.775-.619-.686.023-1.272.383-1.716.794-.328.304-.631.647-.77 1.18-.14.531.027 1.138.268 1.517.297.47.511.584.875.876.364.291.826.619 1.355.98.556.381.92.682 1.868 1.53.434.388 1.059.884 1.541 1.215.382.261.943.676 1.11.817.268.228.682.496.682.496s-.816-.13-1.138-.152c-1.457.008-1.826.215-3.036.175-9.879-.325-18.473-.401-30.144-.482 0 0 .05-.69.07-1.366.025-.783.066-1.789.094-2.136.04-.505.048-1.114.023-1.623-.04-.817-.033-2.882.015-4.175.022-.606.07-1.573.1-2.117a29.02 29.02 0 0 1 .093-1.226c.314-2.383.28-9.325-.047-11.804a20.79 20.79 0 0 0-.093-.654c-.032-.195-.034-.258-.117-.525-.148-.476-.459-.953-.91-1.25-.453-.297-.966-.398-1.46-.397-.617 0-2.067.17-2.545.748-.478.577-.54 1.227-.549 1.891.008.726.017 1.39.035 1.997.066 2.135-.067 5.31-.142 6.932-.048.871-.06 1.746-.117 2.615-.2 3.01-.234 6.102-.266 8.725.004 1.463-.09 3.074-.152 4.449-.722-.036-.82-.093-1.565-.117-9.49.112-3.11-.012-11.704-.02-1.233-.004-2.327-.042-2.568-.07-1.715-.194-3.878-.293-6.363-.303-5.282-.02-8.96.041-10.789.199-1.464.126-1.471-.055-1.84-.066-.6-3.197-.487-6.151-.46-8.346.047-3.948-.033-4.675-.047-5.815-.044-3.813.127-7.388.14-9.387.015-2.233.036-3.005.082-3.351v-.012c.115-.86.112-2.588.082-5.009v-.023c0-.208.016-1.03.035-1.798.062-2.547.089-15.61.035-18.12-.027-1.259-.067-7.99-.082-9.003-.015-1.033-.01-1.536-.093-2.031a1.828 1.828 0 0 0-.339-.818c-.205-.265-.433-.394-.537-.455a2.164 2.164 0 0 0-.724-.233 7.667 7.667 0 0 0-.805-.047z" font-weight="400" fill="#555632" overflow="visible" font-family="Sans"/><path style="marker:none" d="M70.166 89.837c-3.163.844-6.484 1.116-9.729.857-3.168-.254-6.455-.76-9.295-2.341-6.314-3.515-12.473-8.554-16.12-15.269-1.547-2.848-1.668-6.425-1.968-9.734-.249-2.748-.322-5.573.152-8.285.67-3.83 1.82-7.675 3.742-10.941 1.535-2.61 3.706-4.77 6.01-6.552 3.064-2.372 6.501-4.347 10.135-5.315 3.394-.904 6.991-.686 10.469-.344 2.836.279 5.705.805 8.362 1.942 4.814 2.06 9.623 4.728 13.356 8.68 2.726 2.886 4.936 6.56 6.165 10.513 1.42 4.568 1.573 9.632 1.14 14.44-.281 3.113-1.004 6.28-2.394 9.001a20.186 20.186 0 0 1-5.551 6.689c-4.282 3.319-9.396 5.303-14.475 6.659zm32.942 2.758a8.795 8.795 0 0 0-2.312.303c-1.614.455-3.142 1.383-4.504 2.497-1.023.836-1.988 1.846-2.67 3.071-.854 1.533-1.363 3.336-1.66 5.134-.21 1.272-.176 2.606-.065 3.896.039.459.075.92.119 1.389-.324.044-.638.11-.955.195-1.585.423-3.091 1.287-4.428 2.323-1.005.778-1.946 1.715-2.616 2.854-.838 1.426-1.347 3.104-1.638 4.776-.207 1.183-.174 2.414-.066 3.614.131 1.444.183 3.01.858 4.254 1.59 2.93 4.278 5.13 7.033 6.664 1.239.69 2.676.91 4.059 1.02 1.415.113 2.863 0 4.243-.369 2.215-.592 3.975-2.588 6.317-2.909.717-.098 2.205 1.326 2.973 1.77 1.24.69 2.677.909 4.06 1.02 1.415.113 2.863 0 4.243-.37 2.215-.591 4.438-1.46 6.306-2.908a8.836 8.836 0 0 0 2.43-2.92c.607-1.187.92-2.57 1.043-3.928.189-2.099.12-4.312-.5-6.306a11.962 11.962 0 0 0-2.691-4.59c-1.258-1.333-2.793-2.327-4.396-3.126.02-.173.04-.339.055-.51.192-2.257.12-4.64-.51-6.784a13.032 13.032 0 0 0-2.736-4.938c-1.658-1.855-3.798-3.103-5.936-4.07-1.18-.533-2.451-.78-3.712-.911-.772-.08-1.563-.149-2.344-.141z" fill="#6e9c2a" overflow="visible"/></g></svg>