<svg xmlns="http://www.w3.org/2000/svg" width="220" height="220"><g color="#000"><path style="marker:none" fill="#d2e0af" fill-rule="evenodd" overflow="visible" d="M.097 0H220v166.925H.097z"/><path style="marker:none" d="M29.139 170.896s-8.91-.121-13.364-.129c-5.258-.009-15.775.097-15.775.097l.097-7.376 28.483-.002s9.177.17 13.474-.048c8.813-.571 17.313.615 26.136-.234 7.212-.195 14.393.321 21.576.333 13.548-.433 27.169.463 40.715-.319 2.695.224 5.4.66 8.11.36 15.39-.58-10.399 1.028 4.988.009.57-7.944 4.657-13.708 15.7-14.035 8.713-.258 17.635 5.096 17.887 13.96 2.048-.078 6.083-.025 6.083-.025l36.75.002v7.376l-36.774.04z" fill="#6e9c2a" fill-rule="evenodd" overflow="visible"/><path style="text-indent:0;text-align:start;line-height:normal;text-transform:none;block-progression:tb;marker:none;-inkscape-font-specification:Sans" d="M70.15 97.838c-1.035-.024-2.217.045-3.068.219-.64.13-1.434.65-1.707 1.31-.122.295-.094.345-.103.423-.009.079-.01.136-.013.206-.007.14-.012.305-.013.488 0 .366.011.832.026 1.349.03 1.033.082 2.258.154 3.198.073.932.077 6.605.026 7.86-.045 1.117-.044 2.267 0 3.968.016.647.032 1.24.038 1.67.003.215 0 .388 0 .5v.117c-.002.026-.012.06-.013.077-.002.06 0 .097 0 .141.001.089.008.182.013.296.011.228.028.53.051.848.065.858.08 1.468.039 3.403-.013.658-.036 1.257-.051 1.695-.008.22-.02.399-.026.514v.051c-.002.016.001.044 0 .052v.013c-.002.016-.011.037-.013.051-.008.06-.008.11-.013.167-.01.114-.029.26-.038.424-.02.329-.033.759-.052 1.22a76.054 76.054 0 0 0-.077 2.504c0 .487.04 1.48.077 2.3.035.766.062 2.282.065 3.3-.08 1.857-.113 4.093-.062 5.392.067 1.486-.063 3.19-.139 4.784a203.772 203.772 0 0 1-.446 6.73c-.352 4.44-.524 15.6-1.125 15.793-.647.208-.904.038-1.669.103-.425.044-2.938.136-5.263.192-1.163.029-2.315.055-3.223.065-.907.01-1.69-.015-1.669-.013-.398-.037-.897-.03-1.797-.039a286.64 286.64 0 0 0-3.248-.013h-.013c-2.39 0-6.914-.013-10.039-.051-4.193-.05-36.662-.127-36.662-.127V220h219.902v-50.983s-45.972.606-52.123.54l-3.646-.038c.524-.463 1.115-1.419 1.732-2.163.575-.695 1.514-1.601 2.31-2.248a25.81 25.81 0 0 0 1.374-1.22c.359-.344 1.01-.973 1.45-1.387.454-.426.785-.75 1.053-1.13.268-.38.463-.905.463-1.362 0-.956-.488-1.738-1.336-2.17-.626-.32-1.572-.246-2.156.09-.472.271-.642.472-1.066.86-.424.388-.937.884-1.502 1.439a100.182 100.182 0 0 0-3.44 3.531c-.738.804-1.053 1.127-1.374 1.465a7.734 7.734 0 0 1 .051-1.143c.085-.614.12-1.684.155-3.237.048-2.1.08-2.598.205-3.609.126-1.026.2-1.426.051-1.965-.165-.6-.582-1.187-1.245-1.464-.431-.18-.738-.176-1.065-.167-.328.009-.634.031-1.04.218-.537.247-1.155.97-1.297 1.657-.142.688-.104 1.376-.038 2.453.086 1.413.087 1.82 0 4.328-.04 1.134-.013 1.5.025 1.953-.587-.451-1.26-.975-1.553-1.246a36.799 36.799 0 0 0-1.862-1.593c-.254-.203-.652-.48-1.078-.77-.41-.28-.91-.613-1.104-.745-.573-.39-1.197-.706-1.951-.681-.755.025-1.4.42-1.887.873-.36.334-.694.712-.848 1.297-.153.586.031 1.253.296 1.67.327.516.562.643.962.963.4.321.908.68 1.49 1.08.61.418 1.011.749 2.054 1.682.477.427 1.163.972 1.694 1.335.42.288 1.037.744 1.22.9.295.25.75.545.75.545s-.896-.143-1.251-.167c-1.602.009-2.008.236-3.338.192-10.862-.357-20.311-.44-33.143-.53 0 0 .053-.758.077-1.502.026-.861.072-1.968.102-2.35a14.77 14.77 0 0 0 .026-1.786c-.044-.898-.037-3.169.016-4.592.024-.667.076-1.73.11-2.328.029-.52.084-1.207.102-1.349.345-2.621.308-10.258-.051-12.985a22.995 22.995 0 0 0-.103-.719c-.035-.214-.037-.284-.128-.578-.163-.523-.504-1.047-1.002-1.374-.497-.327-1.061-.438-1.604-.437-.678 0-2.272.187-2.798.822-.526.636-.594 1.35-.603 2.081.009.799.018 1.53.038 2.196.073 2.349-.074 5.842-.156 7.626-.054.958-.067 1.92-.129 2.876-.22 3.311-.257 6.713-.293 9.598.004 1.609-.099 3.381-.166 4.893-.794-.039-.902-.101-1.722-.128-10.435.123-3.419-.014-12.868-.021-1.355-.005-2.56-.047-2.824-.077-1.886-.215-4.264-.324-6.997-.334-5.806-.022-9.851.045-11.861.218-1.61.14-1.618-.06-2.024-.072-.658-3.516-.535-6.766-.505-9.181.051-4.342-.037-5.142-.052-6.396-.049-4.194.14-8.127.154-10.326.017-2.456.04-3.306.09-3.686v-.013c.126-.945.124-2.847.09-5.51v-.025c0-.23.017-1.132.038-1.978.069-2.802.098-17.17.039-19.933-.03-1.384-.074-8.787-.09-9.902-.017-1.136-.011-1.69-.103-2.235a2.012 2.012 0 0 0-.372-.899c-.226-.292-.476-.434-.59-.5a2.379 2.379 0 0 0-.796-.258 8.46 8.46 0 0 0-.886-.051z" font-weight="400" fill="#555632" overflow="visible" font-family="Sans"/><path style="marker:none" d="M77.245 98.82c-3.477.93-7.129 1.229-10.696.943-3.484-.279-7.097-.836-10.22-2.575-6.943-3.866-13.715-9.41-17.725-16.795-1.7-3.133-1.834-7.068-2.163-10.708-.274-3.023-.354-6.13.167-9.113.736-4.213 2-8.443 4.114-12.036 1.688-2.87 4.075-5.246 6.607-7.207 3.37-2.609 7.15-4.782 11.144-5.847 3.733-.994 7.687-.754 11.511-.378 3.12.307 6.273.886 9.195 2.137 5.293 2.266 10.58 5.2 14.685 9.547 2.997 3.175 5.427 7.217 6.778 11.565 1.56 5.025 1.73 10.595 1.253 15.884-.309 3.424-1.103 6.908-2.632 9.901a22.203 22.203 0 0 1-6.103 7.357c-4.708 3.652-10.332 5.834-15.915 7.326zm36.221 3.034c-.86.008-1.713.101-2.542.334-1.775.5-3.455 1.521-4.952 2.746-1.125.92-2.186 2.032-2.936 3.379-.939 1.686-1.499 3.67-1.826 5.647-.231 1.4-.193 2.866-.071 4.285.043.505.083 1.013.131 1.529a8.485 8.485 0 0 0-1.05.214c-1.743.465-3.399 1.416-4.869 2.555-1.105.856-2.14 1.887-2.876 3.14-.921 1.568-1.48 3.414-1.801 5.253-.228 1.302-.191 2.656-.072 3.975.144 1.59.2 3.313.943 4.68 1.75 3.224 4.703 5.643 7.732 7.33 1.363.76 2.943 1 4.463 1.123 1.557.124 3.149 0 4.666-.406 2.436-.651 4.37-2.847 6.945-3.2.789-.108 2.425 1.459 3.27 1.946 1.362.76 2.943 1 4.463 1.122 1.556.125 3.148 0 4.666-.406 2.435-.65 4.879-1.605 6.933-3.199a9.718 9.718 0 0 0 2.673-3.211c.666-1.307 1.01-2.828 1.145-4.322.208-2.308.132-4.743-.549-6.936a13.16 13.16 0 0 0-2.96-5.05c-1.382-1.466-3.07-2.559-4.832-3.438.022-.19.044-.373.06-.562.212-2.482.132-5.103-.561-7.461a14.337 14.337 0 0 0-3.007-5.432c-1.824-2.04-4.176-3.413-6.528-4.477-1.298-.587-2.695-.859-4.08-1.003-.85-.088-1.72-.163-2.578-.155z" fill="#6e9c2a" overflow="visible"/></g></svg>